M48
;DRILL file {KiCad (5.0.2)-1} date 08/03/2019 13:12:50
;FORMAT={2:4/ absolute / inch / suppress leading zeros}
FMAT,2
INCH,TZ
T1C0.0157
T2C0.0236
T3C0.0315
T4C0.0350
T5C0.0700
%
G90
G05
T1
X60039Y-34606
T2
X64961Y-23228
X65551Y-23228
X65748Y-18504
X65748Y-19094
X60681Y-32610
X66678Y-31376
X67269Y-31376
X65157Y-20965
X65748Y-20965
X59402Y-33878
X59402Y-34469
X66677Y-29327
X67268Y-29327
X60681Y-32020
T3
X62382Y-31378
X65382Y-31378
X63287Y-19094
X63287Y-22094
X54291Y-23031
X54291Y-26031
X60776Y-37783
X61563Y-37783
X64316Y-34132
X67316Y-34132
X64961Y-16831
X65748Y-16831
X52953Y-27362
X52953Y-30362
X67323Y-18535
X67323Y-21535
X52902Y-37978
X53689Y-37978
X59402Y-35701
X62402Y-35701
X52843Y-34709
X55843Y-34709
X63287Y-27736
X63287Y-28524
X63287Y-29311
X63287Y-23228
X63287Y-26228
X50894Y-37978
X51681Y-37978
X57768Y-32626
X57768Y-35626
T4
X58220Y-22528
X58220Y-23528
X58220Y-24528
X58220Y-25528
X58220Y-26528
X58220Y-27528
X58220Y-28528
X58220Y-29528
X61220Y-22528
X61220Y-23528
X61220Y-24528
X61220Y-25528
X61220Y-26528
X61220Y-27528
X61220Y-28528
X61220Y-29528
T5
X44425Y-34709
X50445Y-34709
X44425Y-30378
X50445Y-30378
X44425Y-26047
X50445Y-26047
T0
M30
