M48
;DRILL file {KiCad (5.0.2)-1} date 08/03/2019 12:51:08
;FORMAT={-:-/ absolute / inch / decimal}
FMAT,2
INCH,TZ
T1C0.0157
T2C0.0236
T3C0.0315
T4C0.0350
T5C0.0700
%
G90
G05
T1
X6.0039Y-3.4606
T2
X6.6677Y-2.9327
X6.7268Y-2.9327
X6.5748Y-1.8504
X6.5748Y-1.9094
X5.9402Y-3.3878
X5.9402Y-3.4469
X6.4961Y-2.3228
X6.5551Y-2.3228
X6.0681Y-3.202
X6.0681Y-3.261
X6.5157Y-2.0965
X6.5748Y-2.0965
X6.6678Y-3.1376
X6.7269Y-3.1376
T3
X6.2382Y-3.1378
X6.5382Y-3.1378
X5.2953Y-2.7362
X5.2953Y-3.0362
X5.0894Y-3.7978
X5.1681Y-3.7978
X5.4291Y-2.3031
X5.4291Y-2.6031
X5.2902Y-3.7978
X5.3689Y-3.7978
X5.2843Y-3.4709
X5.5843Y-3.4709
X6.3287Y-2.7736
X6.3287Y-2.8524
X6.3287Y-2.9311
X6.0776Y-3.7783
X6.1563Y-3.7783
X6.3287Y-1.9094
X6.3287Y-2.2094
X5.9402Y-3.5701
X6.2402Y-3.5701
X6.4316Y-3.4132
X6.7316Y-3.4132
X6.7323Y-1.8535
X6.7323Y-2.1535
X5.7768Y-3.2626
X5.7768Y-3.5626
X6.4961Y-1.6831
X6.5748Y-1.6831
X6.3287Y-2.3228
X6.3287Y-2.6228
T4
X5.822Y-2.2528
X5.822Y-2.3528
X5.822Y-2.4528
X5.822Y-2.5528
X5.822Y-2.6528
X5.822Y-2.7528
X5.822Y-2.8528
X5.822Y-2.9528
X6.122Y-2.2528
X6.122Y-2.3528
X6.122Y-2.4528
X6.122Y-2.5528
X6.122Y-2.6528
X6.122Y-2.7528
X6.122Y-2.8528
X6.122Y-2.9528
T5
X4.4425Y-3.4709
X5.0445Y-3.4709
X4.4425Y-2.6047
X5.0445Y-2.6047
X4.4425Y-3.0378
X5.0445Y-3.0378
T0
M30
