G04 #@! TF.GenerationSoftware,KiCad,Pcbnew,(5.0.2)-1*
G04 #@! TF.CreationDate,2019-03-08T12:48:48+01:00*
G04 #@! TF.ProjectId,ECG_final,4543475f-6669-46e6-916c-2e6b69636164,rev?*
G04 #@! TF.SameCoordinates,Original*
G04 #@! TF.FileFunction,Soldermask,Bot*
G04 #@! TF.FilePolarity,Negative*
%FSLAX46Y46*%
G04 Gerber Fmt 4.6, Leading zero omitted, Abs format (unit mm)*
G04 Created by KiCad (PCBNEW (5.0.2)-1) date 08/03/2019 12:48:48*
%MOMM*%
%LPD*%
G01*
G04 APERTURE LIST*
%ADD10C,0.100000*%
G04 APERTURE END LIST*
D10*
G36*
X137096000Y-97191000D02*
X135644000Y-97191000D01*
X135644000Y-95739000D01*
X137096000Y-95739000D01*
X137096000Y-97191000D01*
X137096000Y-97191000D01*
G37*
G36*
X134426991Y-95741101D02*
X134512321Y-95749505D01*
X134649172Y-95791019D01*
X134649174Y-95791020D01*
X134649177Y-95791021D01*
X134775296Y-95858432D01*
X134885843Y-95949157D01*
X134976568Y-96059704D01*
X135043979Y-96185823D01*
X135043980Y-96185826D01*
X135043981Y-96185828D01*
X135085495Y-96322679D01*
X135099512Y-96465000D01*
X135085495Y-96607321D01*
X135043981Y-96744172D01*
X135043979Y-96744177D01*
X134976568Y-96870296D01*
X134885843Y-96980843D01*
X134775296Y-97071568D01*
X134649177Y-97138979D01*
X134649174Y-97138980D01*
X134649172Y-97138981D01*
X134512321Y-97180495D01*
X134426991Y-97188899D01*
X134405660Y-97191000D01*
X134334340Y-97191000D01*
X134313009Y-97188899D01*
X134227679Y-97180495D01*
X134090828Y-97138981D01*
X134090826Y-97138980D01*
X134090823Y-97138979D01*
X133964704Y-97071568D01*
X133854157Y-96980843D01*
X133763432Y-96870296D01*
X133696021Y-96744177D01*
X133696019Y-96744172D01*
X133654505Y-96607321D01*
X133640488Y-96465000D01*
X133654505Y-96322679D01*
X133696019Y-96185828D01*
X133696020Y-96185826D01*
X133696021Y-96185823D01*
X133763432Y-96059704D01*
X133854157Y-95949157D01*
X133964704Y-95858432D01*
X134090823Y-95791021D01*
X134090826Y-95791020D01*
X134090828Y-95791019D01*
X134227679Y-95749505D01*
X134313009Y-95741101D01*
X134334340Y-95739000D01*
X134405660Y-95739000D01*
X134426991Y-95741101D01*
X134426991Y-95741101D01*
G37*
G36*
X131326991Y-95741101D02*
X131412321Y-95749505D01*
X131549172Y-95791019D01*
X131549174Y-95791020D01*
X131549177Y-95791021D01*
X131675296Y-95858432D01*
X131785843Y-95949157D01*
X131876568Y-96059704D01*
X131943979Y-96185823D01*
X131943980Y-96185826D01*
X131943981Y-96185828D01*
X131985495Y-96322679D01*
X131999512Y-96465000D01*
X131985495Y-96607321D01*
X131943981Y-96744172D01*
X131943979Y-96744177D01*
X131876568Y-96870296D01*
X131785843Y-96980843D01*
X131675296Y-97071568D01*
X131549177Y-97138979D01*
X131549174Y-97138980D01*
X131549172Y-97138981D01*
X131412321Y-97180495D01*
X131326991Y-97188899D01*
X131305660Y-97191000D01*
X131234340Y-97191000D01*
X131213009Y-97188899D01*
X131127679Y-97180495D01*
X130990828Y-97138981D01*
X130990826Y-97138980D01*
X130990823Y-97138979D01*
X130864704Y-97071568D01*
X130754157Y-96980843D01*
X130663432Y-96870296D01*
X130596021Y-96744177D01*
X130596019Y-96744172D01*
X130554505Y-96607321D01*
X130540488Y-96465000D01*
X130554505Y-96322679D01*
X130596019Y-96185828D01*
X130596020Y-96185826D01*
X130596021Y-96185823D01*
X130663432Y-96059704D01*
X130754157Y-95949157D01*
X130864704Y-95858432D01*
X130990823Y-95791021D01*
X130990826Y-95791020D01*
X130990828Y-95791019D01*
X131127679Y-95749505D01*
X131213009Y-95741101D01*
X131234340Y-95739000D01*
X131305660Y-95739000D01*
X131326991Y-95741101D01*
X131326991Y-95741101D01*
G37*
G36*
X129996000Y-97191000D02*
X128544000Y-97191000D01*
X128544000Y-95739000D01*
X129996000Y-95739000D01*
X129996000Y-97191000D01*
X129996000Y-97191000D01*
G37*
G36*
X154426991Y-95246101D02*
X154512321Y-95254505D01*
X154649172Y-95296019D01*
X154649174Y-95296020D01*
X154649177Y-95296021D01*
X154775296Y-95363432D01*
X154885843Y-95454157D01*
X154976568Y-95564704D01*
X155043979Y-95690823D01*
X155043980Y-95690826D01*
X155043981Y-95690828D01*
X155085495Y-95827679D01*
X155099512Y-95970000D01*
X155085495Y-96112321D01*
X155043981Y-96249172D01*
X155043979Y-96249177D01*
X154976568Y-96375296D01*
X154885843Y-96485843D01*
X154775296Y-96576568D01*
X154649177Y-96643979D01*
X154649174Y-96643980D01*
X154649172Y-96643981D01*
X154512321Y-96685495D01*
X154426991Y-96693899D01*
X154405660Y-96696000D01*
X154334340Y-96696000D01*
X154313009Y-96693899D01*
X154227679Y-96685495D01*
X154090828Y-96643981D01*
X154090826Y-96643980D01*
X154090823Y-96643979D01*
X153964704Y-96576568D01*
X153854157Y-96485843D01*
X153763432Y-96375296D01*
X153696021Y-96249177D01*
X153696019Y-96249172D01*
X153654505Y-96112321D01*
X153640488Y-95970000D01*
X153654505Y-95827679D01*
X153696019Y-95690828D01*
X153696020Y-95690826D01*
X153696021Y-95690823D01*
X153763432Y-95564704D01*
X153854157Y-95454157D01*
X153964704Y-95363432D01*
X154090823Y-95296021D01*
X154090826Y-95296020D01*
X154090828Y-95296019D01*
X154227679Y-95254505D01*
X154313009Y-95246101D01*
X154334340Y-95244000D01*
X154405660Y-95244000D01*
X154426991Y-95246101D01*
X154426991Y-95246101D01*
G37*
G36*
X157096000Y-96696000D02*
X155644000Y-96696000D01*
X155644000Y-95244000D01*
X157096000Y-95244000D01*
X157096000Y-96696000D01*
X157096000Y-96696000D01*
G37*
G36*
X151128228Y-89861703D02*
X151283100Y-89925853D01*
X151422481Y-90018985D01*
X151541015Y-90137519D01*
X151634147Y-90276900D01*
X151698297Y-90431772D01*
X151731000Y-90596184D01*
X151731000Y-90763816D01*
X151698297Y-90928228D01*
X151634147Y-91083100D01*
X151541015Y-91222481D01*
X151422481Y-91341015D01*
X151283100Y-91434147D01*
X151128228Y-91498297D01*
X150963816Y-91531000D01*
X150796184Y-91531000D01*
X150631772Y-91498297D01*
X150476900Y-91434147D01*
X150337519Y-91341015D01*
X150218985Y-91222481D01*
X150125853Y-91083100D01*
X150061703Y-90928228D01*
X150029000Y-90763816D01*
X150029000Y-90596184D01*
X150061703Y-90431772D01*
X150125853Y-90276900D01*
X150218985Y-90137519D01*
X150337519Y-90018985D01*
X150476900Y-89925853D01*
X150631772Y-89861703D01*
X150796184Y-89829000D01*
X150963816Y-89829000D01*
X151128228Y-89861703D01*
X151128228Y-89861703D01*
G37*
G36*
X158666821Y-89841313D02*
X158666824Y-89841314D01*
X158666825Y-89841314D01*
X158827239Y-89889975D01*
X158827241Y-89889976D01*
X158827244Y-89889977D01*
X158975078Y-89968995D01*
X159104659Y-90075341D01*
X159211005Y-90204922D01*
X159290023Y-90352756D01*
X159290024Y-90352759D01*
X159290025Y-90352761D01*
X159331656Y-90490000D01*
X159338687Y-90513179D01*
X159355117Y-90680000D01*
X159338687Y-90846821D01*
X159338686Y-90846824D01*
X159338686Y-90846825D01*
X159313993Y-90928228D01*
X159290023Y-91007244D01*
X159211005Y-91155078D01*
X159104659Y-91284659D01*
X158975078Y-91391005D01*
X158827244Y-91470023D01*
X158827241Y-91470024D01*
X158827239Y-91470025D01*
X158666825Y-91518686D01*
X158666824Y-91518686D01*
X158666821Y-91518687D01*
X158541804Y-91531000D01*
X158458196Y-91531000D01*
X158333179Y-91518687D01*
X158333176Y-91518686D01*
X158333175Y-91518686D01*
X158172761Y-91470025D01*
X158172759Y-91470024D01*
X158172756Y-91470023D01*
X158024922Y-91391005D01*
X157895341Y-91284659D01*
X157788995Y-91155078D01*
X157709977Y-91007244D01*
X157686008Y-90928228D01*
X157661314Y-90846825D01*
X157661314Y-90846824D01*
X157661313Y-90846821D01*
X157644883Y-90680000D01*
X157661313Y-90513179D01*
X157668344Y-90490000D01*
X157709975Y-90352761D01*
X157709976Y-90352759D01*
X157709977Y-90352756D01*
X157788995Y-90204922D01*
X157895341Y-90075341D01*
X158024922Y-89968995D01*
X158172756Y-89889977D01*
X158172759Y-89889976D01*
X158172761Y-89889975D01*
X158333175Y-89841314D01*
X158333176Y-89841314D01*
X158333179Y-89841313D01*
X158458196Y-89829000D01*
X158541804Y-89829000D01*
X158666821Y-89841313D01*
X158666821Y-89841313D01*
G37*
G36*
X146896821Y-89651313D02*
X146896824Y-89651314D01*
X146896825Y-89651314D01*
X147057239Y-89699975D01*
X147057241Y-89699976D01*
X147057244Y-89699977D01*
X147205078Y-89778995D01*
X147334659Y-89885341D01*
X147441005Y-90014922D01*
X147520023Y-90162756D01*
X147520024Y-90162759D01*
X147520025Y-90162761D01*
X147568686Y-90323175D01*
X147568687Y-90323179D01*
X147585117Y-90490000D01*
X147568687Y-90656821D01*
X147568686Y-90656824D01*
X147568686Y-90656825D01*
X147536231Y-90763816D01*
X147520023Y-90817244D01*
X147441005Y-90965078D01*
X147334659Y-91094659D01*
X147205078Y-91201005D01*
X147057244Y-91280023D01*
X147057241Y-91280024D01*
X147057239Y-91280025D01*
X146896825Y-91328686D01*
X146896824Y-91328686D01*
X146896821Y-91328687D01*
X146771804Y-91341000D01*
X146688196Y-91341000D01*
X146563179Y-91328687D01*
X146563176Y-91328686D01*
X146563175Y-91328686D01*
X146402761Y-91280025D01*
X146402759Y-91280024D01*
X146402756Y-91280023D01*
X146254922Y-91201005D01*
X146125341Y-91094659D01*
X146018995Y-90965078D01*
X145939977Y-90817244D01*
X145923770Y-90763816D01*
X145891314Y-90656825D01*
X145891314Y-90656824D01*
X145891313Y-90656821D01*
X145874883Y-90490000D01*
X145891313Y-90323179D01*
X145891314Y-90323175D01*
X145939975Y-90162761D01*
X145939976Y-90162759D01*
X145939977Y-90162756D01*
X146018995Y-90014922D01*
X146125341Y-89885341D01*
X146254922Y-89778995D01*
X146402756Y-89699977D01*
X146402759Y-89699976D01*
X146402761Y-89699975D01*
X146563175Y-89651314D01*
X146563176Y-89651314D01*
X146563179Y-89651313D01*
X146688196Y-89639000D01*
X146771804Y-89639000D01*
X146896821Y-89651313D01*
X146896821Y-89651313D01*
G37*
G36*
X130086800Y-90116000D02*
X126174800Y-90116000D01*
X126174800Y-86204000D01*
X130086800Y-86204000D01*
X130086800Y-90116000D01*
X130086800Y-90116000D01*
G37*
G36*
X114796000Y-90116000D02*
X110884000Y-90116000D01*
X110884000Y-86204000D01*
X114796000Y-86204000D01*
X114796000Y-90116000D01*
X114796000Y-90116000D01*
G37*
G36*
X142088228Y-87341703D02*
X142243100Y-87405853D01*
X142382481Y-87498985D01*
X142501015Y-87617519D01*
X142594147Y-87756900D01*
X142658297Y-87911772D01*
X142691000Y-88076184D01*
X142691000Y-88243816D01*
X142658297Y-88408228D01*
X142594147Y-88563100D01*
X142501015Y-88702481D01*
X142382481Y-88821015D01*
X142243100Y-88914147D01*
X142088228Y-88978297D01*
X141923816Y-89011000D01*
X141756184Y-89011000D01*
X141591772Y-88978297D01*
X141436900Y-88914147D01*
X141297519Y-88821015D01*
X141178985Y-88702481D01*
X141085853Y-88563100D01*
X141021703Y-88408228D01*
X140989000Y-88243816D01*
X140989000Y-88076184D01*
X141021703Y-87911772D01*
X141085853Y-87756900D01*
X141178985Y-87617519D01*
X141297519Y-87498985D01*
X141436900Y-87405853D01*
X141591772Y-87341703D01*
X141756184Y-87309000D01*
X141923816Y-87309000D01*
X142088228Y-87341703D01*
X142088228Y-87341703D01*
G37*
G36*
X134386821Y-87321313D02*
X134386824Y-87321314D01*
X134386825Y-87321314D01*
X134547239Y-87369975D01*
X134547241Y-87369976D01*
X134547244Y-87369977D01*
X134695078Y-87448995D01*
X134824659Y-87555341D01*
X134931005Y-87684922D01*
X135010023Y-87832756D01*
X135010024Y-87832759D01*
X135010025Y-87832761D01*
X135050137Y-87964992D01*
X135058687Y-87993179D01*
X135075117Y-88160000D01*
X135058687Y-88326821D01*
X135058686Y-88326824D01*
X135058686Y-88326825D01*
X135033993Y-88408228D01*
X135010023Y-88487244D01*
X134931005Y-88635078D01*
X134824659Y-88764659D01*
X134695078Y-88871005D01*
X134547244Y-88950023D01*
X134547241Y-88950024D01*
X134547239Y-88950025D01*
X134386825Y-88998686D01*
X134386824Y-88998686D01*
X134386821Y-88998687D01*
X134261804Y-89011000D01*
X134178196Y-89011000D01*
X134053179Y-88998687D01*
X134053176Y-88998686D01*
X134053175Y-88998686D01*
X133892761Y-88950025D01*
X133892759Y-88950024D01*
X133892756Y-88950023D01*
X133744922Y-88871005D01*
X133615341Y-88764659D01*
X133508995Y-88635078D01*
X133429977Y-88487244D01*
X133406008Y-88408228D01*
X133381314Y-88326825D01*
X133381314Y-88326824D01*
X133381313Y-88326821D01*
X133364883Y-88160000D01*
X133381313Y-87993179D01*
X133389863Y-87964992D01*
X133429975Y-87832761D01*
X133429976Y-87832759D01*
X133429977Y-87832756D01*
X133508995Y-87684922D01*
X133615341Y-87555341D01*
X133744922Y-87448995D01*
X133892756Y-87369977D01*
X133892759Y-87369976D01*
X133892761Y-87369975D01*
X134053175Y-87321314D01*
X134053176Y-87321314D01*
X134053179Y-87321313D01*
X134178196Y-87309000D01*
X134261804Y-87309000D01*
X134386821Y-87321313D01*
X134386821Y-87321313D01*
G37*
G36*
X151069890Y-85424017D02*
X151188361Y-85473089D01*
X151294992Y-85544338D01*
X151385662Y-85635008D01*
X151456911Y-85741639D01*
X151505983Y-85860110D01*
X151531000Y-85985881D01*
X151531000Y-86114119D01*
X151505983Y-86239890D01*
X151456911Y-86358361D01*
X151456909Y-86358364D01*
X151398064Y-86446432D01*
X151385662Y-86464992D01*
X151294992Y-86555662D01*
X151188361Y-86626911D01*
X151069890Y-86675983D01*
X151062753Y-86677403D01*
X151039306Y-86684515D01*
X151017695Y-86696066D01*
X150998753Y-86711611D01*
X150983208Y-86730553D01*
X150971656Y-86752164D01*
X150964543Y-86775613D01*
X150962141Y-86799999D01*
X150964543Y-86824386D01*
X150971656Y-86847835D01*
X150983207Y-86869446D01*
X150998752Y-86888388D01*
X151017694Y-86903933D01*
X151039305Y-86915485D01*
X151062753Y-86922597D01*
X151069890Y-86924017D01*
X151188361Y-86973089D01*
X151188364Y-86973091D01*
X151261418Y-87021904D01*
X151294992Y-87044338D01*
X151385662Y-87135008D01*
X151456911Y-87241639D01*
X151505983Y-87360110D01*
X151531000Y-87485881D01*
X151531000Y-87614119D01*
X151505983Y-87739890D01*
X151456911Y-87858361D01*
X151385662Y-87964992D01*
X151294992Y-88055662D01*
X151188361Y-88126911D01*
X151069890Y-88175983D01*
X150944119Y-88201000D01*
X150815881Y-88201000D01*
X150690110Y-88175983D01*
X150571639Y-88126911D01*
X150465008Y-88055662D01*
X150374338Y-87964992D01*
X150303089Y-87858361D01*
X150254017Y-87739890D01*
X150229000Y-87614119D01*
X150229000Y-87485881D01*
X150254017Y-87360110D01*
X150303089Y-87241639D01*
X150374338Y-87135008D01*
X150465008Y-87044338D01*
X150498583Y-87021904D01*
X150571636Y-86973091D01*
X150571639Y-86973089D01*
X150690110Y-86924017D01*
X150697247Y-86922597D01*
X150720694Y-86915485D01*
X150742305Y-86903934D01*
X150761247Y-86888389D01*
X150776792Y-86869447D01*
X150788344Y-86847836D01*
X150795457Y-86824387D01*
X150797859Y-86800001D01*
X150795457Y-86775614D01*
X150788344Y-86752165D01*
X150776793Y-86730554D01*
X150761248Y-86711612D01*
X150742306Y-86696067D01*
X150720695Y-86684515D01*
X150697247Y-86677403D01*
X150690110Y-86675983D01*
X150571639Y-86626911D01*
X150465008Y-86555662D01*
X150374338Y-86464992D01*
X150361937Y-86446432D01*
X150303091Y-86358364D01*
X150303089Y-86358361D01*
X150254017Y-86239890D01*
X150229000Y-86114119D01*
X150229000Y-85985881D01*
X150254017Y-85860110D01*
X150303089Y-85741639D01*
X150374338Y-85635008D01*
X150465008Y-85544338D01*
X150571639Y-85473089D01*
X150690110Y-85424017D01*
X150815881Y-85399000D01*
X150944119Y-85399000D01*
X151069890Y-85424017D01*
X151069890Y-85424017D01*
G37*
G36*
X171149910Y-85855973D02*
X171149913Y-85855974D01*
X171149914Y-85855974D01*
X171310328Y-85904635D01*
X171310330Y-85904636D01*
X171310333Y-85904637D01*
X171458167Y-85983655D01*
X171587748Y-86090001D01*
X171694094Y-86219582D01*
X171773112Y-86367416D01*
X171773113Y-86367419D01*
X171773114Y-86367421D01*
X171821775Y-86527835D01*
X171821776Y-86527839D01*
X171838206Y-86694660D01*
X171821776Y-86861481D01*
X171821775Y-86861484D01*
X171821775Y-86861485D01*
X171787920Y-86973091D01*
X171773112Y-87021904D01*
X171694094Y-87169738D01*
X171587748Y-87299319D01*
X171458167Y-87405665D01*
X171310333Y-87484683D01*
X171310330Y-87484684D01*
X171310328Y-87484685D01*
X171149914Y-87533346D01*
X171149913Y-87533346D01*
X171149910Y-87533347D01*
X171024893Y-87545660D01*
X170941285Y-87545660D01*
X170816268Y-87533347D01*
X170816265Y-87533346D01*
X170816264Y-87533346D01*
X170655850Y-87484685D01*
X170655848Y-87484684D01*
X170655845Y-87484683D01*
X170508011Y-87405665D01*
X170378430Y-87299319D01*
X170272084Y-87169738D01*
X170193066Y-87021904D01*
X170178259Y-86973091D01*
X170144403Y-86861485D01*
X170144403Y-86861484D01*
X170144402Y-86861481D01*
X170127972Y-86694660D01*
X170144402Y-86527839D01*
X170144403Y-86527835D01*
X170193064Y-86367421D01*
X170193065Y-86367419D01*
X170193066Y-86367416D01*
X170272084Y-86219582D01*
X170378430Y-86090001D01*
X170508011Y-85983655D01*
X170655845Y-85904637D01*
X170655848Y-85904636D01*
X170655850Y-85904635D01*
X170816264Y-85855974D01*
X170816265Y-85855974D01*
X170816268Y-85855973D01*
X170941285Y-85843660D01*
X171024893Y-85843660D01*
X171149910Y-85855973D01*
X171149910Y-85855973D01*
G37*
G36*
X163611317Y-85876363D02*
X163766189Y-85940513D01*
X163905570Y-86033645D01*
X164024104Y-86152179D01*
X164117236Y-86291560D01*
X164181386Y-86446432D01*
X164214089Y-86610844D01*
X164214089Y-86778476D01*
X164181386Y-86942888D01*
X164117236Y-87097760D01*
X164024104Y-87237141D01*
X163905570Y-87355675D01*
X163766189Y-87448807D01*
X163611317Y-87512957D01*
X163446905Y-87545660D01*
X163279273Y-87545660D01*
X163114861Y-87512957D01*
X162959989Y-87448807D01*
X162820608Y-87355675D01*
X162702074Y-87237141D01*
X162608942Y-87097760D01*
X162544792Y-86942888D01*
X162512089Y-86778476D01*
X162512089Y-86610844D01*
X162544792Y-86446432D01*
X162608942Y-86291560D01*
X162702074Y-86152179D01*
X162820608Y-86033645D01*
X162959989Y-85940513D01*
X163114861Y-85876363D01*
X163279273Y-85843660D01*
X163446905Y-85843660D01*
X163611317Y-85876363D01*
X163611317Y-85876363D01*
G37*
G36*
X146978228Y-82051703D02*
X147133100Y-82115853D01*
X147272481Y-82208985D01*
X147391015Y-82327519D01*
X147484147Y-82466900D01*
X147548297Y-82621772D01*
X147581000Y-82786184D01*
X147581000Y-82953816D01*
X147548297Y-83118228D01*
X147484147Y-83273100D01*
X147391015Y-83412481D01*
X147272481Y-83531015D01*
X147133100Y-83624147D01*
X146978228Y-83688297D01*
X146813816Y-83721000D01*
X146646184Y-83721000D01*
X146481772Y-83688297D01*
X146326900Y-83624147D01*
X146187519Y-83531015D01*
X146068985Y-83412481D01*
X145975853Y-83273100D01*
X145911703Y-83118228D01*
X145879000Y-82953816D01*
X145879000Y-82786184D01*
X145911703Y-82621772D01*
X145975853Y-82466900D01*
X146068985Y-82327519D01*
X146187519Y-82208985D01*
X146326900Y-82115853D01*
X146481772Y-82051703D01*
X146646184Y-82019000D01*
X146813816Y-82019000D01*
X146978228Y-82051703D01*
X146978228Y-82051703D01*
G37*
G36*
X154319890Y-80704017D02*
X154438361Y-80753089D01*
X154544992Y-80824338D01*
X154635662Y-80915008D01*
X154706911Y-81021639D01*
X154755983Y-81140110D01*
X154781000Y-81265881D01*
X154781000Y-81394119D01*
X154755983Y-81519890D01*
X154706911Y-81638361D01*
X154635662Y-81744992D01*
X154544992Y-81835662D01*
X154438361Y-81906911D01*
X154319890Y-81955983D01*
X154312753Y-81957403D01*
X154289306Y-81964515D01*
X154267695Y-81976066D01*
X154248753Y-81991611D01*
X154233208Y-82010553D01*
X154221656Y-82032164D01*
X154214543Y-82055613D01*
X154212141Y-82079999D01*
X154214543Y-82104386D01*
X154221656Y-82127835D01*
X154233207Y-82149446D01*
X154248752Y-82168388D01*
X154267694Y-82183933D01*
X154289305Y-82195485D01*
X154312753Y-82202597D01*
X154319890Y-82204017D01*
X154438361Y-82253089D01*
X154544992Y-82324338D01*
X154635662Y-82415008D01*
X154635664Y-82415011D01*
X154635665Y-82415012D01*
X154706909Y-82521636D01*
X154706911Y-82521639D01*
X154755983Y-82640110D01*
X154781000Y-82765881D01*
X154781000Y-82894119D01*
X154755983Y-83019890D01*
X154706911Y-83138361D01*
X154635662Y-83244992D01*
X154544992Y-83335662D01*
X154438361Y-83406911D01*
X154319890Y-83455983D01*
X154194119Y-83481000D01*
X154065881Y-83481000D01*
X153940110Y-83455983D01*
X153821639Y-83406911D01*
X153715008Y-83335662D01*
X153624338Y-83244992D01*
X153553089Y-83138361D01*
X153504017Y-83019890D01*
X153479000Y-82894119D01*
X153479000Y-82765881D01*
X153504017Y-82640110D01*
X153553089Y-82521639D01*
X153553091Y-82521636D01*
X153624335Y-82415012D01*
X153624336Y-82415011D01*
X153624338Y-82415008D01*
X153715008Y-82324338D01*
X153821639Y-82253089D01*
X153940110Y-82204017D01*
X153947247Y-82202597D01*
X153970694Y-82195485D01*
X153992305Y-82183934D01*
X154011247Y-82168389D01*
X154026792Y-82149447D01*
X154038344Y-82127836D01*
X154045457Y-82104387D01*
X154047859Y-82080001D01*
X154045457Y-82055614D01*
X154038344Y-82032165D01*
X154026793Y-82010554D01*
X154011248Y-81991612D01*
X153992306Y-81976067D01*
X153970695Y-81964515D01*
X153947247Y-81957403D01*
X153940110Y-81955983D01*
X153821639Y-81906911D01*
X153715008Y-81835662D01*
X153624338Y-81744992D01*
X153553089Y-81638361D01*
X153504017Y-81519890D01*
X153479000Y-81394119D01*
X153479000Y-81265881D01*
X153504017Y-81140110D01*
X153553089Y-81021639D01*
X153624338Y-80915008D01*
X153715008Y-80824338D01*
X153821639Y-80753089D01*
X153940110Y-80704017D01*
X154065881Y-80679000D01*
X154194119Y-80679000D01*
X154319890Y-80704017D01*
X154319890Y-80704017D01*
G37*
G36*
X158698228Y-78881703D02*
X158853100Y-78945853D01*
X158992481Y-79038985D01*
X159111015Y-79157519D01*
X159204147Y-79296900D01*
X159268297Y-79451772D01*
X159301000Y-79616184D01*
X159301000Y-79783816D01*
X159268297Y-79948228D01*
X159204147Y-80103100D01*
X159111015Y-80242481D01*
X158992481Y-80361015D01*
X158853100Y-80454147D01*
X158698228Y-80518297D01*
X158533816Y-80551000D01*
X158366184Y-80551000D01*
X158201772Y-80518297D01*
X158046900Y-80454147D01*
X157907519Y-80361015D01*
X157788985Y-80242481D01*
X157695853Y-80103100D01*
X157631703Y-79948228D01*
X157599000Y-79783816D01*
X157599000Y-79616184D01*
X157631703Y-79451772D01*
X157695853Y-79296900D01*
X157788985Y-79157519D01*
X157907519Y-79038985D01*
X158046900Y-78945853D01*
X158201772Y-78881703D01*
X158366184Y-78849000D01*
X158533816Y-78849000D01*
X158698228Y-78881703D01*
X158698228Y-78881703D01*
G37*
G36*
X166236821Y-78861313D02*
X166236824Y-78861314D01*
X166236825Y-78861314D01*
X166397239Y-78909975D01*
X166397241Y-78909976D01*
X166397244Y-78909977D01*
X166545078Y-78988995D01*
X166674659Y-79095341D01*
X166781005Y-79224922D01*
X166860023Y-79372756D01*
X166860024Y-79372759D01*
X166860025Y-79372761D01*
X166900069Y-79504770D01*
X166908687Y-79533179D01*
X166925117Y-79700000D01*
X166908687Y-79866821D01*
X166908686Y-79866824D01*
X166908686Y-79866825D01*
X166867371Y-80003024D01*
X166860023Y-80027244D01*
X166781005Y-80175078D01*
X166674659Y-80304659D01*
X166545078Y-80411005D01*
X166397244Y-80490023D01*
X166397241Y-80490024D01*
X166397239Y-80490025D01*
X166236825Y-80538686D01*
X166236824Y-80538686D01*
X166236821Y-80538687D01*
X166111804Y-80551000D01*
X166028196Y-80551000D01*
X165903179Y-80538687D01*
X165903176Y-80538686D01*
X165903175Y-80538686D01*
X165742761Y-80490025D01*
X165742759Y-80490024D01*
X165742756Y-80490023D01*
X165594922Y-80411005D01*
X165465341Y-80304659D01*
X165358995Y-80175078D01*
X165279977Y-80027244D01*
X165272630Y-80003024D01*
X165231314Y-79866825D01*
X165231314Y-79866824D01*
X165231313Y-79866821D01*
X165214883Y-79700000D01*
X165231313Y-79533179D01*
X165239931Y-79504770D01*
X165279975Y-79372761D01*
X165279976Y-79372759D01*
X165279977Y-79372756D01*
X165358995Y-79224922D01*
X165465341Y-79095341D01*
X165594922Y-78988995D01*
X165742756Y-78909977D01*
X165742759Y-78909976D01*
X165742761Y-78909975D01*
X165903175Y-78861314D01*
X165903176Y-78861314D01*
X165903179Y-78861313D01*
X166028196Y-78849000D01*
X166111804Y-78849000D01*
X166236821Y-78861313D01*
X166236821Y-78861313D01*
G37*
G36*
X169552979Y-79068677D02*
X169671450Y-79117749D01*
X169778081Y-79188998D01*
X169868751Y-79279668D01*
X169940000Y-79386299D01*
X169989072Y-79504770D01*
X169990491Y-79511905D01*
X169997604Y-79535354D01*
X170009155Y-79556965D01*
X170024700Y-79575907D01*
X170043642Y-79591452D01*
X170065253Y-79603004D01*
X170088702Y-79610117D01*
X170113088Y-79612519D01*
X170137475Y-79610117D01*
X170160924Y-79603004D01*
X170182535Y-79591453D01*
X170201477Y-79575908D01*
X170217022Y-79556966D01*
X170228574Y-79535355D01*
X170235687Y-79511905D01*
X170237106Y-79504770D01*
X170286178Y-79386299D01*
X170357427Y-79279668D01*
X170448097Y-79188998D01*
X170554728Y-79117749D01*
X170673199Y-79068677D01*
X170798970Y-79043660D01*
X170927208Y-79043660D01*
X171052979Y-79068677D01*
X171171450Y-79117749D01*
X171278081Y-79188998D01*
X171368751Y-79279668D01*
X171440000Y-79386299D01*
X171489072Y-79504770D01*
X171514089Y-79630541D01*
X171514089Y-79758779D01*
X171489072Y-79884550D01*
X171440000Y-80003021D01*
X171368751Y-80109652D01*
X171278081Y-80200322D01*
X171171450Y-80271571D01*
X171052979Y-80320643D01*
X170927208Y-80345660D01*
X170798970Y-80345660D01*
X170673199Y-80320643D01*
X170554728Y-80271571D01*
X170448097Y-80200322D01*
X170357427Y-80109652D01*
X170286178Y-80003021D01*
X170237106Y-79884550D01*
X170235687Y-79877415D01*
X170228574Y-79853966D01*
X170217023Y-79832355D01*
X170201478Y-79813413D01*
X170182536Y-79797868D01*
X170160925Y-79786316D01*
X170137476Y-79779203D01*
X170113090Y-79776801D01*
X170088703Y-79779203D01*
X170065254Y-79786316D01*
X170043643Y-79797867D01*
X170024701Y-79813412D01*
X170009156Y-79832354D01*
X169997604Y-79853965D01*
X169990491Y-79877415D01*
X169989072Y-79884550D01*
X169940000Y-80003021D01*
X169868751Y-80109652D01*
X169778081Y-80200322D01*
X169671450Y-80271571D01*
X169552979Y-80320643D01*
X169427208Y-80345660D01*
X169298970Y-80345660D01*
X169173199Y-80320643D01*
X169054728Y-80271571D01*
X168948097Y-80200322D01*
X168857427Y-80109652D01*
X168786178Y-80003021D01*
X168737106Y-79884550D01*
X168712089Y-79758779D01*
X168712089Y-79630541D01*
X168737106Y-79504770D01*
X168786178Y-79386299D01*
X168857427Y-79279668D01*
X168948097Y-79188998D01*
X169054728Y-79117749D01*
X169173199Y-79068677D01*
X169298970Y-79043660D01*
X169427208Y-79043660D01*
X169552979Y-79068677D01*
X169552979Y-79068677D01*
G37*
G36*
X130086800Y-79116000D02*
X126174800Y-79116000D01*
X126174800Y-75204000D01*
X130086800Y-75204000D01*
X130086800Y-79116000D01*
X130086800Y-79116000D01*
G37*
G36*
X114796000Y-79116000D02*
X110884000Y-79116000D01*
X110884000Y-75204000D01*
X114796000Y-75204000D01*
X114796000Y-79116000D01*
X114796000Y-79116000D01*
G37*
G36*
X134666821Y-76281313D02*
X134666824Y-76281314D01*
X134666825Y-76281314D01*
X134827239Y-76329975D01*
X134827241Y-76329976D01*
X134827244Y-76329977D01*
X134975078Y-76408995D01*
X135104659Y-76515341D01*
X135211005Y-76644922D01*
X135290023Y-76792756D01*
X135338687Y-76953179D01*
X135355117Y-77120000D01*
X135338687Y-77286821D01*
X135290023Y-77447244D01*
X135211005Y-77595078D01*
X135104659Y-77724659D01*
X134975078Y-77831005D01*
X134827244Y-77910023D01*
X134827241Y-77910024D01*
X134827239Y-77910025D01*
X134666825Y-77958686D01*
X134666824Y-77958686D01*
X134666821Y-77958687D01*
X134541804Y-77971000D01*
X134458196Y-77971000D01*
X134333179Y-77958687D01*
X134333176Y-77958686D01*
X134333175Y-77958686D01*
X134172761Y-77910025D01*
X134172759Y-77910024D01*
X134172756Y-77910023D01*
X134024922Y-77831005D01*
X133895341Y-77724659D01*
X133788995Y-77595078D01*
X133709977Y-77447244D01*
X133661313Y-77286821D01*
X133644883Y-77120000D01*
X133661313Y-76953179D01*
X133709977Y-76792756D01*
X133788995Y-76644922D01*
X133895341Y-76515341D01*
X134024922Y-76408995D01*
X134172756Y-76329977D01*
X134172759Y-76329976D01*
X134172761Y-76329975D01*
X134333175Y-76281314D01*
X134333176Y-76281314D01*
X134333179Y-76281313D01*
X134458196Y-76269000D01*
X134541804Y-76269000D01*
X134666821Y-76281313D01*
X134666821Y-76281313D01*
G37*
G36*
X155718621Y-74279302D02*
X155855022Y-74335801D01*
X155977779Y-74417825D01*
X156082175Y-74522221D01*
X156164199Y-74644978D01*
X156220698Y-74781379D01*
X156249500Y-74926181D01*
X156249500Y-75073819D01*
X156220698Y-75218621D01*
X156164199Y-75355022D01*
X156082175Y-75477779D01*
X155977779Y-75582175D01*
X155855022Y-75664199D01*
X155718621Y-75720698D01*
X155573819Y-75749500D01*
X155426181Y-75749500D01*
X155281379Y-75720698D01*
X155144978Y-75664199D01*
X155022221Y-75582175D01*
X154917825Y-75477779D01*
X154835801Y-75355022D01*
X154779302Y-75218621D01*
X154750500Y-75073819D01*
X154750500Y-74926181D01*
X154779302Y-74781379D01*
X154835801Y-74644978D01*
X154917825Y-74522221D01*
X155022221Y-74417825D01*
X155144978Y-74335801D01*
X155281379Y-74279302D01*
X155426181Y-74250500D01*
X155573819Y-74250500D01*
X155718621Y-74279302D01*
X155718621Y-74279302D01*
G37*
G36*
X148098621Y-74279302D02*
X148235022Y-74335801D01*
X148357779Y-74417825D01*
X148462175Y-74522221D01*
X148544199Y-74644978D01*
X148600698Y-74781379D01*
X148629500Y-74926181D01*
X148629500Y-75073819D01*
X148600698Y-75218621D01*
X148544199Y-75355022D01*
X148462175Y-75477779D01*
X148357779Y-75582175D01*
X148235022Y-75664199D01*
X148098621Y-75720698D01*
X147953819Y-75749500D01*
X147806181Y-75749500D01*
X147661379Y-75720698D01*
X147524978Y-75664199D01*
X147402221Y-75582175D01*
X147297825Y-75477779D01*
X147215801Y-75355022D01*
X147159302Y-75218621D01*
X147130500Y-75073819D01*
X147130500Y-74926181D01*
X147159302Y-74781379D01*
X147215801Y-74644978D01*
X147297825Y-74522221D01*
X147402221Y-74417825D01*
X147524978Y-74335801D01*
X147661379Y-74279302D01*
X147806181Y-74250500D01*
X147953819Y-74250500D01*
X148098621Y-74279302D01*
X148098621Y-74279302D01*
G37*
G36*
X161476000Y-75176000D02*
X160024000Y-75176000D01*
X160024000Y-73724000D01*
X161476000Y-73724000D01*
X161476000Y-75176000D01*
X161476000Y-75176000D01*
G37*
G36*
X169549890Y-73864017D02*
X169668361Y-73913089D01*
X169774992Y-73984338D01*
X169865662Y-74075008D01*
X169936911Y-74181639D01*
X169985983Y-74300110D01*
X169987402Y-74307245D01*
X169994515Y-74330694D01*
X170006066Y-74352305D01*
X170021611Y-74371247D01*
X170040553Y-74386792D01*
X170062164Y-74398344D01*
X170085613Y-74405457D01*
X170109999Y-74407859D01*
X170134386Y-74405457D01*
X170157835Y-74398344D01*
X170179446Y-74386793D01*
X170198388Y-74371248D01*
X170213933Y-74352306D01*
X170225485Y-74330695D01*
X170232598Y-74307245D01*
X170234017Y-74300110D01*
X170283089Y-74181639D01*
X170354338Y-74075008D01*
X170445008Y-73984338D01*
X170551639Y-73913089D01*
X170670110Y-73864017D01*
X170795881Y-73839000D01*
X170924119Y-73839000D01*
X171049890Y-73864017D01*
X171168361Y-73913089D01*
X171274992Y-73984338D01*
X171365662Y-74075008D01*
X171436911Y-74181639D01*
X171485983Y-74300110D01*
X171511000Y-74425881D01*
X171511000Y-74554119D01*
X171485983Y-74679890D01*
X171436911Y-74798361D01*
X171365662Y-74904992D01*
X171274992Y-74995662D01*
X171168361Y-75066911D01*
X171049890Y-75115983D01*
X170924119Y-75141000D01*
X170795881Y-75141000D01*
X170670110Y-75115983D01*
X170551639Y-75066911D01*
X170445008Y-74995662D01*
X170354338Y-74904992D01*
X170283089Y-74798361D01*
X170234017Y-74679890D01*
X170232598Y-74672755D01*
X170225485Y-74649306D01*
X170213934Y-74627695D01*
X170198389Y-74608753D01*
X170179447Y-74593208D01*
X170157836Y-74581656D01*
X170134387Y-74574543D01*
X170110001Y-74572141D01*
X170085614Y-74574543D01*
X170062165Y-74581656D01*
X170040554Y-74593207D01*
X170021612Y-74608752D01*
X170006067Y-74627694D01*
X169994515Y-74649305D01*
X169987402Y-74672755D01*
X169985983Y-74679890D01*
X169936911Y-74798361D01*
X169865662Y-74904992D01*
X169774992Y-74995662D01*
X169668361Y-75066911D01*
X169549890Y-75115983D01*
X169424119Y-75141000D01*
X169295881Y-75141000D01*
X169170110Y-75115983D01*
X169051639Y-75066911D01*
X168945008Y-74995662D01*
X168854338Y-74904992D01*
X168783089Y-74798361D01*
X168734017Y-74679890D01*
X168709000Y-74554119D01*
X168709000Y-74425881D01*
X168734017Y-74300110D01*
X168783089Y-74181639D01*
X168854338Y-74075008D01*
X168945008Y-73984338D01*
X169051639Y-73913089D01*
X169170110Y-73864017D01*
X169295881Y-73839000D01*
X169424119Y-73839000D01*
X169549890Y-73864017D01*
X169549890Y-73864017D01*
G37*
G36*
X155718621Y-71739302D02*
X155855022Y-71795801D01*
X155977779Y-71877825D01*
X156082175Y-71982221D01*
X156164199Y-72104978D01*
X156220698Y-72241379D01*
X156249500Y-72386181D01*
X156249500Y-72533819D01*
X156220698Y-72678621D01*
X156164199Y-72815022D01*
X156082175Y-72937779D01*
X155977779Y-73042175D01*
X155855022Y-73124199D01*
X155718621Y-73180698D01*
X155573819Y-73209500D01*
X155426181Y-73209500D01*
X155281379Y-73180698D01*
X155144978Y-73124199D01*
X155022221Y-73042175D01*
X154917825Y-72937779D01*
X154835801Y-72815022D01*
X154779302Y-72678621D01*
X154750500Y-72533819D01*
X154750500Y-72386181D01*
X154779302Y-72241379D01*
X154835801Y-72104978D01*
X154917825Y-71982221D01*
X155022221Y-71877825D01*
X155144978Y-71795801D01*
X155281379Y-71739302D01*
X155426181Y-71710500D01*
X155573819Y-71710500D01*
X155718621Y-71739302D01*
X155718621Y-71739302D01*
G37*
G36*
X148098621Y-71739302D02*
X148235022Y-71795801D01*
X148357779Y-71877825D01*
X148462175Y-71982221D01*
X148544199Y-72104978D01*
X148600698Y-72241379D01*
X148629500Y-72386181D01*
X148629500Y-72533819D01*
X148600698Y-72678621D01*
X148544199Y-72815022D01*
X148462175Y-72937779D01*
X148357779Y-73042175D01*
X148235022Y-73124199D01*
X148098621Y-73180698D01*
X147953819Y-73209500D01*
X147806181Y-73209500D01*
X147661379Y-73180698D01*
X147524978Y-73124199D01*
X147402221Y-73042175D01*
X147297825Y-72937779D01*
X147215801Y-72815022D01*
X147159302Y-72678621D01*
X147130500Y-72533819D01*
X147130500Y-72386181D01*
X147159302Y-72241379D01*
X147215801Y-72104978D01*
X147297825Y-71982221D01*
X147402221Y-71877825D01*
X147524978Y-71795801D01*
X147661379Y-71739302D01*
X147806181Y-71710500D01*
X147953819Y-71710500D01*
X148098621Y-71739302D01*
X148098621Y-71739302D01*
G37*
G36*
X160806991Y-71726101D02*
X160892321Y-71734505D01*
X161029172Y-71776019D01*
X161029174Y-71776020D01*
X161029177Y-71776021D01*
X161155296Y-71843432D01*
X161265843Y-71934157D01*
X161356568Y-72044704D01*
X161423979Y-72170823D01*
X161423980Y-72170826D01*
X161423981Y-72170828D01*
X161465495Y-72307679D01*
X161479512Y-72450000D01*
X161465495Y-72592321D01*
X161423981Y-72729172D01*
X161423979Y-72729177D01*
X161356568Y-72855296D01*
X161265843Y-72965843D01*
X161155296Y-73056568D01*
X161029177Y-73123979D01*
X161029174Y-73123980D01*
X161029172Y-73123981D01*
X160892321Y-73165495D01*
X160806991Y-73173899D01*
X160785660Y-73176000D01*
X160714340Y-73176000D01*
X160693009Y-73173899D01*
X160607679Y-73165495D01*
X160470828Y-73123981D01*
X160470826Y-73123980D01*
X160470823Y-73123979D01*
X160344704Y-73056568D01*
X160234157Y-72965843D01*
X160143432Y-72855296D01*
X160076021Y-72729177D01*
X160076019Y-72729172D01*
X160034505Y-72592321D01*
X160020488Y-72450000D01*
X160034505Y-72307679D01*
X160076019Y-72170828D01*
X160076020Y-72170826D01*
X160076021Y-72170823D01*
X160143432Y-72044704D01*
X160234157Y-71934157D01*
X160344704Y-71843432D01*
X160470823Y-71776021D01*
X160470826Y-71776020D01*
X160470828Y-71776019D01*
X160607679Y-71734505D01*
X160693009Y-71726101D01*
X160714340Y-71724000D01*
X160785660Y-71724000D01*
X160806991Y-71726101D01*
X160806991Y-71726101D01*
G37*
G36*
X160806991Y-69726101D02*
X160892321Y-69734505D01*
X161029172Y-69776019D01*
X161029174Y-69776020D01*
X161029177Y-69776021D01*
X161155296Y-69843432D01*
X161265843Y-69934157D01*
X161356568Y-70044704D01*
X161423979Y-70170823D01*
X161423980Y-70170826D01*
X161423981Y-70170828D01*
X161465495Y-70307679D01*
X161479512Y-70450000D01*
X161465495Y-70592321D01*
X161423981Y-70729172D01*
X161423979Y-70729177D01*
X161356568Y-70855296D01*
X161265843Y-70965843D01*
X161155296Y-71056568D01*
X161029177Y-71123979D01*
X161029174Y-71123980D01*
X161029172Y-71123981D01*
X160892321Y-71165495D01*
X160806991Y-71173899D01*
X160785660Y-71176000D01*
X160714340Y-71176000D01*
X160693009Y-71173899D01*
X160607679Y-71165495D01*
X160470828Y-71123981D01*
X160470826Y-71123980D01*
X160470823Y-71123979D01*
X160344704Y-71056568D01*
X160234157Y-70965843D01*
X160143432Y-70855296D01*
X160076021Y-70729177D01*
X160076019Y-70729172D01*
X160034505Y-70592321D01*
X160020488Y-70450000D01*
X160034505Y-70307679D01*
X160076019Y-70170828D01*
X160076020Y-70170826D01*
X160076021Y-70170823D01*
X160143432Y-70044704D01*
X160234157Y-69934157D01*
X160344704Y-69843432D01*
X160470823Y-69776021D01*
X160470826Y-69776020D01*
X160470828Y-69776019D01*
X160607679Y-69734505D01*
X160693009Y-69726101D01*
X160714340Y-69724000D01*
X160785660Y-69724000D01*
X160806991Y-69726101D01*
X160806991Y-69726101D01*
G37*
G36*
X148098621Y-69199302D02*
X148235022Y-69255801D01*
X148357779Y-69337825D01*
X148462175Y-69442221D01*
X148544199Y-69564978D01*
X148600698Y-69701379D01*
X148629500Y-69846181D01*
X148629500Y-69993819D01*
X148600698Y-70138621D01*
X148544199Y-70275022D01*
X148462175Y-70397779D01*
X148357779Y-70502175D01*
X148235022Y-70584199D01*
X148098621Y-70640698D01*
X147953819Y-70669500D01*
X147806181Y-70669500D01*
X147661379Y-70640698D01*
X147524978Y-70584199D01*
X147402221Y-70502175D01*
X147297825Y-70397779D01*
X147215801Y-70275022D01*
X147159302Y-70138621D01*
X147130500Y-69993819D01*
X147130500Y-69846181D01*
X147159302Y-69701379D01*
X147215801Y-69564978D01*
X147297825Y-69442221D01*
X147402221Y-69337825D01*
X147524978Y-69255801D01*
X147661379Y-69199302D01*
X147806181Y-69170500D01*
X147953819Y-69170500D01*
X148098621Y-69199302D01*
X148098621Y-69199302D01*
G37*
G36*
X155718621Y-69199302D02*
X155855022Y-69255801D01*
X155977779Y-69337825D01*
X156082175Y-69442221D01*
X156164199Y-69564978D01*
X156220698Y-69701379D01*
X156249500Y-69846181D01*
X156249500Y-69993819D01*
X156220698Y-70138621D01*
X156164199Y-70275022D01*
X156082175Y-70397779D01*
X155977779Y-70502175D01*
X155855022Y-70584199D01*
X155718621Y-70640698D01*
X155573819Y-70669500D01*
X155426181Y-70669500D01*
X155281379Y-70640698D01*
X155144978Y-70584199D01*
X155022221Y-70502175D01*
X154917825Y-70397779D01*
X154835801Y-70275022D01*
X154779302Y-70138621D01*
X154750500Y-69993819D01*
X154750500Y-69846181D01*
X154779302Y-69701379D01*
X154835801Y-69564978D01*
X154917825Y-69442221D01*
X155022221Y-69337825D01*
X155144978Y-69255801D01*
X155281379Y-69199302D01*
X155426181Y-69170500D01*
X155573819Y-69170500D01*
X155718621Y-69199302D01*
X155718621Y-69199302D01*
G37*
G36*
X134748228Y-68681703D02*
X134903100Y-68745853D01*
X135042481Y-68838985D01*
X135161015Y-68957519D01*
X135254147Y-69096900D01*
X135318297Y-69251772D01*
X135351000Y-69416184D01*
X135351000Y-69583816D01*
X135318297Y-69748228D01*
X135254147Y-69903100D01*
X135161015Y-70042481D01*
X135042481Y-70161015D01*
X134903100Y-70254147D01*
X134748228Y-70318297D01*
X134583816Y-70351000D01*
X134416184Y-70351000D01*
X134251772Y-70318297D01*
X134096900Y-70254147D01*
X133957519Y-70161015D01*
X133838985Y-70042481D01*
X133745853Y-69903100D01*
X133681703Y-69748228D01*
X133649000Y-69583816D01*
X133649000Y-69416184D01*
X133681703Y-69251772D01*
X133745853Y-69096900D01*
X133838985Y-68957519D01*
X133957519Y-68838985D01*
X134096900Y-68745853D01*
X134251772Y-68681703D01*
X134416184Y-68649000D01*
X134583816Y-68649000D01*
X134748228Y-68681703D01*
X134748228Y-68681703D01*
G37*
G36*
X155718621Y-66659302D02*
X155855022Y-66715801D01*
X155977779Y-66797825D01*
X156082175Y-66902221D01*
X156164199Y-67024978D01*
X156220698Y-67161379D01*
X156249500Y-67306181D01*
X156249500Y-67453819D01*
X156220698Y-67598621D01*
X156164199Y-67735022D01*
X156082175Y-67857779D01*
X155977779Y-67962175D01*
X155855022Y-68044199D01*
X155718621Y-68100698D01*
X155573819Y-68129500D01*
X155426181Y-68129500D01*
X155281379Y-68100698D01*
X155144978Y-68044199D01*
X155022221Y-67962175D01*
X154917825Y-67857779D01*
X154835801Y-67735022D01*
X154779302Y-67598621D01*
X154750500Y-67453819D01*
X154750500Y-67306181D01*
X154779302Y-67161379D01*
X154835801Y-67024978D01*
X154917825Y-66902221D01*
X155022221Y-66797825D01*
X155144978Y-66715801D01*
X155281379Y-66659302D01*
X155426181Y-66630500D01*
X155573819Y-66630500D01*
X155718621Y-66659302D01*
X155718621Y-66659302D01*
G37*
G36*
X148098621Y-66659302D02*
X148235022Y-66715801D01*
X148357779Y-66797825D01*
X148462175Y-66902221D01*
X148544199Y-67024978D01*
X148600698Y-67161379D01*
X148629500Y-67306181D01*
X148629500Y-67453819D01*
X148600698Y-67598621D01*
X148544199Y-67735022D01*
X148462175Y-67857779D01*
X148357779Y-67962175D01*
X148235022Y-68044199D01*
X148098621Y-68100698D01*
X147953819Y-68129500D01*
X147806181Y-68129500D01*
X147661379Y-68100698D01*
X147524978Y-68044199D01*
X147402221Y-67962175D01*
X147297825Y-67857779D01*
X147215801Y-67735022D01*
X147159302Y-67598621D01*
X147130500Y-67453819D01*
X147130500Y-67306181D01*
X147159302Y-67161379D01*
X147215801Y-67024978D01*
X147297825Y-66902221D01*
X147402221Y-66797825D01*
X147524978Y-66715801D01*
X147661379Y-66659302D01*
X147806181Y-66630500D01*
X147953819Y-66630500D01*
X148098621Y-66659302D01*
X148098621Y-66659302D01*
G37*
G36*
X130086800Y-68116000D02*
X126174800Y-68116000D01*
X126174800Y-64204000D01*
X130086800Y-64204000D01*
X130086800Y-68116000D01*
X130086800Y-68116000D01*
G37*
G36*
X114796000Y-68116000D02*
X110884000Y-68116000D01*
X110884000Y-64204000D01*
X114796000Y-64204000D01*
X114796000Y-68116000D01*
X114796000Y-68116000D01*
G37*
G36*
X160916821Y-65781313D02*
X160916824Y-65781314D01*
X160916825Y-65781314D01*
X161077239Y-65829975D01*
X161077241Y-65829976D01*
X161077244Y-65829977D01*
X161225078Y-65908995D01*
X161354659Y-66015341D01*
X161461005Y-66144922D01*
X161540023Y-66292756D01*
X161588687Y-66453179D01*
X161605117Y-66620000D01*
X161588687Y-66786821D01*
X161588686Y-66786824D01*
X161588686Y-66786825D01*
X161551314Y-66910025D01*
X161540023Y-66947244D01*
X161461005Y-67095078D01*
X161354659Y-67224659D01*
X161225078Y-67331005D01*
X161077244Y-67410023D01*
X161077241Y-67410024D01*
X161077239Y-67410025D01*
X160916825Y-67458686D01*
X160916824Y-67458686D01*
X160916821Y-67458687D01*
X160791804Y-67471000D01*
X160708196Y-67471000D01*
X160583179Y-67458687D01*
X160583176Y-67458686D01*
X160583175Y-67458686D01*
X160422761Y-67410025D01*
X160422759Y-67410024D01*
X160422756Y-67410023D01*
X160274922Y-67331005D01*
X160145341Y-67224659D01*
X160038995Y-67095078D01*
X159959977Y-66947244D01*
X159948687Y-66910025D01*
X159911314Y-66786825D01*
X159911314Y-66786824D01*
X159911313Y-66786821D01*
X159894883Y-66620000D01*
X159911313Y-66453179D01*
X159959977Y-66292756D01*
X160038995Y-66144922D01*
X160145341Y-66015341D01*
X160274922Y-65908995D01*
X160422756Y-65829977D01*
X160422759Y-65829976D01*
X160422761Y-65829975D01*
X160583175Y-65781314D01*
X160583176Y-65781314D01*
X160583179Y-65781313D01*
X160708196Y-65769000D01*
X160791804Y-65769000D01*
X160916821Y-65781313D01*
X160916821Y-65781313D01*
G37*
G36*
X138066821Y-65281313D02*
X138066824Y-65281314D01*
X138066825Y-65281314D01*
X138227239Y-65329975D01*
X138227241Y-65329976D01*
X138227244Y-65329977D01*
X138375078Y-65408995D01*
X138504659Y-65515341D01*
X138611005Y-65644922D01*
X138690023Y-65792756D01*
X138690024Y-65792759D01*
X138690025Y-65792761D01*
X138701314Y-65829977D01*
X138738687Y-65953179D01*
X138755117Y-66120000D01*
X138738687Y-66286821D01*
X138690023Y-66447244D01*
X138611005Y-66595078D01*
X138504659Y-66724659D01*
X138375078Y-66831005D01*
X138227244Y-66910023D01*
X138227241Y-66910024D01*
X138227239Y-66910025D01*
X138066825Y-66958686D01*
X138066824Y-66958686D01*
X138066821Y-66958687D01*
X137941804Y-66971000D01*
X137858196Y-66971000D01*
X137733179Y-66958687D01*
X137733176Y-66958686D01*
X137733175Y-66958686D01*
X137572761Y-66910025D01*
X137572759Y-66910024D01*
X137572756Y-66910023D01*
X137424922Y-66831005D01*
X137295341Y-66724659D01*
X137188995Y-66595078D01*
X137109977Y-66447244D01*
X137061313Y-66286821D01*
X137044883Y-66120000D01*
X137061313Y-65953179D01*
X137098686Y-65829977D01*
X137109975Y-65792761D01*
X137109976Y-65792759D01*
X137109977Y-65792756D01*
X137188995Y-65644922D01*
X137295341Y-65515341D01*
X137424922Y-65408995D01*
X137572756Y-65329977D01*
X137572759Y-65329976D01*
X137572761Y-65329975D01*
X137733175Y-65281314D01*
X137733176Y-65281314D01*
X137733179Y-65281313D01*
X137858196Y-65269000D01*
X137941804Y-65269000D01*
X138066821Y-65281313D01*
X138066821Y-65281313D01*
G37*
G36*
X155718621Y-64119302D02*
X155855022Y-64175801D01*
X155977779Y-64257825D01*
X156082175Y-64362221D01*
X156164199Y-64484978D01*
X156220698Y-64621379D01*
X156249500Y-64766181D01*
X156249500Y-64913819D01*
X156220698Y-65058621D01*
X156164199Y-65195022D01*
X156082175Y-65317779D01*
X155977779Y-65422175D01*
X155855022Y-65504199D01*
X155718621Y-65560698D01*
X155573819Y-65589500D01*
X155426181Y-65589500D01*
X155281379Y-65560698D01*
X155144978Y-65504199D01*
X155022221Y-65422175D01*
X154917825Y-65317779D01*
X154835801Y-65195022D01*
X154779302Y-65058621D01*
X154750500Y-64913819D01*
X154750500Y-64766181D01*
X154779302Y-64621379D01*
X154835801Y-64484978D01*
X154917825Y-64362221D01*
X155022221Y-64257825D01*
X155144978Y-64175801D01*
X155281379Y-64119302D01*
X155426181Y-64090500D01*
X155573819Y-64090500D01*
X155718621Y-64119302D01*
X155718621Y-64119302D01*
G37*
G36*
X148098621Y-64119302D02*
X148235022Y-64175801D01*
X148357779Y-64257825D01*
X148462175Y-64362221D01*
X148544199Y-64484978D01*
X148600698Y-64621379D01*
X148629500Y-64766181D01*
X148629500Y-64913819D01*
X148600698Y-65058621D01*
X148544199Y-65195022D01*
X148462175Y-65317779D01*
X148357779Y-65422175D01*
X148235022Y-65504199D01*
X148098621Y-65560698D01*
X147953819Y-65589500D01*
X147806181Y-65589500D01*
X147661379Y-65560698D01*
X147524978Y-65504199D01*
X147402221Y-65422175D01*
X147297825Y-65317779D01*
X147215801Y-65195022D01*
X147159302Y-65058621D01*
X147130500Y-64913819D01*
X147130500Y-64766181D01*
X147159302Y-64621379D01*
X147215801Y-64484978D01*
X147297825Y-64362221D01*
X147402221Y-64257825D01*
X147524978Y-64175801D01*
X147661379Y-64119302D01*
X147806181Y-64090500D01*
X147953819Y-64090500D01*
X148098621Y-64119302D01*
X148098621Y-64119302D01*
G37*
G36*
X148098621Y-61579302D02*
X148235022Y-61635801D01*
X148357779Y-61717825D01*
X148462175Y-61822221D01*
X148544199Y-61944978D01*
X148600698Y-62081379D01*
X148629500Y-62226181D01*
X148629500Y-62373819D01*
X148600698Y-62518621D01*
X148544199Y-62655022D01*
X148462175Y-62777779D01*
X148357779Y-62882175D01*
X148235022Y-62964199D01*
X148098621Y-63020698D01*
X147953819Y-63049500D01*
X147806181Y-63049500D01*
X147661379Y-63020698D01*
X147524978Y-62964199D01*
X147402221Y-62882175D01*
X147297825Y-62777779D01*
X147215801Y-62655022D01*
X147159302Y-62518621D01*
X147130500Y-62373819D01*
X147130500Y-62226181D01*
X147159302Y-62081379D01*
X147215801Y-61944978D01*
X147297825Y-61822221D01*
X147402221Y-61717825D01*
X147524978Y-61635801D01*
X147661379Y-61579302D01*
X147806181Y-61550500D01*
X147953819Y-61550500D01*
X148098621Y-61579302D01*
X148098621Y-61579302D01*
G37*
G36*
X155718621Y-61579302D02*
X155855022Y-61635801D01*
X155977779Y-61717825D01*
X156082175Y-61822221D01*
X156164199Y-61944978D01*
X156220698Y-62081379D01*
X156249500Y-62226181D01*
X156249500Y-62373819D01*
X156220698Y-62518621D01*
X156164199Y-62655022D01*
X156082175Y-62777779D01*
X155977779Y-62882175D01*
X155855022Y-62964199D01*
X155718621Y-63020698D01*
X155573819Y-63049500D01*
X155426181Y-63049500D01*
X155281379Y-63020698D01*
X155144978Y-62964199D01*
X155022221Y-62882175D01*
X154917825Y-62777779D01*
X154835801Y-62655022D01*
X154779302Y-62518621D01*
X154750500Y-62373819D01*
X154750500Y-62226181D01*
X154779302Y-62081379D01*
X154835801Y-61944978D01*
X154917825Y-61822221D01*
X155022221Y-61717825D01*
X155144978Y-61635801D01*
X155281379Y-61579302D01*
X155426181Y-61550500D01*
X155573819Y-61550500D01*
X155718621Y-61579302D01*
X155718621Y-61579302D01*
G37*
G36*
X155718621Y-59039302D02*
X155855022Y-59095801D01*
X155977779Y-59177825D01*
X156082175Y-59282221D01*
X156164199Y-59404978D01*
X156220698Y-59541379D01*
X156249500Y-59686181D01*
X156249500Y-59833819D01*
X156220698Y-59978621D01*
X156164199Y-60115022D01*
X156082175Y-60237779D01*
X155977779Y-60342175D01*
X155855022Y-60424199D01*
X155718621Y-60480698D01*
X155573819Y-60509500D01*
X155426181Y-60509500D01*
X155281379Y-60480698D01*
X155144978Y-60424199D01*
X155022221Y-60342175D01*
X154917825Y-60237779D01*
X154835801Y-60115022D01*
X154779302Y-59978621D01*
X154750500Y-59833819D01*
X154750500Y-59686181D01*
X154779302Y-59541379D01*
X154835801Y-59404978D01*
X154917825Y-59282221D01*
X155022221Y-59177825D01*
X155144978Y-59095801D01*
X155281379Y-59039302D01*
X155426181Y-59010500D01*
X155573819Y-59010500D01*
X155718621Y-59039302D01*
X155718621Y-59039302D01*
G37*
G36*
X148098621Y-59039302D02*
X148235022Y-59095801D01*
X148357779Y-59177825D01*
X148462175Y-59282221D01*
X148544199Y-59404978D01*
X148600698Y-59541379D01*
X148629500Y-59686181D01*
X148629500Y-59833819D01*
X148600698Y-59978621D01*
X148544199Y-60115022D01*
X148462175Y-60237779D01*
X148357779Y-60342175D01*
X148235022Y-60424199D01*
X148098621Y-60480698D01*
X147953819Y-60509500D01*
X147806181Y-60509500D01*
X147661379Y-60480698D01*
X147524978Y-60424199D01*
X147402221Y-60342175D01*
X147297825Y-60237779D01*
X147215801Y-60115022D01*
X147159302Y-59978621D01*
X147130500Y-59833819D01*
X147130500Y-59686181D01*
X147159302Y-59541379D01*
X147215801Y-59404978D01*
X147297825Y-59282221D01*
X147402221Y-59177825D01*
X147524978Y-59095801D01*
X147661379Y-59039302D01*
X147806181Y-59010500D01*
X147953819Y-59010500D01*
X148098621Y-59039302D01*
X148098621Y-59039302D01*
G37*
G36*
X160998228Y-58181703D02*
X161153100Y-58245853D01*
X161292481Y-58338985D01*
X161411015Y-58457519D01*
X161504147Y-58596900D01*
X161568297Y-58751772D01*
X161601000Y-58916184D01*
X161601000Y-59083816D01*
X161568297Y-59248228D01*
X161504147Y-59403100D01*
X161411015Y-59542481D01*
X161292481Y-59661015D01*
X161153100Y-59754147D01*
X160998228Y-59818297D01*
X160833816Y-59851000D01*
X160666184Y-59851000D01*
X160501772Y-59818297D01*
X160346900Y-59754147D01*
X160207519Y-59661015D01*
X160088985Y-59542481D01*
X159995853Y-59403100D01*
X159931703Y-59248228D01*
X159899000Y-59083816D01*
X159899000Y-58916184D01*
X159931703Y-58751772D01*
X159995853Y-58596900D01*
X160088985Y-58457519D01*
X160207519Y-58338985D01*
X160346900Y-58245853D01*
X160501772Y-58181703D01*
X160666184Y-58149000D01*
X160833816Y-58149000D01*
X160998228Y-58181703D01*
X160998228Y-58181703D01*
G37*
G36*
X165189890Y-58374017D02*
X165308361Y-58423089D01*
X165414992Y-58494338D01*
X165505662Y-58585008D01*
X165576911Y-58691639D01*
X165625983Y-58810110D01*
X165627402Y-58817245D01*
X165634515Y-58840694D01*
X165646066Y-58862305D01*
X165661611Y-58881247D01*
X165680553Y-58896792D01*
X165702164Y-58908344D01*
X165725613Y-58915457D01*
X165749999Y-58917859D01*
X165774386Y-58915457D01*
X165797835Y-58908344D01*
X165819446Y-58896793D01*
X165838388Y-58881248D01*
X165853933Y-58862306D01*
X165865485Y-58840695D01*
X165872598Y-58817245D01*
X165874017Y-58810110D01*
X165923089Y-58691639D01*
X165994338Y-58585008D01*
X166085008Y-58494338D01*
X166191639Y-58423089D01*
X166310110Y-58374017D01*
X166435881Y-58349000D01*
X166564119Y-58349000D01*
X166689890Y-58374017D01*
X166808361Y-58423089D01*
X166914992Y-58494338D01*
X167005662Y-58585008D01*
X167076911Y-58691639D01*
X167125983Y-58810110D01*
X167151000Y-58935881D01*
X167151000Y-59064119D01*
X167125983Y-59189890D01*
X167076911Y-59308361D01*
X167005662Y-59414992D01*
X166914992Y-59505662D01*
X166808361Y-59576911D01*
X166689890Y-59625983D01*
X166564119Y-59651000D01*
X166435881Y-59651000D01*
X166310110Y-59625983D01*
X166191639Y-59576911D01*
X166085008Y-59505662D01*
X165994338Y-59414992D01*
X165923089Y-59308361D01*
X165874017Y-59189890D01*
X165872598Y-59182755D01*
X165865485Y-59159306D01*
X165853934Y-59137695D01*
X165838389Y-59118753D01*
X165819447Y-59103208D01*
X165797836Y-59091656D01*
X165774387Y-59084543D01*
X165750001Y-59082141D01*
X165725614Y-59084543D01*
X165702165Y-59091656D01*
X165680554Y-59103207D01*
X165661612Y-59118752D01*
X165646067Y-59137694D01*
X165634515Y-59159305D01*
X165627402Y-59182755D01*
X165625983Y-59189890D01*
X165576911Y-59308361D01*
X165505662Y-59414992D01*
X165414992Y-59505662D01*
X165308361Y-59576911D01*
X165189890Y-59625983D01*
X165064119Y-59651000D01*
X164935881Y-59651000D01*
X164810110Y-59625983D01*
X164691639Y-59576911D01*
X164585008Y-59505662D01*
X164494338Y-59414992D01*
X164423089Y-59308361D01*
X164374017Y-59189890D01*
X164349000Y-59064119D01*
X164349000Y-58935881D01*
X164374017Y-58810110D01*
X164423089Y-58691639D01*
X164494338Y-58585008D01*
X164585008Y-58494338D01*
X164691639Y-58423089D01*
X164810110Y-58374017D01*
X164935881Y-58349000D01*
X165064119Y-58349000D01*
X165189890Y-58374017D01*
X165189890Y-58374017D01*
G37*
G36*
X138148228Y-57681703D02*
X138303100Y-57745853D01*
X138442481Y-57838985D01*
X138561015Y-57957519D01*
X138654147Y-58096900D01*
X138718297Y-58251772D01*
X138751000Y-58416184D01*
X138751000Y-58583816D01*
X138718297Y-58748228D01*
X138654147Y-58903100D01*
X138561015Y-59042481D01*
X138442481Y-59161015D01*
X138303100Y-59254147D01*
X138148228Y-59318297D01*
X137983816Y-59351000D01*
X137816184Y-59351000D01*
X137651772Y-59318297D01*
X137496900Y-59254147D01*
X137357519Y-59161015D01*
X137238985Y-59042481D01*
X137145853Y-58903100D01*
X137081703Y-58748228D01*
X137049000Y-58583816D01*
X137049000Y-58416184D01*
X137081703Y-58251772D01*
X137145853Y-58096900D01*
X137238985Y-57957519D01*
X137357519Y-57838985D01*
X137496900Y-57745853D01*
X137651772Y-57681703D01*
X137816184Y-57649000D01*
X137983816Y-57649000D01*
X138148228Y-57681703D01*
X138148228Y-57681703D01*
G37*
G36*
X148629500Y-57969500D02*
X147130500Y-57969500D01*
X147130500Y-56470500D01*
X148629500Y-56470500D01*
X148629500Y-57969500D01*
X148629500Y-57969500D01*
G37*
G36*
X155718621Y-56499302D02*
X155855022Y-56555801D01*
X155977779Y-56637825D01*
X156082175Y-56742221D01*
X156164199Y-56864978D01*
X156220698Y-57001379D01*
X156249500Y-57146181D01*
X156249500Y-57293819D01*
X156220698Y-57438621D01*
X156164199Y-57575022D01*
X156082175Y-57697779D01*
X155977779Y-57802175D01*
X155855022Y-57884199D01*
X155718621Y-57940698D01*
X155573819Y-57969500D01*
X155426181Y-57969500D01*
X155281379Y-57940698D01*
X155144978Y-57884199D01*
X155022221Y-57802175D01*
X154917825Y-57697779D01*
X154835801Y-57575022D01*
X154779302Y-57438621D01*
X154750500Y-57293819D01*
X154750500Y-57146181D01*
X154779302Y-57001379D01*
X154835801Y-56864978D01*
X154917825Y-56742221D01*
X155022221Y-56637825D01*
X155144978Y-56555801D01*
X155281379Y-56499302D01*
X155426181Y-56470500D01*
X155573819Y-56470500D01*
X155718621Y-56499302D01*
X155718621Y-56499302D01*
G37*
G36*
X160916821Y-55281313D02*
X160916824Y-55281314D01*
X160916825Y-55281314D01*
X161077239Y-55329975D01*
X161077241Y-55329976D01*
X161077244Y-55329977D01*
X161225078Y-55408995D01*
X161354659Y-55515341D01*
X161461005Y-55644922D01*
X161540023Y-55792756D01*
X161588687Y-55953179D01*
X161605117Y-56120000D01*
X161588687Y-56286821D01*
X161540023Y-56447244D01*
X161461005Y-56595078D01*
X161354659Y-56724659D01*
X161225078Y-56831005D01*
X161077244Y-56910023D01*
X161077241Y-56910024D01*
X161077239Y-56910025D01*
X160916825Y-56958686D01*
X160916824Y-56958686D01*
X160916821Y-56958687D01*
X160791804Y-56971000D01*
X160708196Y-56971000D01*
X160583179Y-56958687D01*
X160583176Y-56958686D01*
X160583175Y-56958686D01*
X160422761Y-56910025D01*
X160422759Y-56910024D01*
X160422756Y-56910023D01*
X160274922Y-56831005D01*
X160145341Y-56724659D01*
X160038995Y-56595078D01*
X159959977Y-56447244D01*
X159911313Y-56286821D01*
X159894883Y-56120000D01*
X159911313Y-55953179D01*
X159959977Y-55792756D01*
X160038995Y-55644922D01*
X160145341Y-55515341D01*
X160274922Y-55408995D01*
X160422756Y-55329977D01*
X160422759Y-55329976D01*
X160422761Y-55329975D01*
X160583175Y-55281314D01*
X160583176Y-55281314D01*
X160583179Y-55281313D01*
X160708196Y-55269000D01*
X160791804Y-55269000D01*
X160916821Y-55281313D01*
X160916821Y-55281313D01*
G37*
G36*
X171248228Y-53881703D02*
X171403100Y-53945853D01*
X171542481Y-54038985D01*
X171661015Y-54157519D01*
X171754147Y-54296900D01*
X171818297Y-54451772D01*
X171851000Y-54616184D01*
X171851000Y-54783816D01*
X171818297Y-54948228D01*
X171754147Y-55103100D01*
X171661015Y-55242481D01*
X171542481Y-55361015D01*
X171403100Y-55454147D01*
X171248228Y-55518297D01*
X171083816Y-55551000D01*
X170916184Y-55551000D01*
X170751772Y-55518297D01*
X170596900Y-55454147D01*
X170457519Y-55361015D01*
X170338985Y-55242481D01*
X170245853Y-55103100D01*
X170181703Y-54948228D01*
X170149000Y-54783816D01*
X170149000Y-54616184D01*
X170181703Y-54451772D01*
X170245853Y-54296900D01*
X170338985Y-54157519D01*
X170457519Y-54038985D01*
X170596900Y-53945853D01*
X170751772Y-53881703D01*
X170916184Y-53849000D01*
X171083816Y-53849000D01*
X171248228Y-53881703D01*
X171248228Y-53881703D01*
G37*
G36*
X165689890Y-52624017D02*
X165808361Y-52673089D01*
X165914992Y-52744338D01*
X166005662Y-52835008D01*
X166076911Y-52941639D01*
X166125983Y-53060110D01*
X166127402Y-53067245D01*
X166134515Y-53090694D01*
X166146066Y-53112305D01*
X166161611Y-53131247D01*
X166180553Y-53146792D01*
X166202164Y-53158344D01*
X166225613Y-53165457D01*
X166249999Y-53167859D01*
X166274386Y-53165457D01*
X166297835Y-53158344D01*
X166319446Y-53146793D01*
X166338388Y-53131248D01*
X166353933Y-53112306D01*
X166365485Y-53090695D01*
X166372598Y-53067245D01*
X166374017Y-53060110D01*
X166423089Y-52941639D01*
X166494338Y-52835008D01*
X166585008Y-52744338D01*
X166691639Y-52673089D01*
X166810110Y-52624017D01*
X166935881Y-52599000D01*
X167064119Y-52599000D01*
X167189890Y-52624017D01*
X167308361Y-52673089D01*
X167414992Y-52744338D01*
X167505662Y-52835008D01*
X167576911Y-52941639D01*
X167625983Y-53060110D01*
X167651000Y-53185881D01*
X167651000Y-53314119D01*
X167625983Y-53439890D01*
X167576911Y-53558361D01*
X167505662Y-53664992D01*
X167414992Y-53755662D01*
X167308361Y-53826911D01*
X167189890Y-53875983D01*
X167064119Y-53901000D01*
X166935881Y-53901000D01*
X166810110Y-53875983D01*
X166691639Y-53826911D01*
X166585008Y-53755662D01*
X166494338Y-53664992D01*
X166423089Y-53558361D01*
X166374017Y-53439890D01*
X166372598Y-53432755D01*
X166365485Y-53409306D01*
X166353934Y-53387695D01*
X166338389Y-53368753D01*
X166319447Y-53353208D01*
X166297836Y-53341656D01*
X166274387Y-53334543D01*
X166250001Y-53332141D01*
X166225614Y-53334543D01*
X166202165Y-53341656D01*
X166180554Y-53353207D01*
X166161612Y-53368752D01*
X166146067Y-53387694D01*
X166134515Y-53409305D01*
X166127402Y-53432755D01*
X166125983Y-53439890D01*
X166076911Y-53558361D01*
X166005662Y-53664992D01*
X165914992Y-53755662D01*
X165808361Y-53826911D01*
X165689890Y-53875983D01*
X165564119Y-53901000D01*
X165435881Y-53901000D01*
X165310110Y-53875983D01*
X165191639Y-53826911D01*
X165085008Y-53755662D01*
X164994338Y-53664992D01*
X164923089Y-53558361D01*
X164874017Y-53439890D01*
X164849000Y-53314119D01*
X164849000Y-53185881D01*
X164874017Y-53060110D01*
X164923089Y-52941639D01*
X164994338Y-52835008D01*
X165085008Y-52744338D01*
X165191639Y-52673089D01*
X165310110Y-52624017D01*
X165435881Y-52599000D01*
X165564119Y-52599000D01*
X165689890Y-52624017D01*
X165689890Y-52624017D01*
G37*
G36*
X160998228Y-47681703D02*
X161153100Y-47745853D01*
X161292481Y-47838985D01*
X161411015Y-47957519D01*
X161504147Y-48096900D01*
X161568297Y-48251772D01*
X161601000Y-48416184D01*
X161601000Y-48583816D01*
X161568297Y-48748228D01*
X161504147Y-48903100D01*
X161411015Y-49042481D01*
X161292481Y-49161015D01*
X161153100Y-49254147D01*
X160998228Y-49318297D01*
X160833816Y-49351000D01*
X160666184Y-49351000D01*
X160501772Y-49318297D01*
X160346900Y-49254147D01*
X160207519Y-49161015D01*
X160088985Y-49042481D01*
X159995853Y-48903100D01*
X159931703Y-48748228D01*
X159899000Y-48583816D01*
X159899000Y-48416184D01*
X159931703Y-48251772D01*
X159995853Y-48096900D01*
X160088985Y-47957519D01*
X160207519Y-47838985D01*
X160346900Y-47745853D01*
X160501772Y-47681703D01*
X160666184Y-47649000D01*
X160833816Y-47649000D01*
X160998228Y-47681703D01*
X160998228Y-47681703D01*
G37*
G36*
X167189890Y-46374017D02*
X167308361Y-46423089D01*
X167308364Y-46423091D01*
X167386562Y-46475341D01*
X167414992Y-46494338D01*
X167505662Y-46585008D01*
X167576911Y-46691639D01*
X167625983Y-46810110D01*
X167651000Y-46935881D01*
X167651000Y-47064119D01*
X167625983Y-47189890D01*
X167576911Y-47308361D01*
X167576909Y-47308364D01*
X167510843Y-47407239D01*
X167505662Y-47414992D01*
X167414992Y-47505662D01*
X167308361Y-47576911D01*
X167189890Y-47625983D01*
X167182753Y-47627403D01*
X167159306Y-47634515D01*
X167137695Y-47646066D01*
X167118753Y-47661611D01*
X167103208Y-47680553D01*
X167091656Y-47702164D01*
X167084543Y-47725613D01*
X167082141Y-47749999D01*
X167084543Y-47774386D01*
X167091656Y-47797835D01*
X167103207Y-47819446D01*
X167118752Y-47838388D01*
X167137694Y-47853933D01*
X167159305Y-47865485D01*
X167182753Y-47872597D01*
X167189890Y-47874017D01*
X167308361Y-47923089D01*
X167414992Y-47994338D01*
X167505662Y-48085008D01*
X167576911Y-48191639D01*
X167625983Y-48310110D01*
X167651000Y-48435881D01*
X167651000Y-48564119D01*
X167625983Y-48689890D01*
X167576911Y-48808361D01*
X167505662Y-48914992D01*
X167414992Y-49005662D01*
X167308361Y-49076911D01*
X167189890Y-49125983D01*
X167064119Y-49151000D01*
X166935881Y-49151000D01*
X166810110Y-49125983D01*
X166691639Y-49076911D01*
X166585008Y-49005662D01*
X166494338Y-48914992D01*
X166423089Y-48808361D01*
X166374017Y-48689890D01*
X166349000Y-48564119D01*
X166349000Y-48435881D01*
X166374017Y-48310110D01*
X166423089Y-48191639D01*
X166494338Y-48085008D01*
X166585008Y-47994338D01*
X166691639Y-47923089D01*
X166810110Y-47874017D01*
X166817247Y-47872597D01*
X166840694Y-47865485D01*
X166862305Y-47853934D01*
X166881247Y-47838389D01*
X166896792Y-47819447D01*
X166908344Y-47797836D01*
X166915457Y-47774387D01*
X166917859Y-47750001D01*
X166915457Y-47725614D01*
X166908344Y-47702165D01*
X166896793Y-47680554D01*
X166881248Y-47661612D01*
X166862306Y-47646067D01*
X166840695Y-47634515D01*
X166817247Y-47627403D01*
X166810110Y-47625983D01*
X166691639Y-47576911D01*
X166585008Y-47505662D01*
X166494338Y-47414992D01*
X166489158Y-47407239D01*
X166423091Y-47308364D01*
X166423089Y-47308361D01*
X166374017Y-47189890D01*
X166349000Y-47064119D01*
X166349000Y-46935881D01*
X166374017Y-46810110D01*
X166423089Y-46691639D01*
X166494338Y-46585008D01*
X166585008Y-46494338D01*
X166613439Y-46475341D01*
X166691636Y-46423091D01*
X166691639Y-46423089D01*
X166810110Y-46374017D01*
X166935881Y-46349000D01*
X167064119Y-46349000D01*
X167189890Y-46374017D01*
X167189890Y-46374017D01*
G37*
G36*
X171166821Y-46241313D02*
X171166824Y-46241314D01*
X171166825Y-46241314D01*
X171327239Y-46289975D01*
X171327241Y-46289976D01*
X171327244Y-46289977D01*
X171475078Y-46368995D01*
X171604659Y-46475341D01*
X171711005Y-46604922D01*
X171790023Y-46752756D01*
X171790024Y-46752759D01*
X171790025Y-46752761D01*
X171838686Y-46913175D01*
X171838687Y-46913179D01*
X171855117Y-47080000D01*
X171838687Y-47246821D01*
X171790023Y-47407244D01*
X171711005Y-47555078D01*
X171604659Y-47684659D01*
X171475078Y-47791005D01*
X171327244Y-47870023D01*
X171327241Y-47870024D01*
X171327239Y-47870025D01*
X171166825Y-47918686D01*
X171166824Y-47918686D01*
X171166821Y-47918687D01*
X171041804Y-47931000D01*
X170958196Y-47931000D01*
X170833179Y-47918687D01*
X170833176Y-47918686D01*
X170833175Y-47918686D01*
X170672761Y-47870025D01*
X170672759Y-47870024D01*
X170672756Y-47870023D01*
X170524922Y-47791005D01*
X170395341Y-47684659D01*
X170288995Y-47555078D01*
X170209977Y-47407244D01*
X170161313Y-47246821D01*
X170144883Y-47080000D01*
X170161313Y-46913179D01*
X170161314Y-46913175D01*
X170209975Y-46752761D01*
X170209976Y-46752759D01*
X170209977Y-46752756D01*
X170288995Y-46604922D01*
X170395341Y-46475341D01*
X170524922Y-46368995D01*
X170672756Y-46289977D01*
X170672759Y-46289976D01*
X170672761Y-46289975D01*
X170833175Y-46241314D01*
X170833176Y-46241314D01*
X170833179Y-46241313D01*
X170958196Y-46229000D01*
X171041804Y-46229000D01*
X171166821Y-46241313D01*
X171166821Y-46241313D01*
G37*
G36*
X167056991Y-42026101D02*
X167142321Y-42034505D01*
X167279172Y-42076019D01*
X167279174Y-42076020D01*
X167279177Y-42076021D01*
X167405296Y-42143432D01*
X167515843Y-42234157D01*
X167606568Y-42344704D01*
X167673979Y-42470823D01*
X167673980Y-42470826D01*
X167673981Y-42470828D01*
X167715495Y-42607679D01*
X167729512Y-42750000D01*
X167715495Y-42892321D01*
X167673981Y-43029172D01*
X167673979Y-43029177D01*
X167606568Y-43155296D01*
X167515843Y-43265843D01*
X167405296Y-43356568D01*
X167279177Y-43423979D01*
X167279174Y-43423980D01*
X167279172Y-43423981D01*
X167142321Y-43465495D01*
X167056991Y-43473899D01*
X167035660Y-43476000D01*
X166964340Y-43476000D01*
X166943009Y-43473899D01*
X166857679Y-43465495D01*
X166720828Y-43423981D01*
X166720826Y-43423980D01*
X166720823Y-43423979D01*
X166594704Y-43356568D01*
X166484157Y-43265843D01*
X166393432Y-43155296D01*
X166326021Y-43029177D01*
X166326019Y-43029172D01*
X166284505Y-42892321D01*
X166270488Y-42750000D01*
X166284505Y-42607679D01*
X166326019Y-42470828D01*
X166326020Y-42470826D01*
X166326021Y-42470823D01*
X166393432Y-42344704D01*
X166484157Y-42234157D01*
X166594704Y-42143432D01*
X166720823Y-42076021D01*
X166720826Y-42076020D01*
X166720828Y-42076019D01*
X166857679Y-42034505D01*
X166943009Y-42026101D01*
X166964340Y-42024000D01*
X167035660Y-42024000D01*
X167056991Y-42026101D01*
X167056991Y-42026101D01*
G37*
G36*
X165726000Y-43476000D02*
X164274000Y-43476000D01*
X164274000Y-42024000D01*
X165726000Y-42024000D01*
X165726000Y-43476000D01*
X165726000Y-43476000D01*
G37*
M02*
