G04 #@! TF.GenerationSoftware,KiCad,Pcbnew,(5.0.2)-1*
G04 #@! TF.CreationDate,2019-03-08T12:48:48+01:00*
G04 #@! TF.ProjectId,ECG_final,4543475f-6669-46e6-916c-2e6b69636164,rev?*
G04 #@! TF.SameCoordinates,Original*
G04 #@! TF.FileFunction,Legend,Top*
G04 #@! TF.FilePolarity,Positive*
%FSLAX46Y46*%
G04 Gerber Fmt 4.6, Leading zero omitted, Abs format (unit mm)*
G04 Created by KiCad (PCBNEW (5.0.2)-1) date 08/03/2019 12:48:48*
%MOMM*%
%LPD*%
G01*
G04 APERTURE LIST*
%ADD10C,0.300000*%
%ADD11C,0.120000*%
%ADD12C,0.203200*%
%ADD13C,0.152400*%
%ADD14C,0.100000*%
%ADD15C,0.150000*%
%ADD16C,0.050000*%
G04 APERTURE END LIST*
D10*
X123642857Y-42628571D02*
X123642857Y-43842857D01*
X123714285Y-43985714D01*
X123785714Y-44057142D01*
X123928571Y-44128571D01*
X124214285Y-44128571D01*
X124357142Y-44057142D01*
X124428571Y-43985714D01*
X124500000Y-43842857D01*
X124500000Y-42628571D01*
X125214285Y-43128571D02*
X125214285Y-44128571D01*
X125214285Y-43271428D02*
X125285714Y-43200000D01*
X125428571Y-43128571D01*
X125642857Y-43128571D01*
X125785714Y-43200000D01*
X125857142Y-43342857D01*
X125857142Y-44128571D01*
X126571428Y-44128571D02*
X126571428Y-43128571D01*
X126571428Y-42628571D02*
X126500000Y-42700000D01*
X126571428Y-42771428D01*
X126642857Y-42700000D01*
X126571428Y-42628571D01*
X126571428Y-42771428D01*
X127142857Y-43128571D02*
X127500000Y-44128571D01*
X127857142Y-43128571D01*
X129000000Y-44057142D02*
X128857142Y-44128571D01*
X128571428Y-44128571D01*
X128428571Y-44057142D01*
X128357142Y-43914285D01*
X128357142Y-43342857D01*
X128428571Y-43200000D01*
X128571428Y-43128571D01*
X128857142Y-43128571D01*
X129000000Y-43200000D01*
X129071428Y-43342857D01*
X129071428Y-43485714D01*
X128357142Y-43628571D01*
X129714285Y-44128571D02*
X129714285Y-43128571D01*
X129714285Y-43414285D02*
X129785714Y-43271428D01*
X129857142Y-43200000D01*
X130000000Y-43128571D01*
X130142857Y-43128571D01*
X130571428Y-44057142D02*
X130714285Y-44128571D01*
X131000000Y-44128571D01*
X131142857Y-44057142D01*
X131214285Y-43914285D01*
X131214285Y-43842857D01*
X131142857Y-43700000D01*
X131000000Y-43628571D01*
X130785714Y-43628571D01*
X130642857Y-43557142D01*
X130571428Y-43414285D01*
X130571428Y-43342857D01*
X130642857Y-43200000D01*
X130785714Y-43128571D01*
X131000000Y-43128571D01*
X131142857Y-43200000D01*
X131857142Y-44128571D02*
X131857142Y-43128571D01*
X131857142Y-42628571D02*
X131785714Y-42700000D01*
X131857142Y-42771428D01*
X131928571Y-42700000D01*
X131857142Y-42628571D01*
X131857142Y-42771428D01*
X133214285Y-44128571D02*
X133214285Y-42628571D01*
X133214285Y-44057142D02*
X133071428Y-44128571D01*
X132785714Y-44128571D01*
X132642857Y-44057142D01*
X132571428Y-43985714D01*
X132500000Y-43842857D01*
X132500000Y-43414285D01*
X132571428Y-43271428D01*
X132642857Y-43200000D01*
X132785714Y-43128571D01*
X133071428Y-43128571D01*
X133214285Y-43200000D01*
X134571428Y-44128571D02*
X134571428Y-43342857D01*
X134500000Y-43200000D01*
X134357142Y-43128571D01*
X134071428Y-43128571D01*
X133928571Y-43200000D01*
X134571428Y-44057142D02*
X134428571Y-44128571D01*
X134071428Y-44128571D01*
X133928571Y-44057142D01*
X133857142Y-43914285D01*
X133857142Y-43771428D01*
X133928571Y-43628571D01*
X134071428Y-43557142D01*
X134428571Y-43557142D01*
X134571428Y-43485714D01*
X135928571Y-44128571D02*
X135928571Y-42628571D01*
X135928571Y-44057142D02*
X135785714Y-44128571D01*
X135500000Y-44128571D01*
X135357142Y-44057142D01*
X135285714Y-43985714D01*
X135214285Y-43842857D01*
X135214285Y-43414285D01*
X135285714Y-43271428D01*
X135357142Y-43200000D01*
X135500000Y-43128571D01*
X135785714Y-43128571D01*
X135928571Y-43200000D01*
X138428571Y-44128571D02*
X138428571Y-42628571D01*
X138428571Y-44057142D02*
X138285714Y-44128571D01*
X138000000Y-44128571D01*
X137857142Y-44057142D01*
X137785714Y-43985714D01*
X137714285Y-43842857D01*
X137714285Y-43414285D01*
X137785714Y-43271428D01*
X137857142Y-43200000D01*
X138000000Y-43128571D01*
X138285714Y-43128571D01*
X138428571Y-43200000D01*
X139714285Y-44057142D02*
X139571428Y-44128571D01*
X139285714Y-44128571D01*
X139142857Y-44057142D01*
X139071428Y-43914285D01*
X139071428Y-43342857D01*
X139142857Y-43200000D01*
X139285714Y-43128571D01*
X139571428Y-43128571D01*
X139714285Y-43200000D01*
X139785714Y-43342857D01*
X139785714Y-43485714D01*
X139071428Y-43628571D01*
X141500000Y-44057142D02*
X141714285Y-44128571D01*
X142071428Y-44128571D01*
X142214285Y-44057142D01*
X142285714Y-43985714D01*
X142357142Y-43842857D01*
X142357142Y-43700000D01*
X142285714Y-43557142D01*
X142214285Y-43485714D01*
X142071428Y-43414285D01*
X141785714Y-43342857D01*
X141642857Y-43271428D01*
X141571428Y-43200000D01*
X141500000Y-43057142D01*
X141500000Y-42914285D01*
X141571428Y-42771428D01*
X141642857Y-42700000D01*
X141785714Y-42628571D01*
X142142857Y-42628571D01*
X142357142Y-42700000D01*
X143571428Y-44057142D02*
X143428571Y-44128571D01*
X143142857Y-44128571D01*
X143000000Y-44057142D01*
X142928571Y-43914285D01*
X142928571Y-43342857D01*
X143000000Y-43200000D01*
X143142857Y-43128571D01*
X143428571Y-43128571D01*
X143571428Y-43200000D01*
X143642857Y-43342857D01*
X143642857Y-43485714D01*
X142928571Y-43628571D01*
X144142857Y-43128571D02*
X144500000Y-44128571D01*
X144857142Y-43128571D01*
X145428571Y-44128571D02*
X145428571Y-43128571D01*
X145428571Y-42628571D02*
X145357142Y-42700000D01*
X145428571Y-42771428D01*
X145500000Y-42700000D01*
X145428571Y-42628571D01*
X145428571Y-42771428D01*
X146357142Y-44128571D02*
X146214285Y-44057142D01*
X146142857Y-43914285D01*
X146142857Y-42628571D01*
X147142857Y-44128571D02*
X147000000Y-44057142D01*
X146928571Y-43914285D01*
X146928571Y-42628571D01*
X148357142Y-44128571D02*
X148357142Y-43342857D01*
X148285714Y-43200000D01*
X148142857Y-43128571D01*
X147857142Y-43128571D01*
X147714285Y-43200000D01*
X148357142Y-44057142D02*
X148214285Y-44128571D01*
X147857142Y-44128571D01*
X147714285Y-44057142D01*
X147642857Y-43914285D01*
X147642857Y-43771428D01*
X147714285Y-43628571D01*
X147857142Y-43557142D01*
X148214285Y-43557142D01*
X148357142Y-43485714D01*
X112035714Y-45178571D02*
X113035714Y-46678571D01*
X113035714Y-45178571D02*
X112035714Y-46678571D01*
X114250000Y-46678571D02*
X114250000Y-45892857D01*
X114178571Y-45750000D01*
X114035714Y-45678571D01*
X113750000Y-45678571D01*
X113607142Y-45750000D01*
X114250000Y-46607142D02*
X114107142Y-46678571D01*
X113750000Y-46678571D01*
X113607142Y-46607142D01*
X113535714Y-46464285D01*
X113535714Y-46321428D01*
X113607142Y-46178571D01*
X113750000Y-46107142D01*
X114107142Y-46107142D01*
X114250000Y-46035714D01*
X114821428Y-45678571D02*
X115178571Y-46678571D01*
X115535714Y-45678571D01*
X116107142Y-46678571D02*
X116107142Y-45678571D01*
X116107142Y-45178571D02*
X116035714Y-45250000D01*
X116107142Y-45321428D01*
X116178571Y-45250000D01*
X116107142Y-45178571D01*
X116107142Y-45321428D01*
X117392857Y-46607142D02*
X117250000Y-46678571D01*
X116964285Y-46678571D01*
X116821428Y-46607142D01*
X116750000Y-46464285D01*
X116750000Y-45892857D01*
X116821428Y-45750000D01*
X116964285Y-45678571D01*
X117250000Y-45678571D01*
X117392857Y-45750000D01*
X117464285Y-45892857D01*
X117464285Y-46035714D01*
X116750000Y-46178571D01*
X118107142Y-46678571D02*
X118107142Y-45678571D01*
X118107142Y-45964285D02*
X118178571Y-45821428D01*
X118250000Y-45750000D01*
X118392857Y-45678571D01*
X118535714Y-45678571D01*
X120678571Y-45892857D02*
X120892857Y-45964285D01*
X120964285Y-46035714D01*
X121035714Y-46178571D01*
X121035714Y-46392857D01*
X120964285Y-46535714D01*
X120892857Y-46607142D01*
X120750000Y-46678571D01*
X120178571Y-46678571D01*
X120178571Y-45178571D01*
X120678571Y-45178571D01*
X120821428Y-45250000D01*
X120892857Y-45321428D01*
X120964285Y-45464285D01*
X120964285Y-45607142D01*
X120892857Y-45750000D01*
X120821428Y-45821428D01*
X120678571Y-45892857D01*
X120178571Y-45892857D01*
X122250000Y-46607142D02*
X122107142Y-46678571D01*
X121821428Y-46678571D01*
X121678571Y-46607142D01*
X121607142Y-46464285D01*
X121607142Y-45892857D01*
X121678571Y-45750000D01*
X121821428Y-45678571D01*
X122107142Y-45678571D01*
X122250000Y-45750000D01*
X122321428Y-45892857D01*
X122321428Y-46035714D01*
X121607142Y-46178571D01*
X123178571Y-46678571D02*
X123035714Y-46607142D01*
X122964285Y-46464285D01*
X122964285Y-45178571D01*
X124392857Y-46678571D02*
X124392857Y-45178571D01*
X124392857Y-46607142D02*
X124250000Y-46678571D01*
X123964285Y-46678571D01*
X123821428Y-46607142D01*
X123750000Y-46535714D01*
X123678571Y-46392857D01*
X123678571Y-45964285D01*
X123750000Y-45821428D01*
X123821428Y-45750000D01*
X123964285Y-45678571D01*
X124250000Y-45678571D01*
X124392857Y-45750000D01*
X125750000Y-46678571D02*
X125750000Y-45892857D01*
X125678571Y-45750000D01*
X125535714Y-45678571D01*
X125250000Y-45678571D01*
X125107142Y-45750000D01*
X125750000Y-46607142D02*
X125607142Y-46678571D01*
X125250000Y-46678571D01*
X125107142Y-46607142D01*
X125035714Y-46464285D01*
X125035714Y-46321428D01*
X125107142Y-46178571D01*
X125250000Y-46107142D01*
X125607142Y-46107142D01*
X125750000Y-46035714D01*
X127607142Y-46107142D02*
X128750000Y-46107142D01*
X130464285Y-46678571D02*
X131250000Y-45678571D01*
X130464285Y-45678571D02*
X131250000Y-46678571D01*
X132464285Y-46678571D02*
X132464285Y-45892857D01*
X132392857Y-45750000D01*
X132250000Y-45678571D01*
X131964285Y-45678571D01*
X131821428Y-45750000D01*
X132464285Y-46607142D02*
X132321428Y-46678571D01*
X131964285Y-46678571D01*
X131821428Y-46607142D01*
X131750000Y-46464285D01*
X131750000Y-46321428D01*
X131821428Y-46178571D01*
X131964285Y-46107142D01*
X132321428Y-46107142D01*
X132464285Y-46035714D01*
X133035714Y-45678571D02*
X133392857Y-46678571D01*
X133750000Y-45678571D01*
X134321428Y-46678571D02*
X134321428Y-45678571D01*
X134321428Y-45178571D02*
X134250000Y-45250000D01*
X134321428Y-45321428D01*
X134392857Y-45250000D01*
X134321428Y-45178571D01*
X134321428Y-45321428D01*
X135607142Y-46607142D02*
X135464285Y-46678571D01*
X135178571Y-46678571D01*
X135035714Y-46607142D01*
X134964285Y-46464285D01*
X134964285Y-45892857D01*
X135035714Y-45750000D01*
X135178571Y-45678571D01*
X135464285Y-45678571D01*
X135607142Y-45750000D01*
X135678571Y-45892857D01*
X135678571Y-46035714D01*
X134964285Y-46178571D01*
X136321428Y-46678571D02*
X136321428Y-45678571D01*
X136321428Y-45964285D02*
X136392857Y-45821428D01*
X136464285Y-45750000D01*
X136607142Y-45678571D01*
X136750000Y-45678571D01*
X137250000Y-46678571D02*
X137250000Y-45178571D01*
X137250000Y-45750000D02*
X137392857Y-45678571D01*
X137678571Y-45678571D01*
X137821428Y-45750000D01*
X137892857Y-45821428D01*
X137964285Y-45964285D01*
X137964285Y-46392857D01*
X137892857Y-46535714D01*
X137821428Y-46607142D01*
X137678571Y-46678571D01*
X137392857Y-46678571D01*
X137250000Y-46607142D01*
X139178571Y-46607142D02*
X139035714Y-46678571D01*
X138750000Y-46678571D01*
X138607142Y-46607142D01*
X138535714Y-46464285D01*
X138535714Y-45892857D01*
X138607142Y-45750000D01*
X138750000Y-45678571D01*
X139035714Y-45678571D01*
X139178571Y-45750000D01*
X139250000Y-45892857D01*
X139250000Y-46035714D01*
X138535714Y-46178571D01*
X140107142Y-46678571D02*
X139964285Y-46607142D01*
X139892857Y-46464285D01*
X139892857Y-45178571D01*
X141321428Y-46678571D02*
X141321428Y-45178571D01*
X141321428Y-46607142D02*
X141178571Y-46678571D01*
X140892857Y-46678571D01*
X140750000Y-46607142D01*
X140678571Y-46535714D01*
X140607142Y-46392857D01*
X140607142Y-45964285D01*
X140678571Y-45821428D01*
X140750000Y-45750000D01*
X140892857Y-45678571D01*
X141178571Y-45678571D01*
X141321428Y-45750000D01*
X142678571Y-46678571D02*
X142678571Y-45892857D01*
X142607142Y-45750000D01*
X142464285Y-45678571D01*
X142178571Y-45678571D01*
X142035714Y-45750000D01*
X142678571Y-46607142D02*
X142535714Y-46678571D01*
X142178571Y-46678571D01*
X142035714Y-46607142D01*
X141964285Y-46464285D01*
X141964285Y-46321428D01*
X142035714Y-46178571D01*
X142178571Y-46107142D01*
X142535714Y-46107142D01*
X142678571Y-46035714D01*
X144178571Y-46678571D02*
X143321428Y-46678571D01*
X143750000Y-46678571D02*
X143750000Y-45178571D01*
X143607142Y-45392857D01*
X143464285Y-45535714D01*
X143321428Y-45607142D01*
X145750000Y-45964285D02*
X145678571Y-45892857D01*
X145535714Y-45821428D01*
X145392857Y-45821428D01*
X145250000Y-45892857D01*
X145178571Y-45964285D01*
X145107142Y-46107142D01*
X145107142Y-46250000D01*
X145178571Y-46392857D01*
X145250000Y-46464285D01*
X145392857Y-46535714D01*
X145535714Y-46535714D01*
X145678571Y-46464285D01*
X145750000Y-46392857D01*
X145750000Y-45821428D02*
X145750000Y-46392857D01*
X145821428Y-46464285D01*
X145892857Y-46464285D01*
X146035714Y-46392857D01*
X146107142Y-46250000D01*
X146107142Y-45892857D01*
X145964285Y-45678571D01*
X145750000Y-45535714D01*
X145464285Y-45464285D01*
X145178571Y-45535714D01*
X144964285Y-45678571D01*
X144821428Y-45892857D01*
X144750000Y-46178571D01*
X144821428Y-46464285D01*
X144964285Y-46678571D01*
X145178571Y-46821428D01*
X145464285Y-46892857D01*
X145750000Y-46821428D01*
X145964285Y-46678571D01*
X146750000Y-46678571D02*
X146750000Y-45178571D01*
X147392857Y-46678571D02*
X147392857Y-45892857D01*
X147321428Y-45750000D01*
X147178571Y-45678571D01*
X146964285Y-45678571D01*
X146821428Y-45750000D01*
X146750000Y-45821428D01*
X148321428Y-46678571D02*
X148178571Y-46607142D01*
X148107142Y-46535714D01*
X148035714Y-46392857D01*
X148035714Y-45964285D01*
X148107142Y-45821428D01*
X148178571Y-45750000D01*
X148321428Y-45678571D01*
X148535714Y-45678571D01*
X148678571Y-45750000D01*
X148750000Y-45821428D01*
X148821428Y-45964285D01*
X148821428Y-46392857D01*
X148750000Y-46535714D01*
X148678571Y-46607142D01*
X148535714Y-46678571D01*
X148321428Y-46678571D01*
X149250000Y-45678571D02*
X149821428Y-45678571D01*
X149464285Y-45178571D02*
X149464285Y-46464285D01*
X149535714Y-46607142D01*
X149678571Y-46678571D01*
X149821428Y-46678571D01*
X150321428Y-46678571D02*
X150321428Y-45678571D01*
X150321428Y-45821428D02*
X150392857Y-45750000D01*
X150535714Y-45678571D01*
X150750000Y-45678571D01*
X150892857Y-45750000D01*
X150964285Y-45892857D01*
X150964285Y-46678571D01*
X150964285Y-45892857D02*
X151035714Y-45750000D01*
X151178571Y-45678571D01*
X151392857Y-45678571D01*
X151535714Y-45750000D01*
X151607142Y-45892857D01*
X151607142Y-46678571D01*
X152964285Y-46678571D02*
X152964285Y-45892857D01*
X152892857Y-45750000D01*
X152750000Y-45678571D01*
X152464285Y-45678571D01*
X152321428Y-45750000D01*
X152964285Y-46607142D02*
X152821428Y-46678571D01*
X152464285Y-46678571D01*
X152321428Y-46607142D01*
X152250000Y-46464285D01*
X152250000Y-46321428D01*
X152321428Y-46178571D01*
X152464285Y-46107142D01*
X152821428Y-46107142D01*
X152964285Y-46035714D01*
X153678571Y-46678571D02*
X153678571Y-45678571D01*
X153678571Y-45178571D02*
X153607142Y-45250000D01*
X153678571Y-45321428D01*
X153750000Y-45250000D01*
X153678571Y-45178571D01*
X153678571Y-45321428D01*
X154607142Y-46678571D02*
X154464285Y-46607142D01*
X154392857Y-46464285D01*
X154392857Y-45178571D01*
X155178571Y-46535714D02*
X155250000Y-46607142D01*
X155178571Y-46678571D01*
X155107142Y-46607142D01*
X155178571Y-46535714D01*
X155178571Y-46678571D01*
X156535714Y-46607142D02*
X156392857Y-46678571D01*
X156107142Y-46678571D01*
X155964285Y-46607142D01*
X155892857Y-46535714D01*
X155821428Y-46392857D01*
X155821428Y-45964285D01*
X155892857Y-45821428D01*
X155964285Y-45750000D01*
X156107142Y-45678571D01*
X156392857Y-45678571D01*
X156535714Y-45750000D01*
X157392857Y-46678571D02*
X157250000Y-46607142D01*
X157178571Y-46535714D01*
X157107142Y-46392857D01*
X157107142Y-45964285D01*
X157178571Y-45821428D01*
X157250000Y-45750000D01*
X157392857Y-45678571D01*
X157607142Y-45678571D01*
X157750000Y-45750000D01*
X157821428Y-45821428D01*
X157892857Y-45964285D01*
X157892857Y-46392857D01*
X157821428Y-46535714D01*
X157750000Y-46607142D01*
X157607142Y-46678571D01*
X157392857Y-46678571D01*
X158535714Y-46678571D02*
X158535714Y-45678571D01*
X158535714Y-45821428D02*
X158607142Y-45750000D01*
X158750000Y-45678571D01*
X158964285Y-45678571D01*
X159107142Y-45750000D01*
X159178571Y-45892857D01*
X159178571Y-46678571D01*
X159178571Y-45892857D02*
X159250000Y-45750000D01*
X159392857Y-45678571D01*
X159607142Y-45678571D01*
X159750000Y-45750000D01*
X159821428Y-45892857D01*
X159821428Y-46678571D01*
X119107142Y-49228571D02*
X119107142Y-47728571D01*
X119678571Y-47728571D01*
X119821428Y-47800000D01*
X119892857Y-47871428D01*
X119964285Y-48014285D01*
X119964285Y-48228571D01*
X119892857Y-48371428D01*
X119821428Y-48442857D01*
X119678571Y-48514285D01*
X119107142Y-48514285D01*
X121250000Y-49228571D02*
X121250000Y-48442857D01*
X121178571Y-48300000D01*
X121035714Y-48228571D01*
X120750000Y-48228571D01*
X120607142Y-48300000D01*
X121250000Y-49157142D02*
X121107142Y-49228571D01*
X120750000Y-49228571D01*
X120607142Y-49157142D01*
X120535714Y-49014285D01*
X120535714Y-48871428D01*
X120607142Y-48728571D01*
X120750000Y-48657142D01*
X121107142Y-48657142D01*
X121250000Y-48585714D01*
X121964285Y-49228571D02*
X121964285Y-47728571D01*
X121964285Y-48300000D02*
X122107142Y-48228571D01*
X122392857Y-48228571D01*
X122535714Y-48300000D01*
X122607142Y-48371428D01*
X122678571Y-48514285D01*
X122678571Y-48942857D01*
X122607142Y-49085714D01*
X122535714Y-49157142D01*
X122392857Y-49228571D01*
X122107142Y-49228571D01*
X121964285Y-49157142D01*
X123535714Y-49228571D02*
X123392857Y-49157142D01*
X123321428Y-49014285D01*
X123321428Y-47728571D01*
X124321428Y-49228571D02*
X124178571Y-49157142D01*
X124107142Y-49085714D01*
X124035714Y-48942857D01*
X124035714Y-48514285D01*
X124107142Y-48371428D01*
X124178571Y-48300000D01*
X124321428Y-48228571D01*
X124535714Y-48228571D01*
X124678571Y-48300000D01*
X124750000Y-48371428D01*
X124821428Y-48514285D01*
X124821428Y-48942857D01*
X124750000Y-49085714D01*
X124678571Y-49157142D01*
X124535714Y-49228571D01*
X124321428Y-49228571D01*
X126607142Y-49228571D02*
X126607142Y-47728571D01*
X127178571Y-47728571D01*
X127321428Y-47800000D01*
X127392857Y-47871428D01*
X127464285Y-48014285D01*
X127464285Y-48228571D01*
X127392857Y-48371428D01*
X127321428Y-48442857D01*
X127178571Y-48514285D01*
X126607142Y-48514285D01*
X128678571Y-49157142D02*
X128535714Y-49228571D01*
X128250000Y-49228571D01*
X128107142Y-49157142D01*
X128035714Y-49014285D01*
X128035714Y-48442857D01*
X128107142Y-48300000D01*
X128250000Y-48228571D01*
X128535714Y-48228571D01*
X128678571Y-48300000D01*
X128750000Y-48442857D01*
X128750000Y-48585714D01*
X128035714Y-48728571D01*
X128535714Y-47657142D02*
X128321428Y-47871428D01*
X129392857Y-49228571D02*
X129392857Y-48228571D01*
X129392857Y-48514285D02*
X129464285Y-48371428D01*
X129535714Y-48300000D01*
X129678571Y-48228571D01*
X129821428Y-48228571D01*
X130892857Y-49157142D02*
X130750000Y-49228571D01*
X130464285Y-49228571D01*
X130321428Y-49157142D01*
X130250000Y-49014285D01*
X130250000Y-48442857D01*
X130321428Y-48300000D01*
X130464285Y-48228571D01*
X130750000Y-48228571D01*
X130892857Y-48300000D01*
X130964285Y-48442857D01*
X130964285Y-48585714D01*
X130250000Y-48728571D01*
X131464285Y-48228571D02*
X132250000Y-48228571D01*
X131464285Y-49228571D01*
X132250000Y-49228571D01*
X133964285Y-48657142D02*
X135107142Y-48657142D01*
X136964285Y-48228571D02*
X136964285Y-49728571D01*
X136964285Y-48300000D02*
X137107142Y-48228571D01*
X137392857Y-48228571D01*
X137535714Y-48300000D01*
X137607142Y-48371428D01*
X137678571Y-48514285D01*
X137678571Y-48942857D01*
X137607142Y-49085714D01*
X137535714Y-49157142D01*
X137392857Y-49228571D01*
X137107142Y-49228571D01*
X136964285Y-49157142D01*
X138964285Y-49228571D02*
X138964285Y-48442857D01*
X138892857Y-48300000D01*
X138750000Y-48228571D01*
X138464285Y-48228571D01*
X138321428Y-48300000D01*
X138964285Y-49157142D02*
X138821428Y-49228571D01*
X138464285Y-49228571D01*
X138321428Y-49157142D01*
X138250000Y-49014285D01*
X138250000Y-48871428D01*
X138321428Y-48728571D01*
X138464285Y-48657142D01*
X138821428Y-48657142D01*
X138964285Y-48585714D01*
X139678571Y-49228571D02*
X139678571Y-47728571D01*
X139678571Y-48300000D02*
X139821428Y-48228571D01*
X140107142Y-48228571D01*
X140250000Y-48300000D01*
X140321428Y-48371428D01*
X140392857Y-48514285D01*
X140392857Y-48942857D01*
X140321428Y-49085714D01*
X140250000Y-49157142D01*
X140107142Y-49228571D01*
X139821428Y-49228571D01*
X139678571Y-49157142D01*
X141250000Y-49228571D02*
X141107142Y-49157142D01*
X141035714Y-49014285D01*
X141035714Y-47728571D01*
X142035714Y-49228571D02*
X141892857Y-49157142D01*
X141821428Y-49085714D01*
X141750000Y-48942857D01*
X141750000Y-48514285D01*
X141821428Y-48371428D01*
X141892857Y-48300000D01*
X142035714Y-48228571D01*
X142250000Y-48228571D01*
X142392857Y-48300000D01*
X142464285Y-48371428D01*
X142535714Y-48514285D01*
X142535714Y-48942857D01*
X142464285Y-49085714D01*
X142392857Y-49157142D01*
X142250000Y-49228571D01*
X142035714Y-49228571D01*
X143178571Y-48228571D02*
X143178571Y-49728571D01*
X143178571Y-48300000D02*
X143321428Y-48228571D01*
X143607142Y-48228571D01*
X143750000Y-48300000D01*
X143821428Y-48371428D01*
X143892857Y-48514285D01*
X143892857Y-48942857D01*
X143821428Y-49085714D01*
X143750000Y-49157142D01*
X143607142Y-49228571D01*
X143321428Y-49228571D01*
X143178571Y-49157142D01*
X145178571Y-48228571D02*
X145178571Y-49442857D01*
X145107142Y-49585714D01*
X145035714Y-49657142D01*
X144892857Y-49728571D01*
X144678571Y-49728571D01*
X144535714Y-49657142D01*
X145178571Y-49157142D02*
X145035714Y-49228571D01*
X144750000Y-49228571D01*
X144607142Y-49157142D01*
X144535714Y-49085714D01*
X144464285Y-48942857D01*
X144464285Y-48514285D01*
X144535714Y-48371428D01*
X144607142Y-48300000D01*
X144750000Y-48228571D01*
X145035714Y-48228571D01*
X145178571Y-48300000D01*
X146821428Y-48514285D02*
X146750000Y-48442857D01*
X146607142Y-48371428D01*
X146464285Y-48371428D01*
X146321428Y-48442857D01*
X146250000Y-48514285D01*
X146178571Y-48657142D01*
X146178571Y-48800000D01*
X146250000Y-48942857D01*
X146321428Y-49014285D01*
X146464285Y-49085714D01*
X146607142Y-49085714D01*
X146750000Y-49014285D01*
X146821428Y-48942857D01*
X146821428Y-48371428D02*
X146821428Y-48942857D01*
X146892857Y-49014285D01*
X146964285Y-49014285D01*
X147107142Y-48942857D01*
X147178571Y-48800000D01*
X147178571Y-48442857D01*
X147035714Y-48228571D01*
X146821428Y-48085714D01*
X146535714Y-48014285D01*
X146250000Y-48085714D01*
X146035714Y-48228571D01*
X145892857Y-48442857D01*
X145821428Y-48728571D01*
X145892857Y-49014285D01*
X146035714Y-49228571D01*
X146250000Y-49371428D01*
X146535714Y-49442857D01*
X146821428Y-49371428D01*
X147035714Y-49228571D01*
X148464285Y-48228571D02*
X148464285Y-49228571D01*
X147821428Y-48228571D02*
X147821428Y-49014285D01*
X147892857Y-49157142D01*
X148035714Y-49228571D01*
X148250000Y-49228571D01*
X148392857Y-49157142D01*
X148464285Y-49085714D01*
X149107142Y-49157142D02*
X149250000Y-49228571D01*
X149535714Y-49228571D01*
X149678571Y-49157142D01*
X149750000Y-49014285D01*
X149750000Y-48942857D01*
X149678571Y-48800000D01*
X149535714Y-48728571D01*
X149321428Y-48728571D01*
X149178571Y-48657142D01*
X149107142Y-48514285D01*
X149107142Y-48442857D01*
X149178571Y-48300000D01*
X149321428Y-48228571D01*
X149535714Y-48228571D01*
X149678571Y-48300000D01*
X150392857Y-49085714D02*
X150464285Y-49157142D01*
X150392857Y-49228571D01*
X150321428Y-49157142D01*
X150392857Y-49085714D01*
X150392857Y-49228571D01*
X151678571Y-49157142D02*
X151535714Y-49228571D01*
X151250000Y-49228571D01*
X151107142Y-49157142D01*
X151035714Y-49014285D01*
X151035714Y-48442857D01*
X151107142Y-48300000D01*
X151250000Y-48228571D01*
X151535714Y-48228571D01*
X151678571Y-48300000D01*
X151750000Y-48442857D01*
X151750000Y-48585714D01*
X151035714Y-48728571D01*
X152321428Y-49157142D02*
X152464285Y-49228571D01*
X152750000Y-49228571D01*
X152892857Y-49157142D01*
X152964285Y-49014285D01*
X152964285Y-48942857D01*
X152892857Y-48800000D01*
X152750000Y-48728571D01*
X152535714Y-48728571D01*
X152392857Y-48657142D01*
X152321428Y-48514285D01*
X152321428Y-48442857D01*
X152392857Y-48300000D01*
X152535714Y-48228571D01*
X152750000Y-48228571D01*
X152892857Y-48300000D01*
X189278571Y-74928571D02*
X189278571Y-75642857D01*
X189992857Y-75714285D01*
X189921428Y-75642857D01*
X189850000Y-75500000D01*
X189850000Y-75142857D01*
X189921428Y-75000000D01*
X189992857Y-74928571D01*
X190135714Y-74857142D01*
X190492857Y-74857142D01*
X190635714Y-74928571D01*
X190707142Y-75000000D01*
X190778571Y-75142857D01*
X190778571Y-75500000D01*
X190707142Y-75642857D01*
X190635714Y-75714285D01*
X189278571Y-74357142D02*
X189278571Y-73357142D01*
X190778571Y-74000000D01*
X190707142Y-72714285D02*
X190778571Y-72714285D01*
X190921428Y-72785714D01*
X190992857Y-72857142D01*
X189278571Y-71785714D02*
X189278571Y-71642857D01*
X189350000Y-71500000D01*
X189421428Y-71428571D01*
X189564285Y-71357142D01*
X189850000Y-71285714D01*
X190207142Y-71285714D01*
X190492857Y-71357142D01*
X190635714Y-71428571D01*
X190707142Y-71500000D01*
X190778571Y-71642857D01*
X190778571Y-71785714D01*
X190707142Y-71928571D01*
X190635714Y-72000000D01*
X190492857Y-72071428D01*
X190207142Y-72142857D01*
X189850000Y-72142857D01*
X189564285Y-72071428D01*
X189421428Y-72000000D01*
X189350000Y-71928571D01*
X189278571Y-71785714D01*
X189278571Y-70357142D02*
X189278571Y-70214285D01*
X189350000Y-70071428D01*
X189421428Y-70000000D01*
X189564285Y-69928571D01*
X189850000Y-69857142D01*
X190207142Y-69857142D01*
X190492857Y-69928571D01*
X190635714Y-70000000D01*
X190707142Y-70071428D01*
X190778571Y-70214285D01*
X190778571Y-70357142D01*
X190707142Y-70500000D01*
X190635714Y-70571428D01*
X190492857Y-70642857D01*
X190207142Y-70714285D01*
X189850000Y-70714285D01*
X189564285Y-70642857D01*
X189421428Y-70571428D01*
X189350000Y-70500000D01*
X189278571Y-70357142D01*
X189278571Y-68928571D02*
X189278571Y-68785714D01*
X189350000Y-68642857D01*
X189421428Y-68571428D01*
X189564285Y-68500000D01*
X189850000Y-68428571D01*
X190207142Y-68428571D01*
X190492857Y-68500000D01*
X190635714Y-68571428D01*
X190707142Y-68642857D01*
X190778571Y-68785714D01*
X190778571Y-68928571D01*
X190707142Y-69071428D01*
X190635714Y-69142857D01*
X190492857Y-69214285D01*
X190207142Y-69285714D01*
X189850000Y-69285714D01*
X189564285Y-69214285D01*
X189421428Y-69142857D01*
X189350000Y-69071428D01*
X189278571Y-68928571D01*
X190778571Y-66642857D02*
X189778571Y-66642857D01*
X189921428Y-66642857D02*
X189850000Y-66571428D01*
X189778571Y-66428571D01*
X189778571Y-66214285D01*
X189850000Y-66071428D01*
X189992857Y-66000000D01*
X190778571Y-66000000D01*
X189992857Y-66000000D02*
X189850000Y-65928571D01*
X189778571Y-65785714D01*
X189778571Y-65571428D01*
X189850000Y-65428571D01*
X189992857Y-65357142D01*
X190778571Y-65357142D01*
X190778571Y-64642857D02*
X189778571Y-64642857D01*
X189921428Y-64642857D02*
X189850000Y-64571428D01*
X189778571Y-64428571D01*
X189778571Y-64214285D01*
X189850000Y-64071428D01*
X189992857Y-64000000D01*
X190778571Y-64000000D01*
X189992857Y-64000000D02*
X189850000Y-63928571D01*
X189778571Y-63785714D01*
X189778571Y-63571428D01*
X189850000Y-63428571D01*
X189992857Y-63357142D01*
X190778571Y-63357142D01*
X188000000Y-98000000D02*
X188000000Y-41000000D01*
X173000000Y-98000000D02*
X188586421Y-98000000D01*
X173000000Y-41000000D02*
X188586421Y-41000000D01*
X188000000Y-41000000D02*
X188586421Y-42126504D01*
X188000000Y-41000000D02*
X187413579Y-42126504D01*
X188000000Y-98000000D02*
X188586421Y-96873496D01*
X188000000Y-98000000D02*
X187413579Y-96873496D01*
X136000000Y-112278571D02*
X135714285Y-112278571D01*
X135571428Y-112350000D01*
X135500000Y-112421428D01*
X135357142Y-112635714D01*
X135285714Y-112921428D01*
X135285714Y-113492857D01*
X135357142Y-113635714D01*
X135428571Y-113707142D01*
X135571428Y-113778571D01*
X135857142Y-113778571D01*
X136000000Y-113707142D01*
X136071428Y-113635714D01*
X136142857Y-113492857D01*
X136142857Y-113135714D01*
X136071428Y-112992857D01*
X136000000Y-112921428D01*
X135857142Y-112850000D01*
X135571428Y-112850000D01*
X135428571Y-112921428D01*
X135357142Y-112992857D01*
X135285714Y-113135714D01*
X136642857Y-112278571D02*
X137571428Y-112278571D01*
X137071428Y-112850000D01*
X137285714Y-112850000D01*
X137428571Y-112921428D01*
X137500000Y-112992857D01*
X137571428Y-113135714D01*
X137571428Y-113492857D01*
X137500000Y-113635714D01*
X137428571Y-113707142D01*
X137285714Y-113778571D01*
X136857142Y-113778571D01*
X136714285Y-113707142D01*
X136642857Y-113635714D01*
X138285714Y-113707142D02*
X138285714Y-113778571D01*
X138214285Y-113921428D01*
X138142857Y-113992857D01*
X139214285Y-112278571D02*
X139357142Y-112278571D01*
X139500000Y-112350000D01*
X139571428Y-112421428D01*
X139642857Y-112564285D01*
X139714285Y-112850000D01*
X139714285Y-113207142D01*
X139642857Y-113492857D01*
X139571428Y-113635714D01*
X139500000Y-113707142D01*
X139357142Y-113778571D01*
X139214285Y-113778571D01*
X139071428Y-113707142D01*
X139000000Y-113635714D01*
X138928571Y-113492857D01*
X138857142Y-113207142D01*
X138857142Y-112850000D01*
X138928571Y-112564285D01*
X139000000Y-112421428D01*
X139071428Y-112350000D01*
X139214285Y-112278571D01*
X140642857Y-112278571D02*
X140785714Y-112278571D01*
X140928571Y-112350000D01*
X141000000Y-112421428D01*
X141071428Y-112564285D01*
X141142857Y-112850000D01*
X141142857Y-113207142D01*
X141071428Y-113492857D01*
X141000000Y-113635714D01*
X140928571Y-113707142D01*
X140785714Y-113778571D01*
X140642857Y-113778571D01*
X140500000Y-113707142D01*
X140428571Y-113635714D01*
X140357142Y-113492857D01*
X140285714Y-113207142D01*
X140285714Y-112850000D01*
X140357142Y-112564285D01*
X140428571Y-112421428D01*
X140500000Y-112350000D01*
X140642857Y-112278571D01*
X142071428Y-112278571D02*
X142214285Y-112278571D01*
X142357142Y-112350000D01*
X142428571Y-112421428D01*
X142500000Y-112564285D01*
X142571428Y-112850000D01*
X142571428Y-113207142D01*
X142500000Y-113492857D01*
X142428571Y-113635714D01*
X142357142Y-113707142D01*
X142214285Y-113778571D01*
X142071428Y-113778571D01*
X141928571Y-113707142D01*
X141857142Y-113635714D01*
X141785714Y-113492857D01*
X141714285Y-113207142D01*
X141714285Y-112850000D01*
X141785714Y-112564285D01*
X141857142Y-112421428D01*
X141928571Y-112350000D01*
X142071428Y-112278571D01*
X144357142Y-113778571D02*
X144357142Y-112778571D01*
X144357142Y-112921428D02*
X144428571Y-112850000D01*
X144571428Y-112778571D01*
X144785714Y-112778571D01*
X144928571Y-112850000D01*
X145000000Y-112992857D01*
X145000000Y-113778571D01*
X145000000Y-112992857D02*
X145071428Y-112850000D01*
X145214285Y-112778571D01*
X145428571Y-112778571D01*
X145571428Y-112850000D01*
X145642857Y-112992857D01*
X145642857Y-113778571D01*
X146357142Y-113778571D02*
X146357142Y-112778571D01*
X146357142Y-112921428D02*
X146428571Y-112850000D01*
X146571428Y-112778571D01*
X146785714Y-112778571D01*
X146928571Y-112850000D01*
X147000000Y-112992857D01*
X147000000Y-113778571D01*
X147000000Y-112992857D02*
X147071428Y-112850000D01*
X147214285Y-112778571D01*
X147428571Y-112778571D01*
X147571428Y-112850000D01*
X147642857Y-112992857D01*
X147642857Y-113778571D01*
X110000000Y-111000000D02*
X173000000Y-111000000D01*
X110000000Y-98000000D02*
X110000000Y-111586421D01*
X173000000Y-98000000D02*
X173000000Y-111586421D01*
X173000000Y-111000000D02*
X171873496Y-111586421D01*
X173000000Y-111000000D02*
X171873496Y-110413579D01*
X110000000Y-111000000D02*
X111126504Y-111586421D01*
X110000000Y-111000000D02*
X111126504Y-110413579D01*
D11*
G04 #@! TO.C,J7*
X153310000Y-94910000D02*
X153310000Y-97030000D01*
X155370000Y-94910000D02*
X153310000Y-94910000D01*
X155370000Y-97030000D02*
X153310000Y-97030000D01*
X155370000Y-94910000D02*
X155370000Y-97030000D01*
X156370000Y-94910000D02*
X157430000Y-94910000D01*
X157430000Y-94910000D02*
X157430000Y-95970000D01*
G04 #@! TO.C,C1*
X167870000Y-59000000D02*
G75*
G03X167870000Y-59000000I-2120000J0D01*
G01*
G04 #@! TO.C,C2*
X169120000Y-47750000D02*
G75*
G03X169120000Y-47750000I-2120000J0D01*
G01*
G04 #@! TO.C,C3*
X168370000Y-53250000D02*
G75*
G03X168370000Y-53250000I-2120000J0D01*
G01*
G04 #@! TO.C,C4*
X172230000Y-74490000D02*
G75*
G03X172230000Y-74490000I-2120000J0D01*
G01*
G04 #@! TO.C,C5*
X153000000Y-86800000D02*
G75*
G03X153000000Y-86800000I-2120000J0D01*
G01*
G04 #@! TO.C,C6*
X172233089Y-79694660D02*
G75*
G03X172233089Y-79694660I-2120000J0D01*
G01*
G04 #@! TO.C,C7*
X156250000Y-82080000D02*
G75*
G03X156250000Y-82080000I-2120000J0D01*
G01*
D12*
G04 #@! TO.C,J1*
X110681000Y-82062200D02*
X110681000Y-72257800D01*
X131585200Y-72257800D02*
X131585200Y-82062200D01*
X131585200Y-82062200D02*
X110681000Y-82062200D01*
X110681000Y-72257800D02*
X131585200Y-72257800D01*
G04 #@! TO.C,J4*
X110681000Y-61257800D02*
X131585200Y-61257800D01*
X131585200Y-71062200D02*
X110681000Y-71062200D01*
X131585200Y-61257800D02*
X131585200Y-71062200D01*
X110681000Y-71062200D02*
X110681000Y-61257800D01*
G04 #@! TO.C,J5*
X110681000Y-93062200D02*
X110681000Y-83257800D01*
X131585200Y-83257800D02*
X131585200Y-93062200D01*
X131585200Y-93062200D02*
X110681000Y-93062200D01*
X110681000Y-83257800D02*
X131585200Y-83257800D01*
D11*
G04 #@! TO.C,R1*
X134760000Y-86790000D02*
X134760000Y-87120000D01*
X141300000Y-86790000D02*
X134760000Y-86790000D01*
X141300000Y-87120000D02*
X141300000Y-86790000D01*
X134760000Y-89530000D02*
X134760000Y-89200000D01*
X141300000Y-89530000D02*
X134760000Y-89530000D01*
X141300000Y-89200000D02*
X141300000Y-89530000D01*
G04 #@! TO.C,R2*
X133130000Y-76580000D02*
X133460000Y-76580000D01*
X133130000Y-70040000D02*
X133130000Y-76580000D01*
X133460000Y-70040000D02*
X133130000Y-70040000D01*
X135870000Y-76580000D02*
X135540000Y-76580000D01*
X135870000Y-70040000D02*
X135870000Y-76580000D01*
X135540000Y-70040000D02*
X135870000Y-70040000D01*
G04 #@! TO.C,R3*
X138940000Y-59040000D02*
X139270000Y-59040000D01*
X139270000Y-59040000D02*
X139270000Y-65580000D01*
X139270000Y-65580000D02*
X138940000Y-65580000D01*
X136860000Y-59040000D02*
X136530000Y-59040000D01*
X136530000Y-59040000D02*
X136530000Y-65580000D01*
X136530000Y-65580000D02*
X136860000Y-65580000D01*
G04 #@! TO.C,R4*
X161790000Y-59540000D02*
X162120000Y-59540000D01*
X162120000Y-59540000D02*
X162120000Y-66080000D01*
X162120000Y-66080000D02*
X161790000Y-66080000D01*
X159710000Y-59540000D02*
X159380000Y-59540000D01*
X159380000Y-59540000D02*
X159380000Y-66080000D01*
X159380000Y-66080000D02*
X159710000Y-66080000D01*
G04 #@! TO.C,R5*
X159380000Y-55580000D02*
X159710000Y-55580000D01*
X159380000Y-49040000D02*
X159380000Y-55580000D01*
X159710000Y-49040000D02*
X159380000Y-49040000D01*
X162120000Y-55580000D02*
X161790000Y-55580000D01*
X162120000Y-49040000D02*
X162120000Y-55580000D01*
X161790000Y-49040000D02*
X162120000Y-49040000D01*
G04 #@! TO.C,R6*
X169960000Y-54160000D02*
X169630000Y-54160000D01*
X169630000Y-54160000D02*
X169630000Y-47620000D01*
X169630000Y-47620000D02*
X169960000Y-47620000D01*
X172040000Y-54160000D02*
X172370000Y-54160000D01*
X172370000Y-54160000D02*
X172370000Y-47620000D01*
X172370000Y-47620000D02*
X172040000Y-47620000D01*
G04 #@! TO.C,R7*
X151420000Y-89640000D02*
X151420000Y-89310000D01*
X151420000Y-89310000D02*
X157960000Y-89310000D01*
X157960000Y-89310000D02*
X157960000Y-89640000D01*
X151420000Y-91720000D02*
X151420000Y-92050000D01*
X151420000Y-92050000D02*
X157960000Y-92050000D01*
X157960000Y-92050000D02*
X157960000Y-91720000D01*
G04 #@! TO.C,R8*
X145360000Y-89950000D02*
X145690000Y-89950000D01*
X145360000Y-83410000D02*
X145360000Y-89950000D01*
X145690000Y-83410000D02*
X145360000Y-83410000D01*
X148100000Y-89950000D02*
X147770000Y-89950000D01*
X148100000Y-83410000D02*
X148100000Y-89950000D01*
X147770000Y-83410000D02*
X148100000Y-83410000D01*
G04 #@! TO.C,R9*
X163903089Y-85654660D02*
X163903089Y-85324660D01*
X163903089Y-85324660D02*
X170443089Y-85324660D01*
X170443089Y-85324660D02*
X170443089Y-85654660D01*
X163903089Y-87734660D02*
X163903089Y-88064660D01*
X163903089Y-88064660D02*
X170443089Y-88064660D01*
X170443089Y-88064660D02*
X170443089Y-87734660D01*
G04 #@! TO.C,R10*
X165530000Y-81070000D02*
X165530000Y-80740000D01*
X158990000Y-81070000D02*
X165530000Y-81070000D01*
X158990000Y-80740000D02*
X158990000Y-81070000D01*
X165530000Y-78330000D02*
X165530000Y-78660000D01*
X158990000Y-78330000D02*
X165530000Y-78330000D01*
X158990000Y-78660000D02*
X158990000Y-78330000D01*
D13*
G04 #@! TO.C,U1*
X155627000Y-56127800D02*
X155627000Y-55442000D01*
X147753000Y-76778000D02*
X155627000Y-76778000D01*
X155627000Y-76778000D02*
X155627000Y-76092200D01*
X155627000Y-55442000D02*
X151994800Y-55442000D01*
X151994800Y-55442000D02*
X151385200Y-55442000D01*
X151385200Y-55442000D02*
X147753000Y-55442000D01*
X147753000Y-55442000D02*
X147753000Y-56127800D01*
X147753000Y-76092200D02*
X147753000Y-76778000D01*
D14*
X151994800Y-55442000D02*
G75*
G02X151385200Y-55442000I-304800J0D01*
G01*
D13*
G04 #@! TO.C,U2*
X157910200Y-84119800D02*
X154709800Y-84119800D01*
X154709800Y-87320200D02*
X156005200Y-87320200D01*
X156005200Y-87320200D02*
X156614800Y-87320200D01*
X156614800Y-87320200D02*
X157910200Y-87320200D01*
D14*
X156005200Y-87320200D02*
G75*
G02X156614800Y-87320200I304800J0D01*
G01*
D11*
G04 #@! TO.C,J2*
X137430000Y-95405000D02*
X137430000Y-96465000D01*
X136370000Y-95405000D02*
X137430000Y-95405000D01*
X135370000Y-95405000D02*
X135370000Y-97525000D01*
X135370000Y-97525000D02*
X133310000Y-97525000D01*
X135370000Y-95405000D02*
X133310000Y-95405000D01*
X133310000Y-95405000D02*
X133310000Y-97525000D01*
G04 #@! TO.C,J3*
X163940000Y-43810000D02*
X163940000Y-42750000D01*
X165000000Y-43810000D02*
X163940000Y-43810000D01*
X166000000Y-43810000D02*
X166000000Y-41690000D01*
X166000000Y-41690000D02*
X168060000Y-41690000D01*
X166000000Y-43810000D02*
X168060000Y-43810000D01*
X168060000Y-43810000D02*
X168060000Y-41690000D01*
G04 #@! TO.C,J6*
X132330000Y-97525000D02*
X132330000Y-95405000D01*
X130270000Y-97525000D02*
X132330000Y-97525000D01*
X130270000Y-95405000D02*
X132330000Y-95405000D01*
X130270000Y-97525000D02*
X130270000Y-95405000D01*
X129270000Y-97525000D02*
X128210000Y-97525000D01*
X128210000Y-97525000D02*
X128210000Y-96465000D01*
G04 #@! TO.C,JP1*
X161810000Y-69390000D02*
X159690000Y-69390000D01*
X161810000Y-73450000D02*
X161810000Y-69390000D01*
X159690000Y-73450000D02*
X159690000Y-69390000D01*
X161810000Y-73450000D02*
X159690000Y-73450000D01*
X161810000Y-74450000D02*
X161810000Y-75510000D01*
X161810000Y-75510000D02*
X160750000Y-75510000D01*
G04 #@! TO.C,J7*
D15*
X157882380Y-96303333D02*
X158596666Y-96303333D01*
X158739523Y-96350952D01*
X158834761Y-96446190D01*
X158882380Y-96589047D01*
X158882380Y-96684285D01*
X157882380Y-95922380D02*
X157882380Y-95255714D01*
X158882380Y-95684285D01*
G04 #@! TO.C,C1*
X165583333Y-62357142D02*
X165535714Y-62404761D01*
X165392857Y-62452380D01*
X165297619Y-62452380D01*
X165154761Y-62404761D01*
X165059523Y-62309523D01*
X165011904Y-62214285D01*
X164964285Y-62023809D01*
X164964285Y-61880952D01*
X165011904Y-61690476D01*
X165059523Y-61595238D01*
X165154761Y-61500000D01*
X165297619Y-61452380D01*
X165392857Y-61452380D01*
X165535714Y-61500000D01*
X165583333Y-61547619D01*
X166535714Y-62452380D02*
X165964285Y-62452380D01*
X166250000Y-62452380D02*
X166250000Y-61452380D01*
X166154761Y-61595238D01*
X166059523Y-61690476D01*
X165964285Y-61738095D01*
G04 #@! TO.C,C2*
X167833333Y-51357142D02*
X167785714Y-51404761D01*
X167642857Y-51452380D01*
X167547619Y-51452380D01*
X167404761Y-51404761D01*
X167309523Y-51309523D01*
X167261904Y-51214285D01*
X167214285Y-51023809D01*
X167214285Y-50880952D01*
X167261904Y-50690476D01*
X167309523Y-50595238D01*
X167404761Y-50500000D01*
X167547619Y-50452380D01*
X167642857Y-50452380D01*
X167785714Y-50500000D01*
X167833333Y-50547619D01*
X168214285Y-50547619D02*
X168261904Y-50500000D01*
X168357142Y-50452380D01*
X168595238Y-50452380D01*
X168690476Y-50500000D01*
X168738095Y-50547619D01*
X168785714Y-50642857D01*
X168785714Y-50738095D01*
X168738095Y-50880952D01*
X168166666Y-51452380D01*
X168785714Y-51452380D01*
G04 #@! TO.C,C3*
X166833333Y-56857142D02*
X166785714Y-56904761D01*
X166642857Y-56952380D01*
X166547619Y-56952380D01*
X166404761Y-56904761D01*
X166309523Y-56809523D01*
X166261904Y-56714285D01*
X166214285Y-56523809D01*
X166214285Y-56380952D01*
X166261904Y-56190476D01*
X166309523Y-56095238D01*
X166404761Y-56000000D01*
X166547619Y-55952380D01*
X166642857Y-55952380D01*
X166785714Y-56000000D01*
X166833333Y-56047619D01*
X167166666Y-55952380D02*
X167785714Y-55952380D01*
X167452380Y-56333333D01*
X167595238Y-56333333D01*
X167690476Y-56380952D01*
X167738095Y-56428571D01*
X167785714Y-56523809D01*
X167785714Y-56761904D01*
X167738095Y-56857142D01*
X167690476Y-56904761D01*
X167595238Y-56952380D01*
X167309523Y-56952380D01*
X167214285Y-56904761D01*
X167166666Y-56857142D01*
G04 #@! TO.C,C4*
X169833333Y-83357142D02*
X169785714Y-83404761D01*
X169642857Y-83452380D01*
X169547619Y-83452380D01*
X169404761Y-83404761D01*
X169309523Y-83309523D01*
X169261904Y-83214285D01*
X169214285Y-83023809D01*
X169214285Y-82880952D01*
X169261904Y-82690476D01*
X169309523Y-82595238D01*
X169404761Y-82500000D01*
X169547619Y-82452380D01*
X169642857Y-82452380D01*
X169785714Y-82500000D01*
X169833333Y-82547619D01*
X170690476Y-82785714D02*
X170690476Y-83452380D01*
X170452380Y-82404761D02*
X170214285Y-83119047D01*
X170833333Y-83119047D01*
G04 #@! TO.C,C5*
X149833333Y-84357142D02*
X149785714Y-84404761D01*
X149642857Y-84452380D01*
X149547619Y-84452380D01*
X149404761Y-84404761D01*
X149309523Y-84309523D01*
X149261904Y-84214285D01*
X149214285Y-84023809D01*
X149214285Y-83880952D01*
X149261904Y-83690476D01*
X149309523Y-83595238D01*
X149404761Y-83500000D01*
X149547619Y-83452380D01*
X149642857Y-83452380D01*
X149785714Y-83500000D01*
X149833333Y-83547619D01*
X150738095Y-83452380D02*
X150261904Y-83452380D01*
X150214285Y-83928571D01*
X150261904Y-83880952D01*
X150357142Y-83833333D01*
X150595238Y-83833333D01*
X150690476Y-83880952D01*
X150738095Y-83928571D01*
X150785714Y-84023809D01*
X150785714Y-84261904D01*
X150738095Y-84357142D01*
X150690476Y-84404761D01*
X150595238Y-84452380D01*
X150357142Y-84452380D01*
X150261904Y-84404761D01*
X150214285Y-84357142D01*
G04 #@! TO.C,C6*
X169833333Y-71357142D02*
X169785714Y-71404761D01*
X169642857Y-71452380D01*
X169547619Y-71452380D01*
X169404761Y-71404761D01*
X169309523Y-71309523D01*
X169261904Y-71214285D01*
X169214285Y-71023809D01*
X169214285Y-70880952D01*
X169261904Y-70690476D01*
X169309523Y-70595238D01*
X169404761Y-70500000D01*
X169547619Y-70452380D01*
X169642857Y-70452380D01*
X169785714Y-70500000D01*
X169833333Y-70547619D01*
X170690476Y-70452380D02*
X170500000Y-70452380D01*
X170404761Y-70500000D01*
X170357142Y-70547619D01*
X170261904Y-70690476D01*
X170214285Y-70880952D01*
X170214285Y-71261904D01*
X170261904Y-71357142D01*
X170309523Y-71404761D01*
X170404761Y-71452380D01*
X170595238Y-71452380D01*
X170690476Y-71404761D01*
X170738095Y-71357142D01*
X170785714Y-71261904D01*
X170785714Y-71023809D01*
X170738095Y-70928571D01*
X170690476Y-70880952D01*
X170595238Y-70833333D01*
X170404761Y-70833333D01*
X170309523Y-70880952D01*
X170261904Y-70928571D01*
X170214285Y-71023809D01*
G04 #@! TO.C,C7*
X151357142Y-82166666D02*
X151404761Y-82214285D01*
X151452380Y-82357142D01*
X151452380Y-82452380D01*
X151404761Y-82595238D01*
X151309523Y-82690476D01*
X151214285Y-82738095D01*
X151023809Y-82785714D01*
X150880952Y-82785714D01*
X150690476Y-82738095D01*
X150595238Y-82690476D01*
X150500000Y-82595238D01*
X150452380Y-82452380D01*
X150452380Y-82357142D01*
X150500000Y-82214285D01*
X150547619Y-82166666D01*
X150452380Y-81833333D02*
X150452380Y-81166666D01*
X151452380Y-81595238D01*
G04 #@! TO.C,J1*
D16*
X133865391Y-75013624D02*
X134436837Y-75013624D01*
X134551126Y-75051721D01*
X134627319Y-75127913D01*
X134665415Y-75242202D01*
X134665415Y-75318395D01*
X134665415Y-74213600D02*
X134665415Y-74670757D01*
X134665415Y-74442178D02*
X133865391Y-74442178D01*
X133979680Y-74518371D01*
X134055873Y-74594564D01*
X134093969Y-74670757D01*
X121097589Y-77139667D02*
X121189100Y-77170171D01*
X121219604Y-77200674D01*
X121250107Y-77261682D01*
X121250107Y-77353193D01*
X121219604Y-77414200D01*
X121189100Y-77444704D01*
X121128092Y-77475208D01*
X120884063Y-77475208D01*
X120884063Y-76834630D01*
X121097589Y-76834630D01*
X121158596Y-76865134D01*
X121189100Y-76895637D01*
X121219604Y-76956645D01*
X121219604Y-77017652D01*
X121189100Y-77078660D01*
X121158596Y-77109163D01*
X121097589Y-77139667D01*
X120884063Y-77139667D01*
X121799174Y-77475208D02*
X121799174Y-77139667D01*
X121768670Y-77078660D01*
X121707663Y-77048156D01*
X121585648Y-77048156D01*
X121524641Y-77078660D01*
X121799174Y-77444704D02*
X121738167Y-77475208D01*
X121585648Y-77475208D01*
X121524641Y-77444704D01*
X121494137Y-77383697D01*
X121494137Y-77322689D01*
X121524641Y-77261682D01*
X121585648Y-77231178D01*
X121738167Y-77231178D01*
X121799174Y-77200674D01*
X122104211Y-77048156D02*
X122104211Y-77475208D01*
X122104211Y-77109163D02*
X122134715Y-77078660D01*
X122195722Y-77048156D01*
X122287234Y-77048156D01*
X122348241Y-77078660D01*
X122378745Y-77139667D01*
X122378745Y-77475208D01*
X122958315Y-77475208D02*
X122958315Y-77139667D01*
X122927812Y-77078660D01*
X122866804Y-77048156D01*
X122744789Y-77048156D01*
X122683782Y-77078660D01*
X122958315Y-77444704D02*
X122897308Y-77475208D01*
X122744789Y-77475208D01*
X122683782Y-77444704D01*
X122653278Y-77383697D01*
X122653278Y-77322689D01*
X122683782Y-77261682D01*
X122744789Y-77231178D01*
X122897308Y-77231178D01*
X122958315Y-77200674D01*
X123263352Y-77048156D02*
X123263352Y-77475208D01*
X123263352Y-77109163D02*
X123293856Y-77078660D01*
X123354864Y-77048156D01*
X123446375Y-77048156D01*
X123507382Y-77078660D01*
X123537886Y-77139667D01*
X123537886Y-77475208D01*
X124117456Y-77475208D02*
X124117456Y-77139667D01*
X124086953Y-77078660D01*
X124025945Y-77048156D01*
X123903930Y-77048156D01*
X123842923Y-77078660D01*
X124117456Y-77444704D02*
X124056449Y-77475208D01*
X123903930Y-77475208D01*
X123842923Y-77444704D01*
X123812419Y-77383697D01*
X123812419Y-77322689D01*
X123842923Y-77261682D01*
X123903930Y-77231178D01*
X124056449Y-77231178D01*
X124117456Y-77200674D01*
G04 #@! TO.C,J4*
X133865391Y-64013624D02*
X134436837Y-64013624D01*
X134551126Y-64051721D01*
X134627319Y-64127913D01*
X134665415Y-64242202D01*
X134665415Y-64318395D01*
X134132066Y-63289793D02*
X134665415Y-63289793D01*
X133827295Y-63480275D02*
X134398740Y-63670757D01*
X134398740Y-63175504D01*
X121097589Y-66139667D02*
X121189100Y-66170171D01*
X121219604Y-66200674D01*
X121250107Y-66261682D01*
X121250107Y-66353193D01*
X121219604Y-66414200D01*
X121189100Y-66444704D01*
X121128092Y-66475208D01*
X120884063Y-66475208D01*
X120884063Y-65834630D01*
X121097589Y-65834630D01*
X121158596Y-65865134D01*
X121189100Y-65895637D01*
X121219604Y-65956645D01*
X121219604Y-66017652D01*
X121189100Y-66078660D01*
X121158596Y-66109163D01*
X121097589Y-66139667D01*
X120884063Y-66139667D01*
X121799174Y-66475208D02*
X121799174Y-66139667D01*
X121768670Y-66078660D01*
X121707663Y-66048156D01*
X121585648Y-66048156D01*
X121524641Y-66078660D01*
X121799174Y-66444704D02*
X121738167Y-66475208D01*
X121585648Y-66475208D01*
X121524641Y-66444704D01*
X121494137Y-66383697D01*
X121494137Y-66322689D01*
X121524641Y-66261682D01*
X121585648Y-66231178D01*
X121738167Y-66231178D01*
X121799174Y-66200674D01*
X122104211Y-66048156D02*
X122104211Y-66475208D01*
X122104211Y-66109163D02*
X122134715Y-66078660D01*
X122195722Y-66048156D01*
X122287234Y-66048156D01*
X122348241Y-66078660D01*
X122378745Y-66139667D01*
X122378745Y-66475208D01*
X122958315Y-66475208D02*
X122958315Y-66139667D01*
X122927812Y-66078660D01*
X122866804Y-66048156D01*
X122744789Y-66048156D01*
X122683782Y-66078660D01*
X122958315Y-66444704D02*
X122897308Y-66475208D01*
X122744789Y-66475208D01*
X122683782Y-66444704D01*
X122653278Y-66383697D01*
X122653278Y-66322689D01*
X122683782Y-66261682D01*
X122744789Y-66231178D01*
X122897308Y-66231178D01*
X122958315Y-66200674D01*
X123263352Y-66048156D02*
X123263352Y-66475208D01*
X123263352Y-66109163D02*
X123293856Y-66078660D01*
X123354864Y-66048156D01*
X123446375Y-66048156D01*
X123507382Y-66078660D01*
X123537886Y-66139667D01*
X123537886Y-66475208D01*
X124117456Y-66475208D02*
X124117456Y-66139667D01*
X124086953Y-66078660D01*
X124025945Y-66048156D01*
X123903930Y-66048156D01*
X123842923Y-66078660D01*
X124117456Y-66444704D02*
X124056449Y-66475208D01*
X123903930Y-66475208D01*
X123842923Y-66444704D01*
X123812419Y-66383697D01*
X123812419Y-66322689D01*
X123842923Y-66261682D01*
X123903930Y-66231178D01*
X124056449Y-66231178D01*
X124117456Y-66200674D01*
G04 #@! TO.C,J5*
X133865391Y-86013624D02*
X134436837Y-86013624D01*
X134551126Y-86051721D01*
X134627319Y-86127913D01*
X134665415Y-86242202D01*
X134665415Y-86318395D01*
X133865391Y-85251697D02*
X133865391Y-85632660D01*
X134246355Y-85670757D01*
X134208259Y-85632660D01*
X134170162Y-85556468D01*
X134170162Y-85365986D01*
X134208259Y-85289793D01*
X134246355Y-85251697D01*
X134322548Y-85213600D01*
X134513030Y-85213600D01*
X134589222Y-85251697D01*
X134627319Y-85289793D01*
X134665415Y-85365986D01*
X134665415Y-85556468D01*
X134627319Y-85632660D01*
X134589222Y-85670757D01*
X121097589Y-88139667D02*
X121189100Y-88170171D01*
X121219604Y-88200674D01*
X121250107Y-88261682D01*
X121250107Y-88353193D01*
X121219604Y-88414200D01*
X121189100Y-88444704D01*
X121128092Y-88475208D01*
X120884063Y-88475208D01*
X120884063Y-87834630D01*
X121097589Y-87834630D01*
X121158596Y-87865134D01*
X121189100Y-87895637D01*
X121219604Y-87956645D01*
X121219604Y-88017652D01*
X121189100Y-88078660D01*
X121158596Y-88109163D01*
X121097589Y-88139667D01*
X120884063Y-88139667D01*
X121799174Y-88475208D02*
X121799174Y-88139667D01*
X121768670Y-88078660D01*
X121707663Y-88048156D01*
X121585648Y-88048156D01*
X121524641Y-88078660D01*
X121799174Y-88444704D02*
X121738167Y-88475208D01*
X121585648Y-88475208D01*
X121524641Y-88444704D01*
X121494137Y-88383697D01*
X121494137Y-88322689D01*
X121524641Y-88261682D01*
X121585648Y-88231178D01*
X121738167Y-88231178D01*
X121799174Y-88200674D01*
X122104211Y-88048156D02*
X122104211Y-88475208D01*
X122104211Y-88109163D02*
X122134715Y-88078660D01*
X122195722Y-88048156D01*
X122287234Y-88048156D01*
X122348241Y-88078660D01*
X122378745Y-88139667D01*
X122378745Y-88475208D01*
X122958315Y-88475208D02*
X122958315Y-88139667D01*
X122927812Y-88078660D01*
X122866804Y-88048156D01*
X122744789Y-88048156D01*
X122683782Y-88078660D01*
X122958315Y-88444704D02*
X122897308Y-88475208D01*
X122744789Y-88475208D01*
X122683782Y-88444704D01*
X122653278Y-88383697D01*
X122653278Y-88322689D01*
X122683782Y-88261682D01*
X122744789Y-88231178D01*
X122897308Y-88231178D01*
X122958315Y-88200674D01*
X123263352Y-88048156D02*
X123263352Y-88475208D01*
X123263352Y-88109163D02*
X123293856Y-88078660D01*
X123354864Y-88048156D01*
X123446375Y-88048156D01*
X123507382Y-88078660D01*
X123537886Y-88139667D01*
X123537886Y-88475208D01*
X124117456Y-88475208D02*
X124117456Y-88139667D01*
X124086953Y-88078660D01*
X124025945Y-88048156D01*
X123903930Y-88048156D01*
X123842923Y-88078660D01*
X124117456Y-88444704D02*
X124056449Y-88475208D01*
X123903930Y-88475208D01*
X123842923Y-88444704D01*
X123812419Y-88383697D01*
X123812419Y-88322689D01*
X123842923Y-88261682D01*
X123903930Y-88231178D01*
X124056449Y-88231178D01*
X124117456Y-88200674D01*
G04 #@! TO.C,R1*
D15*
X137863333Y-90982380D02*
X137530000Y-90506190D01*
X137291904Y-90982380D02*
X137291904Y-89982380D01*
X137672857Y-89982380D01*
X137768095Y-90030000D01*
X137815714Y-90077619D01*
X137863333Y-90172857D01*
X137863333Y-90315714D01*
X137815714Y-90410952D01*
X137768095Y-90458571D01*
X137672857Y-90506190D01*
X137291904Y-90506190D01*
X138815714Y-90982380D02*
X138244285Y-90982380D01*
X138530000Y-90982380D02*
X138530000Y-89982380D01*
X138434761Y-90125238D01*
X138339523Y-90220476D01*
X138244285Y-90268095D01*
G04 #@! TO.C,R2*
X137322380Y-73476666D02*
X136846190Y-73810000D01*
X137322380Y-74048095D02*
X136322380Y-74048095D01*
X136322380Y-73667142D01*
X136370000Y-73571904D01*
X136417619Y-73524285D01*
X136512857Y-73476666D01*
X136655714Y-73476666D01*
X136750952Y-73524285D01*
X136798571Y-73571904D01*
X136846190Y-73667142D01*
X136846190Y-74048095D01*
X136417619Y-73095714D02*
X136370000Y-73048095D01*
X136322380Y-72952857D01*
X136322380Y-72714761D01*
X136370000Y-72619523D01*
X136417619Y-72571904D01*
X136512857Y-72524285D01*
X136608095Y-72524285D01*
X136750952Y-72571904D01*
X137322380Y-73143333D01*
X137322380Y-72524285D01*
G04 #@! TO.C,R3*
X140722380Y-62476666D02*
X140246190Y-62810000D01*
X140722380Y-63048095D02*
X139722380Y-63048095D01*
X139722380Y-62667142D01*
X139770000Y-62571904D01*
X139817619Y-62524285D01*
X139912857Y-62476666D01*
X140055714Y-62476666D01*
X140150952Y-62524285D01*
X140198571Y-62571904D01*
X140246190Y-62667142D01*
X140246190Y-63048095D01*
X139722380Y-62143333D02*
X139722380Y-61524285D01*
X140103333Y-61857619D01*
X140103333Y-61714761D01*
X140150952Y-61619523D01*
X140198571Y-61571904D01*
X140293809Y-61524285D01*
X140531904Y-61524285D01*
X140627142Y-61571904D01*
X140674761Y-61619523D01*
X140722380Y-61714761D01*
X140722380Y-62000476D01*
X140674761Y-62095714D01*
X140627142Y-62143333D01*
G04 #@! TO.C,R4*
X163572380Y-62976666D02*
X163096190Y-63310000D01*
X163572380Y-63548095D02*
X162572380Y-63548095D01*
X162572380Y-63167142D01*
X162620000Y-63071904D01*
X162667619Y-63024285D01*
X162762857Y-62976666D01*
X162905714Y-62976666D01*
X163000952Y-63024285D01*
X163048571Y-63071904D01*
X163096190Y-63167142D01*
X163096190Y-63548095D01*
X162905714Y-62119523D02*
X163572380Y-62119523D01*
X162524761Y-62357619D02*
X163239047Y-62595714D01*
X163239047Y-61976666D01*
G04 #@! TO.C,R5*
X163452380Y-52166666D02*
X162976190Y-52500000D01*
X163452380Y-52738095D02*
X162452380Y-52738095D01*
X162452380Y-52357142D01*
X162500000Y-52261904D01*
X162547619Y-52214285D01*
X162642857Y-52166666D01*
X162785714Y-52166666D01*
X162880952Y-52214285D01*
X162928571Y-52261904D01*
X162976190Y-52357142D01*
X162976190Y-52738095D01*
X162452380Y-51261904D02*
X162452380Y-51738095D01*
X162928571Y-51785714D01*
X162880952Y-51738095D01*
X162833333Y-51642857D01*
X162833333Y-51404761D01*
X162880952Y-51309523D01*
X162928571Y-51261904D01*
X163023809Y-51214285D01*
X163261904Y-51214285D01*
X163357142Y-51261904D01*
X163404761Y-51309523D01*
X163452380Y-51404761D01*
X163452380Y-51642857D01*
X163404761Y-51738095D01*
X163357142Y-51785714D01*
G04 #@! TO.C,R6*
X170833333Y-45452380D02*
X170500000Y-44976190D01*
X170261904Y-45452380D02*
X170261904Y-44452380D01*
X170642857Y-44452380D01*
X170738095Y-44500000D01*
X170785714Y-44547619D01*
X170833333Y-44642857D01*
X170833333Y-44785714D01*
X170785714Y-44880952D01*
X170738095Y-44928571D01*
X170642857Y-44976190D01*
X170261904Y-44976190D01*
X171690476Y-44452380D02*
X171500000Y-44452380D01*
X171404761Y-44500000D01*
X171357142Y-44547619D01*
X171261904Y-44690476D01*
X171214285Y-44880952D01*
X171214285Y-45261904D01*
X171261904Y-45357142D01*
X171309523Y-45404761D01*
X171404761Y-45452380D01*
X171595238Y-45452380D01*
X171690476Y-45404761D01*
X171738095Y-45357142D01*
X171785714Y-45261904D01*
X171785714Y-45023809D01*
X171738095Y-44928571D01*
X171690476Y-44880952D01*
X171595238Y-44833333D01*
X171404761Y-44833333D01*
X171309523Y-44880952D01*
X171261904Y-44928571D01*
X171214285Y-45023809D01*
G04 #@! TO.C,R7*
X154523333Y-88762380D02*
X154190000Y-88286190D01*
X153951904Y-88762380D02*
X153951904Y-87762380D01*
X154332857Y-87762380D01*
X154428095Y-87810000D01*
X154475714Y-87857619D01*
X154523333Y-87952857D01*
X154523333Y-88095714D01*
X154475714Y-88190952D01*
X154428095Y-88238571D01*
X154332857Y-88286190D01*
X153951904Y-88286190D01*
X154856666Y-87762380D02*
X155523333Y-87762380D01*
X155094761Y-88762380D01*
G04 #@! TO.C,R8*
X144452380Y-86166666D02*
X143976190Y-86500000D01*
X144452380Y-86738095D02*
X143452380Y-86738095D01*
X143452380Y-86357142D01*
X143500000Y-86261904D01*
X143547619Y-86214285D01*
X143642857Y-86166666D01*
X143785714Y-86166666D01*
X143880952Y-86214285D01*
X143928571Y-86261904D01*
X143976190Y-86357142D01*
X143976190Y-86738095D01*
X143880952Y-85595238D02*
X143833333Y-85690476D01*
X143785714Y-85738095D01*
X143690476Y-85785714D01*
X143642857Y-85785714D01*
X143547619Y-85738095D01*
X143500000Y-85690476D01*
X143452380Y-85595238D01*
X143452380Y-85404761D01*
X143500000Y-85309523D01*
X143547619Y-85261904D01*
X143642857Y-85214285D01*
X143690476Y-85214285D01*
X143785714Y-85261904D01*
X143833333Y-85309523D01*
X143880952Y-85404761D01*
X143880952Y-85595238D01*
X143928571Y-85690476D01*
X143976190Y-85738095D01*
X144071428Y-85785714D01*
X144261904Y-85785714D01*
X144357142Y-85738095D01*
X144404761Y-85690476D01*
X144452380Y-85595238D01*
X144452380Y-85404761D01*
X144404761Y-85309523D01*
X144357142Y-85261904D01*
X144261904Y-85214285D01*
X144071428Y-85214285D01*
X143976190Y-85261904D01*
X143928571Y-85309523D01*
X143880952Y-85404761D01*
G04 #@! TO.C,R9*
X167006422Y-84777040D02*
X166673089Y-84300850D01*
X166434993Y-84777040D02*
X166434993Y-83777040D01*
X166815946Y-83777040D01*
X166911184Y-83824660D01*
X166958803Y-83872279D01*
X167006422Y-83967517D01*
X167006422Y-84110374D01*
X166958803Y-84205612D01*
X166911184Y-84253231D01*
X166815946Y-84300850D01*
X166434993Y-84300850D01*
X167482612Y-84777040D02*
X167673089Y-84777040D01*
X167768327Y-84729421D01*
X167815946Y-84681802D01*
X167911184Y-84538945D01*
X167958803Y-84348469D01*
X167958803Y-83967517D01*
X167911184Y-83872279D01*
X167863565Y-83824660D01*
X167768327Y-83777040D01*
X167577850Y-83777040D01*
X167482612Y-83824660D01*
X167434993Y-83872279D01*
X167387374Y-83967517D01*
X167387374Y-84205612D01*
X167434993Y-84300850D01*
X167482612Y-84348469D01*
X167577850Y-84396088D01*
X167768327Y-84396088D01*
X167863565Y-84348469D01*
X167911184Y-84300850D01*
X167958803Y-84205612D01*
G04 #@! TO.C,R10*
X161357142Y-82452380D02*
X161023809Y-81976190D01*
X160785714Y-82452380D02*
X160785714Y-81452380D01*
X161166666Y-81452380D01*
X161261904Y-81500000D01*
X161309523Y-81547619D01*
X161357142Y-81642857D01*
X161357142Y-81785714D01*
X161309523Y-81880952D01*
X161261904Y-81928571D01*
X161166666Y-81976190D01*
X160785714Y-81976190D01*
X162309523Y-82452380D02*
X161738095Y-82452380D01*
X162023809Y-82452380D02*
X162023809Y-81452380D01*
X161928571Y-81595238D01*
X161833333Y-81690476D01*
X161738095Y-81738095D01*
X162928571Y-81452380D02*
X163023809Y-81452380D01*
X163119047Y-81500000D01*
X163166666Y-81547619D01*
X163214285Y-81642857D01*
X163261904Y-81833333D01*
X163261904Y-82071428D01*
X163214285Y-82261904D01*
X163166666Y-82357142D01*
X163119047Y-82404761D01*
X163023809Y-82452380D01*
X162928571Y-82452380D01*
X162833333Y-82404761D01*
X162785714Y-82357142D01*
X162738095Y-82261904D01*
X162690476Y-82071428D01*
X162690476Y-81833333D01*
X162738095Y-81642857D01*
X162785714Y-81547619D01*
X162833333Y-81500000D01*
X162928571Y-81452380D01*
G04 #@! TO.C,U1*
D16*
X151724605Y-52037015D02*
X151724605Y-53368609D01*
X151802934Y-53525267D01*
X151881263Y-53603596D01*
X152037921Y-53681925D01*
X152351237Y-53681925D01*
X152507895Y-53603596D01*
X152586224Y-53525267D01*
X152664553Y-53368609D01*
X152664553Y-52037015D01*
X154309463Y-53681925D02*
X153369515Y-53681925D01*
X153839489Y-53681925D02*
X153839489Y-52037015D01*
X153682831Y-52272003D01*
X153526173Y-52428661D01*
X153369515Y-52506990D01*
G04 #@! TO.C,U2*
X154749645Y-85101307D02*
X154749645Y-86429809D01*
X154827792Y-86586103D01*
X154905940Y-86664250D01*
X155062234Y-86742397D01*
X155374822Y-86742397D01*
X155531117Y-86664250D01*
X155609264Y-86586103D01*
X155687411Y-86429809D01*
X155687411Y-85101307D01*
X156390735Y-85257602D02*
X156468882Y-85179455D01*
X156625177Y-85101307D01*
X157015912Y-85101307D01*
X157172207Y-85179455D01*
X157250354Y-85257602D01*
X157328501Y-85413896D01*
X157328501Y-85570190D01*
X157250354Y-85804632D01*
X156312588Y-86742397D01*
X157328501Y-86742397D01*
G04 #@! TO.C,J2*
D15*
X137882380Y-96798333D02*
X138596666Y-96798333D01*
X138739523Y-96845952D01*
X138834761Y-96941190D01*
X138882380Y-97084047D01*
X138882380Y-97179285D01*
X137977619Y-96369761D02*
X137930000Y-96322142D01*
X137882380Y-96226904D01*
X137882380Y-95988809D01*
X137930000Y-95893571D01*
X137977619Y-95845952D01*
X138072857Y-95798333D01*
X138168095Y-95798333D01*
X138310952Y-95845952D01*
X138882380Y-96417380D01*
X138882380Y-95798333D01*
G04 #@! TO.C,J3*
X162392380Y-43083333D02*
X163106666Y-43083333D01*
X163249523Y-43130952D01*
X163344761Y-43226190D01*
X163392380Y-43369047D01*
X163392380Y-43464285D01*
X162392380Y-42702380D02*
X162392380Y-42083333D01*
X162773333Y-42416666D01*
X162773333Y-42273809D01*
X162820952Y-42178571D01*
X162868571Y-42130952D01*
X162963809Y-42083333D01*
X163201904Y-42083333D01*
X163297142Y-42130952D01*
X163344761Y-42178571D01*
X163392380Y-42273809D01*
X163392380Y-42559523D01*
X163344761Y-42654761D01*
X163297142Y-42702380D01*
G04 #@! TO.C,J6*
X126662380Y-96798333D02*
X127376666Y-96798333D01*
X127519523Y-96845952D01*
X127614761Y-96941190D01*
X127662380Y-97084047D01*
X127662380Y-97179285D01*
X126662380Y-95893571D02*
X126662380Y-96084047D01*
X126710000Y-96179285D01*
X126757619Y-96226904D01*
X126900476Y-96322142D01*
X127090952Y-96369761D01*
X127471904Y-96369761D01*
X127567142Y-96322142D01*
X127614761Y-96274523D01*
X127662380Y-96179285D01*
X127662380Y-95988809D01*
X127614761Y-95893571D01*
X127567142Y-95845952D01*
X127471904Y-95798333D01*
X127233809Y-95798333D01*
X127138571Y-95845952D01*
X127090952Y-95893571D01*
X127043333Y-95988809D01*
X127043333Y-96179285D01*
X127090952Y-96274523D01*
X127138571Y-96322142D01*
X127233809Y-96369761D01*
G04 #@! TO.C,JP1*
X159916666Y-75962380D02*
X159916666Y-76676666D01*
X159869047Y-76819523D01*
X159773809Y-76914761D01*
X159630952Y-76962380D01*
X159535714Y-76962380D01*
X160392857Y-76962380D02*
X160392857Y-75962380D01*
X160773809Y-75962380D01*
X160869047Y-76010000D01*
X160916666Y-76057619D01*
X160964285Y-76152857D01*
X160964285Y-76295714D01*
X160916666Y-76390952D01*
X160869047Y-76438571D01*
X160773809Y-76486190D01*
X160392857Y-76486190D01*
X161916666Y-76962380D02*
X161345238Y-76962380D01*
X161630952Y-76962380D02*
X161630952Y-75962380D01*
X161535714Y-76105238D01*
X161440476Y-76200476D01*
X161345238Y-76248095D01*
G04 #@! TD*
M02*
