G04 #@! TF.GenerationSoftware,KiCad,Pcbnew,(5.0.2)-1*
G04 #@! TF.CreationDate,2019-03-08T12:48:48+01:00*
G04 #@! TF.ProjectId,ECG_final,4543475f-6669-46e6-916c-2e6b69636164,rev?*
G04 #@! TF.SameCoordinates,Original*
G04 #@! TF.FileFunction,Legend,Bot*
G04 #@! TF.FilePolarity,Positive*
%FSLAX46Y46*%
G04 Gerber Fmt 4.6, Leading zero omitted, Abs format (unit mm)*
G04 Created by KiCad (PCBNEW (5.0.2)-1) date 08/03/2019 12:48:48*
%MOMM*%
%LPD*%
G01*
G04 APERTURE LIST*
%ADD10C,0.300000*%
%ADD11C,0.010000*%
G04 APERTURE END LIST*
D10*
X153607142Y-50892857D02*
X153107142Y-50892857D01*
X152892857Y-51678571D02*
X153607142Y-51678571D01*
X153607142Y-50178571D01*
X152892857Y-50178571D01*
X152035714Y-51678571D02*
X152178571Y-51607142D01*
X152250000Y-51464285D01*
X152250000Y-50178571D01*
X150892857Y-51607142D02*
X151035714Y-51678571D01*
X151321428Y-51678571D01*
X151464285Y-51607142D01*
X151535714Y-51464285D01*
X151535714Y-50892857D01*
X151464285Y-50750000D01*
X151321428Y-50678571D01*
X151035714Y-50678571D01*
X150892857Y-50750000D01*
X150821428Y-50892857D01*
X150821428Y-51035714D01*
X151535714Y-51178571D01*
X149535714Y-51607142D02*
X149678571Y-51678571D01*
X149964285Y-51678571D01*
X150107142Y-51607142D01*
X150178571Y-51535714D01*
X150250000Y-51392857D01*
X150250000Y-50964285D01*
X150178571Y-50821428D01*
X150107142Y-50750000D01*
X149964285Y-50678571D01*
X149678571Y-50678571D01*
X149535714Y-50750000D01*
X149107142Y-50678571D02*
X148535714Y-50678571D01*
X148892857Y-50178571D02*
X148892857Y-51464285D01*
X148821428Y-51607142D01*
X148678571Y-51678571D01*
X148535714Y-51678571D01*
X148035714Y-51678571D02*
X148035714Y-50678571D01*
X148035714Y-50964285D02*
X147964285Y-50821428D01*
X147892857Y-50750000D01*
X147750000Y-50678571D01*
X147607142Y-50678571D01*
X146892857Y-51678571D02*
X147035714Y-51607142D01*
X147107142Y-51535714D01*
X147178571Y-51392857D01*
X147178571Y-50964285D01*
X147107142Y-50821428D01*
X147035714Y-50750000D01*
X146892857Y-50678571D01*
X146678571Y-50678571D01*
X146535714Y-50750000D01*
X146464285Y-50821428D01*
X146392857Y-50964285D01*
X146392857Y-51392857D01*
X146464285Y-51535714D01*
X146535714Y-51607142D01*
X146678571Y-51678571D01*
X146892857Y-51678571D01*
X145750000Y-51678571D02*
X145750000Y-50678571D01*
X145750000Y-50821428D02*
X145678571Y-50750000D01*
X145535714Y-50678571D01*
X145321428Y-50678571D01*
X145178571Y-50750000D01*
X145107142Y-50892857D01*
X145107142Y-51678571D01*
X145107142Y-50892857D02*
X145035714Y-50750000D01*
X144892857Y-50678571D01*
X144678571Y-50678571D01*
X144535714Y-50750000D01*
X144464285Y-50892857D01*
X144464285Y-51678571D01*
X143178571Y-51607142D02*
X143321428Y-51678571D01*
X143607142Y-51678571D01*
X143750000Y-51607142D01*
X143821428Y-51464285D01*
X143821428Y-50892857D01*
X143750000Y-50750000D01*
X143607142Y-50678571D01*
X143321428Y-50678571D01*
X143178571Y-50750000D01*
X143107142Y-50892857D01*
X143107142Y-51035714D01*
X143821428Y-51178571D01*
X141821428Y-51678571D02*
X141821428Y-50178571D01*
X141821428Y-51607142D02*
X141964285Y-51678571D01*
X142250000Y-51678571D01*
X142392857Y-51607142D01*
X142464285Y-51535714D01*
X142535714Y-51392857D01*
X142535714Y-50964285D01*
X142464285Y-50821428D01*
X142392857Y-50750000D01*
X142250000Y-50678571D01*
X141964285Y-50678571D01*
X141821428Y-50750000D01*
X141107142Y-51678571D02*
X141107142Y-50678571D01*
X141107142Y-50178571D02*
X141178571Y-50250000D01*
X141107142Y-50321428D01*
X141035714Y-50250000D01*
X141107142Y-50178571D01*
X141107142Y-50321428D01*
X139750000Y-51607142D02*
X139892857Y-51678571D01*
X140178571Y-51678571D01*
X140321428Y-51607142D01*
X140392857Y-51535714D01*
X140464285Y-51392857D01*
X140464285Y-50964285D01*
X140392857Y-50821428D01*
X140321428Y-50750000D01*
X140178571Y-50678571D01*
X139892857Y-50678571D01*
X139750000Y-50750000D01*
X139107142Y-51678571D02*
X139107142Y-50678571D01*
X139107142Y-50178571D02*
X139178571Y-50250000D01*
X139107142Y-50321428D01*
X139035714Y-50250000D01*
X139107142Y-50178571D01*
X139107142Y-50321428D01*
X138392857Y-50678571D02*
X138392857Y-51678571D01*
X138392857Y-50821428D02*
X138321428Y-50750000D01*
X138178571Y-50678571D01*
X137964285Y-50678571D01*
X137821428Y-50750000D01*
X137750000Y-50892857D01*
X137750000Y-51678571D01*
X136392857Y-51678571D02*
X136392857Y-50892857D01*
X136464285Y-50750000D01*
X136607142Y-50678571D01*
X136892857Y-50678571D01*
X137035714Y-50750000D01*
X136392857Y-51607142D02*
X136535714Y-51678571D01*
X136892857Y-51678571D01*
X137035714Y-51607142D01*
X137107142Y-51464285D01*
X137107142Y-51321428D01*
X137035714Y-51178571D01*
X136892857Y-51107142D01*
X136535714Y-51107142D01*
X136392857Y-51035714D01*
D11*
G04 #@! TO.C,G\002A\002A\002A*
G36*
X116608259Y-58308021D02*
X116484027Y-58521328D01*
X116336401Y-58863483D01*
X116316056Y-58916696D01*
X116185241Y-59280433D01*
X116117313Y-59521784D01*
X116105802Y-59672840D01*
X116144237Y-59765691D01*
X116144741Y-59766301D01*
X116206322Y-59836570D01*
X116269396Y-59869024D01*
X116366598Y-59855354D01*
X116530563Y-59787254D01*
X116793923Y-59656416D01*
X117009834Y-59546076D01*
X117304634Y-59386924D01*
X117530812Y-59248758D01*
X117541318Y-59240609D01*
X116847828Y-59240609D01*
X116750689Y-59333381D01*
X116714318Y-59354416D01*
X116518863Y-59447647D01*
X116444127Y-59432960D01*
X116474908Y-59303429D01*
X116496073Y-59255000D01*
X116596240Y-59082733D01*
X116694025Y-59060085D01*
X116803218Y-59145750D01*
X116847828Y-59240609D01*
X117541318Y-59240609D01*
X117653608Y-59153512D01*
X117666000Y-59131972D01*
X117601630Y-59015026D01*
X117445193Y-58997837D01*
X117338132Y-59037554D01*
X117139503Y-59061662D01*
X116947147Y-58959488D01*
X116804597Y-58769932D01*
X116755384Y-58531897D01*
X116756296Y-58517597D01*
X116752822Y-58298514D01*
X116700667Y-58231203D01*
X116608259Y-58308021D01*
X116608259Y-58308021D01*
G37*
X116608259Y-58308021D02*
X116484027Y-58521328D01*
X116336401Y-58863483D01*
X116316056Y-58916696D01*
X116185241Y-59280433D01*
X116117313Y-59521784D01*
X116105802Y-59672840D01*
X116144237Y-59765691D01*
X116144741Y-59766301D01*
X116206322Y-59836570D01*
X116269396Y-59869024D01*
X116366598Y-59855354D01*
X116530563Y-59787254D01*
X116793923Y-59656416D01*
X117009834Y-59546076D01*
X117304634Y-59386924D01*
X117530812Y-59248758D01*
X117541318Y-59240609D01*
X116847828Y-59240609D01*
X116750689Y-59333381D01*
X116714318Y-59354416D01*
X116518863Y-59447647D01*
X116444127Y-59432960D01*
X116474908Y-59303429D01*
X116496073Y-59255000D01*
X116596240Y-59082733D01*
X116694025Y-59060085D01*
X116803218Y-59145750D01*
X116847828Y-59240609D01*
X117541318Y-59240609D01*
X117653608Y-59153512D01*
X117666000Y-59131972D01*
X117601630Y-59015026D01*
X117445193Y-58997837D01*
X117338132Y-59037554D01*
X117139503Y-59061662D01*
X116947147Y-58959488D01*
X116804597Y-58769932D01*
X116755384Y-58531897D01*
X116756296Y-58517597D01*
X116752822Y-58298514D01*
X116700667Y-58231203D01*
X116608259Y-58308021D01*
G36*
X132186611Y-51520689D02*
X131784167Y-51527069D01*
X130408334Y-51550333D01*
X130366000Y-54683000D01*
X130354373Y-55398865D01*
X130339822Y-56064033D01*
X130323062Y-56658848D01*
X130304807Y-57163656D01*
X130285770Y-57558803D01*
X130266667Y-57824634D01*
X130248210Y-57941494D01*
X130247572Y-57942666D01*
X129988475Y-58263571D01*
X129656222Y-58518712D01*
X129302982Y-58673782D01*
X129088837Y-58704666D01*
X128806859Y-58653265D01*
X128445152Y-58514531D01*
X128052265Y-58311667D01*
X127676746Y-58067879D01*
X127546415Y-57967475D01*
X127055163Y-57567686D01*
X127080748Y-54962976D01*
X127106334Y-52358266D01*
X127329202Y-52135522D01*
X127619909Y-51944545D01*
X127943035Y-51868711D01*
X128190617Y-51826329D01*
X128307822Y-51759047D01*
X128334000Y-51664172D01*
X128324733Y-51603886D01*
X128280603Y-51561634D01*
X128177121Y-51534897D01*
X127989799Y-51521156D01*
X127694145Y-51517892D01*
X127265671Y-51522586D01*
X127000500Y-51527016D01*
X125667000Y-51550333D01*
X125624667Y-54864722D01*
X125613619Y-55702663D01*
X125603307Y-56387799D01*
X125592733Y-56936647D01*
X125580898Y-57365725D01*
X125566804Y-57691553D01*
X125549452Y-57930649D01*
X125527845Y-58099531D01*
X125500983Y-58214717D01*
X125467868Y-58292726D01*
X125427501Y-58350077D01*
X125413000Y-58366641D01*
X125287191Y-58477056D01*
X125135439Y-58522734D01*
X124896746Y-58517778D01*
X124799167Y-58508536D01*
X124538514Y-58488973D01*
X124404872Y-58505952D01*
X124358085Y-58569016D01*
X124354667Y-58614160D01*
X124394973Y-58693116D01*
X124527841Y-58791618D01*
X124771193Y-58919351D01*
X125142956Y-59085999D01*
X125518834Y-59243173D01*
X125944206Y-59412620D01*
X126326922Y-59555606D01*
X126633798Y-59660429D01*
X126831648Y-59715391D01*
X126873500Y-59720796D01*
X126961500Y-59712532D01*
X127017146Y-59666867D01*
X127047839Y-59552273D01*
X127060979Y-59337221D01*
X127063969Y-58990184D01*
X127064000Y-58909264D01*
X127064000Y-58097862D01*
X127715165Y-58697870D01*
X128032347Y-58974208D01*
X128350147Y-59224256D01*
X128621337Y-59411985D01*
X128736605Y-59477125D01*
X129104419Y-59602994D01*
X129540347Y-59675645D01*
X129976875Y-59689670D01*
X130346492Y-59639660D01*
X130430442Y-59612821D01*
X130926978Y-59336874D01*
X131317163Y-58931402D01*
X131595051Y-58403239D01*
X131662971Y-58196666D01*
X131685038Y-58041463D01*
X131708054Y-57739627D01*
X131731023Y-57313850D01*
X131752953Y-56786820D01*
X131772849Y-56181228D01*
X131789718Y-55519763D01*
X131797706Y-55120403D01*
X131847667Y-52340473D01*
X132124170Y-52093570D01*
X132367548Y-51920278D01*
X132629259Y-51852557D01*
X132780336Y-51846666D01*
X133017661Y-51835660D01*
X133129709Y-51789594D01*
X133159826Y-51688895D01*
X133160000Y-51675236D01*
X133153132Y-51611707D01*
X133116391Y-51566763D01*
X133025573Y-51537795D01*
X132856473Y-51522198D01*
X132584888Y-51517365D01*
X132186611Y-51520689D01*
X132186611Y-51520689D01*
G37*
X132186611Y-51520689D02*
X131784167Y-51527069D01*
X130408334Y-51550333D01*
X130366000Y-54683000D01*
X130354373Y-55398865D01*
X130339822Y-56064033D01*
X130323062Y-56658848D01*
X130304807Y-57163656D01*
X130285770Y-57558803D01*
X130266667Y-57824634D01*
X130248210Y-57941494D01*
X130247572Y-57942666D01*
X129988475Y-58263571D01*
X129656222Y-58518712D01*
X129302982Y-58673782D01*
X129088837Y-58704666D01*
X128806859Y-58653265D01*
X128445152Y-58514531D01*
X128052265Y-58311667D01*
X127676746Y-58067879D01*
X127546415Y-57967475D01*
X127055163Y-57567686D01*
X127080748Y-54962976D01*
X127106334Y-52358266D01*
X127329202Y-52135522D01*
X127619909Y-51944545D01*
X127943035Y-51868711D01*
X128190617Y-51826329D01*
X128307822Y-51759047D01*
X128334000Y-51664172D01*
X128324733Y-51603886D01*
X128280603Y-51561634D01*
X128177121Y-51534897D01*
X127989799Y-51521156D01*
X127694145Y-51517892D01*
X127265671Y-51522586D01*
X127000500Y-51527016D01*
X125667000Y-51550333D01*
X125624667Y-54864722D01*
X125613619Y-55702663D01*
X125603307Y-56387799D01*
X125592733Y-56936647D01*
X125580898Y-57365725D01*
X125566804Y-57691553D01*
X125549452Y-57930649D01*
X125527845Y-58099531D01*
X125500983Y-58214717D01*
X125467868Y-58292726D01*
X125427501Y-58350077D01*
X125413000Y-58366641D01*
X125287191Y-58477056D01*
X125135439Y-58522734D01*
X124896746Y-58517778D01*
X124799167Y-58508536D01*
X124538514Y-58488973D01*
X124404872Y-58505952D01*
X124358085Y-58569016D01*
X124354667Y-58614160D01*
X124394973Y-58693116D01*
X124527841Y-58791618D01*
X124771193Y-58919351D01*
X125142956Y-59085999D01*
X125518834Y-59243173D01*
X125944206Y-59412620D01*
X126326922Y-59555606D01*
X126633798Y-59660429D01*
X126831648Y-59715391D01*
X126873500Y-59720796D01*
X126961500Y-59712532D01*
X127017146Y-59666867D01*
X127047839Y-59552273D01*
X127060979Y-59337221D01*
X127063969Y-58990184D01*
X127064000Y-58909264D01*
X127064000Y-58097862D01*
X127715165Y-58697870D01*
X128032347Y-58974208D01*
X128350147Y-59224256D01*
X128621337Y-59411985D01*
X128736605Y-59477125D01*
X129104419Y-59602994D01*
X129540347Y-59675645D01*
X129976875Y-59689670D01*
X130346492Y-59639660D01*
X130430442Y-59612821D01*
X130926978Y-59336874D01*
X131317163Y-58931402D01*
X131595051Y-58403239D01*
X131662971Y-58196666D01*
X131685038Y-58041463D01*
X131708054Y-57739627D01*
X131731023Y-57313850D01*
X131752953Y-56786820D01*
X131772849Y-56181228D01*
X131789718Y-55519763D01*
X131797706Y-55120403D01*
X131847667Y-52340473D01*
X132124170Y-52093570D01*
X132367548Y-51920278D01*
X132629259Y-51852557D01*
X132780336Y-51846666D01*
X133017661Y-51835660D01*
X133129709Y-51789594D01*
X133159826Y-51688895D01*
X133160000Y-51675236D01*
X133153132Y-51611707D01*
X133116391Y-51566763D01*
X133025573Y-51537795D01*
X132856473Y-51522198D01*
X132584888Y-51517365D01*
X132186611Y-51520689D01*
G36*
X123358697Y-58028876D02*
X123300516Y-58197465D01*
X123287677Y-58237957D01*
X123239359Y-58434045D01*
X123266798Y-58527064D01*
X123346299Y-58561861D01*
X123440346Y-58563714D01*
X123466903Y-58473855D01*
X123446781Y-58292768D01*
X123413154Y-58088256D01*
X123390497Y-57975181D01*
X123388159Y-57968864D01*
X123358697Y-58028876D01*
X123358697Y-58028876D01*
G37*
X123358697Y-58028876D02*
X123300516Y-58197465D01*
X123287677Y-58237957D01*
X123239359Y-58434045D01*
X123266798Y-58527064D01*
X123346299Y-58561861D01*
X123440346Y-58563714D01*
X123466903Y-58473855D01*
X123446781Y-58292768D01*
X123413154Y-58088256D01*
X123390497Y-57975181D01*
X123388159Y-57968864D01*
X123358697Y-58028876D01*
G36*
X122242147Y-58455272D02*
X122234770Y-58491922D01*
X122311718Y-58547403D01*
X122496472Y-58575709D01*
X122535959Y-58576589D01*
X122722499Y-58570229D01*
X122762549Y-58538278D01*
X122684617Y-58468637D01*
X122514023Y-58395789D01*
X122344241Y-58392488D01*
X122242147Y-58455272D01*
X122242147Y-58455272D01*
G37*
X122242147Y-58455272D02*
X122234770Y-58491922D01*
X122311718Y-58547403D01*
X122496472Y-58575709D01*
X122535959Y-58576589D01*
X122722499Y-58570229D01*
X122762549Y-58538278D01*
X122684617Y-58468637D01*
X122514023Y-58395789D01*
X122344241Y-58392488D01*
X122242147Y-58455272D01*
G36*
X121842889Y-58563555D02*
X121854512Y-58613889D01*
X121899334Y-58620000D01*
X121969024Y-58589021D01*
X121955778Y-58563555D01*
X121855299Y-58553422D01*
X121842889Y-58563555D01*
X121842889Y-58563555D01*
G37*
X121842889Y-58563555D02*
X121854512Y-58613889D01*
X121899334Y-58620000D01*
X121969024Y-58589021D01*
X121955778Y-58563555D01*
X121855299Y-58553422D01*
X121842889Y-58563555D01*
G36*
X121256211Y-58070090D02*
X121331783Y-58149210D01*
X121458531Y-58318546D01*
X121443384Y-58419229D01*
X121288833Y-58435853D01*
X121285500Y-58435388D01*
X121137755Y-58365542D01*
X121117794Y-58239000D01*
X121120854Y-58142929D01*
X121074366Y-58185541D01*
X121014961Y-58281333D01*
X120910574Y-58486075D01*
X120896590Y-58585929D01*
X120973792Y-58564130D01*
X121002796Y-58541589D01*
X121128753Y-58490409D01*
X121177126Y-58531222D01*
X121310136Y-58609537D01*
X121497088Y-58572011D01*
X121660835Y-58449276D01*
X121742241Y-58306551D01*
X121681463Y-58193178D01*
X121466414Y-58091845D01*
X121395283Y-58068858D01*
X121253708Y-58032039D01*
X121256211Y-58070090D01*
X121256211Y-58070090D01*
G37*
X121256211Y-58070090D02*
X121331783Y-58149210D01*
X121458531Y-58318546D01*
X121443384Y-58419229D01*
X121288833Y-58435853D01*
X121285500Y-58435388D01*
X121137755Y-58365542D01*
X121117794Y-58239000D01*
X121120854Y-58142929D01*
X121074366Y-58185541D01*
X121014961Y-58281333D01*
X120910574Y-58486075D01*
X120896590Y-58585929D01*
X120973792Y-58564130D01*
X121002796Y-58541589D01*
X121128753Y-58490409D01*
X121177126Y-58531222D01*
X121310136Y-58609537D01*
X121497088Y-58572011D01*
X121660835Y-58449276D01*
X121742241Y-58306551D01*
X121681463Y-58193178D01*
X121466414Y-58091845D01*
X121395283Y-58068858D01*
X121253708Y-58032039D01*
X121256211Y-58070090D01*
G36*
X123748848Y-58226958D02*
X123702438Y-58348182D01*
X123700613Y-58366000D01*
X123741712Y-58504470D01*
X123861002Y-58524332D01*
X124008384Y-58417503D01*
X124009745Y-58415871D01*
X124065193Y-58298906D01*
X124007030Y-58233455D01*
X123944846Y-58219348D01*
X123965582Y-58268251D01*
X123970351Y-58355328D01*
X123936331Y-58366000D01*
X123850113Y-58304539D01*
X123846667Y-58281333D01*
X123813783Y-58194902D01*
X123748848Y-58226958D01*
X123748848Y-58226958D01*
G37*
X123748848Y-58226958D02*
X123702438Y-58348182D01*
X123700613Y-58366000D01*
X123741712Y-58504470D01*
X123861002Y-58524332D01*
X124008384Y-58417503D01*
X124009745Y-58415871D01*
X124065193Y-58298906D01*
X124007030Y-58233455D01*
X123944846Y-58219348D01*
X123965582Y-58268251D01*
X123970351Y-58355328D01*
X123936331Y-58366000D01*
X123850113Y-58304539D01*
X123846667Y-58281333D01*
X123813783Y-58194902D01*
X123748848Y-58226958D01*
G36*
X123064783Y-52848880D02*
X122914444Y-52918134D01*
X122756287Y-53023538D01*
X122704198Y-53114430D01*
X122707916Y-53123540D01*
X122814827Y-53156360D01*
X122899305Y-53125478D01*
X122980975Y-53101689D01*
X123026499Y-53162631D01*
X123048382Y-53340443D01*
X123055671Y-53527415D01*
X123092531Y-53886886D01*
X123172519Y-54289317D01*
X123235704Y-54513666D01*
X123318973Y-54812947D01*
X123342921Y-55011203D01*
X123321101Y-55073384D01*
X123313645Y-55139681D01*
X123373902Y-55176560D01*
X123488908Y-55294927D01*
X123508000Y-55380355D01*
X123553677Y-55540501D01*
X123668583Y-55763535D01*
X123726558Y-55854328D01*
X123879053Y-56129500D01*
X123893665Y-56308001D01*
X123768472Y-56394097D01*
X123501553Y-56392055D01*
X123485331Y-56389839D01*
X123200779Y-56344614D01*
X122949904Y-56296595D01*
X122908278Y-56287158D01*
X122743037Y-56273351D01*
X122690130Y-56352958D01*
X122689556Y-56370387D01*
X122743547Y-56467572D01*
X122832825Y-56460315D01*
X122999824Y-56474366D01*
X123064248Y-56522588D01*
X123076834Y-56579594D01*
X122985000Y-56615463D01*
X122764640Y-56635593D01*
X122526058Y-56643107D01*
X122189762Y-56642005D01*
X122004798Y-56619964D01*
X121954168Y-56574439D01*
X121960911Y-56558441D01*
X122001931Y-56394687D01*
X121997732Y-56312833D01*
X122023573Y-56201989D01*
X122174095Y-56164180D01*
X122211512Y-56163370D01*
X122426609Y-56139106D01*
X122557852Y-56093419D01*
X122570258Y-56045372D01*
X122426012Y-56024210D01*
X122388519Y-56023625D01*
X122076840Y-56010854D01*
X121822854Y-55979662D01*
X121670239Y-55936715D01*
X121645334Y-55910217D01*
X121574031Y-55865619D01*
X121476000Y-55849279D01*
X121333127Y-55894402D01*
X121305371Y-55979428D01*
X121291685Y-56074007D01*
X121233169Y-56012419D01*
X121222000Y-55995333D01*
X121156228Y-55911049D01*
X121141227Y-55974079D01*
X121141323Y-55995333D01*
X121204502Y-56215694D01*
X121355367Y-56360198D01*
X121544121Y-56400632D01*
X121711656Y-56318477D01*
X121829810Y-56256815D01*
X121878335Y-56331286D01*
X121856781Y-56431041D01*
X121747497Y-56521588D01*
X121548109Y-56572259D01*
X121541724Y-56572779D01*
X121315608Y-56600968D01*
X121251959Y-56649005D01*
X121343955Y-56732876D01*
X121447349Y-56793893D01*
X121687667Y-56928371D01*
X121349000Y-56874146D01*
X121105368Y-56818953D01*
X120926947Y-56750279D01*
X120902454Y-56734228D01*
X120801877Y-56677557D01*
X120736806Y-56730273D01*
X120676439Y-56920023D01*
X120670855Y-56942092D01*
X120646494Y-57100488D01*
X120704984Y-57139889D01*
X120779297Y-57125597D01*
X120942418Y-57145259D01*
X120996001Y-57216178D01*
X121001074Y-57329309D01*
X120965343Y-57350000D01*
X120885430Y-57285743D01*
X120883334Y-57267148D01*
X120818929Y-57232393D01*
X120678368Y-57277685D01*
X120540987Y-57381429D01*
X120514807Y-57478973D01*
X120498918Y-57611181D01*
X120466742Y-57642166D01*
X120411388Y-57635659D01*
X120424409Y-57574628D01*
X120421615Y-57446223D01*
X120342780Y-57383161D01*
X120249373Y-57433101D01*
X120246895Y-57436994D01*
X120245968Y-57569207D01*
X120343790Y-57694065D01*
X120480489Y-57744945D01*
X120516695Y-57737204D01*
X120547517Y-57765414D01*
X120481979Y-57892126D01*
X120442278Y-57948530D01*
X120322242Y-58147773D01*
X120316213Y-58291390D01*
X120344295Y-58348344D01*
X120491492Y-58480021D01*
X120667287Y-58516520D01*
X120805115Y-58449960D01*
X120830224Y-58405885D01*
X120877158Y-58251798D01*
X120829358Y-58227039D01*
X120714000Y-58281333D01*
X120578258Y-58329269D01*
X120544667Y-58279315D01*
X120487860Y-58226056D01*
X120438834Y-58240281D01*
X120413414Y-58237697D01*
X120497893Y-58160214D01*
X120678218Y-58073458D01*
X120805664Y-58071887D01*
X120985576Y-58072169D01*
X121168325Y-58017095D01*
X121327372Y-57905722D01*
X121355961Y-57742567D01*
X121349239Y-57696978D01*
X121327433Y-57573564D01*
X121041807Y-57573564D01*
X120996223Y-57632222D01*
X120857761Y-57684059D01*
X120762283Y-57613625D01*
X120792175Y-57536398D01*
X120884286Y-57494552D01*
X121028018Y-57492861D01*
X121041807Y-57573564D01*
X121327433Y-57573564D01*
X121310371Y-57477000D01*
X121409530Y-57709833D01*
X121499557Y-57863353D01*
X121586671Y-57939965D01*
X121634103Y-57921853D01*
X121611698Y-57807801D01*
X121515526Y-57489819D01*
X121512086Y-57286615D01*
X121553807Y-57227239D01*
X121636530Y-57230385D01*
X121645334Y-57265333D01*
X121697429Y-57319357D01*
X121733866Y-57305277D01*
X121790198Y-57338840D01*
X121804966Y-57527581D01*
X121801959Y-57596973D01*
X121812215Y-57840499D01*
X121863024Y-58017546D01*
X121882760Y-58044625D01*
X121964599Y-58093736D01*
X121984000Y-58001933D01*
X122053561Y-57881000D01*
X122153334Y-57858000D01*
X122277821Y-57815666D01*
X121899334Y-57815666D01*
X121857000Y-57858000D01*
X121814667Y-57815666D01*
X121857000Y-57773333D01*
X121899334Y-57815666D01*
X122277821Y-57815666D01*
X122280621Y-57814714D01*
X122319737Y-57657651D01*
X122319850Y-57625166D01*
X122317034Y-57392333D01*
X122156639Y-57584653D01*
X122030178Y-57695738D01*
X121947151Y-57697423D01*
X121945967Y-57695623D01*
X121925317Y-57559925D01*
X121942112Y-57339670D01*
X121984899Y-57105479D01*
X122001632Y-57053666D01*
X121476000Y-57053666D01*
X121433667Y-57096000D01*
X121391334Y-57053666D01*
X121433667Y-57011333D01*
X121222000Y-57011333D01*
X121193114Y-57093798D01*
X121184664Y-57096000D01*
X121112378Y-57036671D01*
X121095000Y-57011333D01*
X121101713Y-56933314D01*
X121132337Y-56926666D01*
X121218555Y-56988127D01*
X121222000Y-57011333D01*
X121433667Y-57011333D01*
X121476000Y-57053666D01*
X122001632Y-57053666D01*
X122042227Y-56927969D01*
X122078513Y-56878248D01*
X122112801Y-56918129D01*
X122102212Y-57074396D01*
X122096509Y-57104956D01*
X122075573Y-57286735D01*
X122118287Y-57326617D01*
X122140118Y-57315834D01*
X122231705Y-57188671D01*
X122238000Y-57146458D01*
X122295865Y-57012300D01*
X122407334Y-56884333D01*
X122535499Y-56796187D01*
X122571118Y-56832622D01*
X122510909Y-56974322D01*
X122441031Y-57082636D01*
X122358646Y-57238993D01*
X122356365Y-57327252D01*
X122402879Y-57312302D01*
X122407334Y-57274447D01*
X122450995Y-57206590D01*
X122480685Y-57216006D01*
X122581206Y-57191933D01*
X122713518Y-57074295D01*
X122808565Y-56956875D01*
X122791401Y-56952670D01*
X122724834Y-57001992D01*
X122605687Y-57062578D01*
X122576667Y-57024679D01*
X122643216Y-56917660D01*
X122756218Y-56836531D01*
X122879958Y-56785169D01*
X122878221Y-56833552D01*
X122887978Y-56916947D01*
X122931504Y-56927058D01*
X122943259Y-56976888D01*
X122848580Y-57103187D01*
X122762640Y-57189580D01*
X122596921Y-57355001D01*
X122544395Y-57453389D01*
X122589449Y-57527635D01*
X122628483Y-57558130D01*
X122747743Y-57611118D01*
X122888243Y-57575167D01*
X123068158Y-57464941D01*
X123271507Y-57340016D01*
X123422124Y-57270465D01*
X123449260Y-57265333D01*
X123498144Y-57231797D01*
X123487030Y-57216140D01*
X123384087Y-57213027D01*
X123259502Y-57262388D01*
X123079171Y-57318768D01*
X122970724Y-57284040D01*
X122973445Y-57178615D01*
X123006256Y-57130795D01*
X123118558Y-57036985D01*
X123209227Y-57014394D01*
X123224211Y-57071371D01*
X123209570Y-57099393D01*
X123231070Y-57150622D01*
X123395073Y-57129816D01*
X123621948Y-57059325D01*
X123681853Y-56996095D01*
X123657302Y-56980359D01*
X123413777Y-56980359D01*
X123338667Y-57011333D01*
X123257254Y-56946245D01*
X123254000Y-56921669D01*
X123202131Y-56871103D01*
X123169334Y-56884333D01*
X123091315Y-56877620D01*
X123084667Y-56846996D01*
X123104428Y-56768474D01*
X123198876Y-56776122D01*
X123289409Y-56808725D01*
X123401786Y-56892387D01*
X123413777Y-56980359D01*
X123657302Y-56980359D01*
X123606859Y-56948028D01*
X123589100Y-56889841D01*
X123683951Y-56797061D01*
X123846559Y-56697378D01*
X123991642Y-56635676D01*
X123658185Y-56635676D01*
X123534118Y-56650842D01*
X123470664Y-56651500D01*
X123296107Y-56611375D01*
X123221683Y-56541237D01*
X123224719Y-56475216D01*
X123335982Y-56487799D01*
X123428353Y-56517769D01*
X123623814Y-56594112D01*
X123658185Y-56635676D01*
X123991642Y-56635676D01*
X124032074Y-56618481D01*
X124190037Y-56588000D01*
X124358526Y-56521636D01*
X124427815Y-56363212D01*
X124371555Y-56174325D01*
X124132767Y-55803395D01*
X123979391Y-55507363D01*
X123919968Y-55305404D01*
X123947904Y-55223092D01*
X124038427Y-55246001D01*
X124166023Y-55412648D01*
X124329985Y-55716420D01*
X124504019Y-56059569D01*
X124616200Y-56255166D01*
X124673628Y-56310313D01*
X124683403Y-56232118D01*
X124655213Y-56041867D01*
X124582207Y-55800368D01*
X124478107Y-55625405D01*
X124453481Y-55603067D01*
X124359579Y-55481781D01*
X124401494Y-55389178D01*
X124545796Y-55348604D01*
X124759052Y-55383402D01*
X124765087Y-55385478D01*
X124961012Y-55432007D01*
X125049506Y-55388144D01*
X125055363Y-55374830D01*
X125059750Y-55190846D01*
X124919375Y-55084727D01*
X124749778Y-55062703D01*
X124535073Y-55043428D01*
X124397000Y-54999203D01*
X124298796Y-54868705D01*
X124328281Y-54758749D01*
X124434337Y-54725333D01*
X124614283Y-54673616D01*
X124664362Y-54545084D01*
X124604810Y-54424352D01*
X124510718Y-54347518D01*
X124420612Y-54408632D01*
X124388547Y-54449227D01*
X124302200Y-54546560D01*
X124274689Y-54506046D01*
X124272693Y-54461907D01*
X124221816Y-54365200D01*
X124058334Y-54365944D01*
X123881893Y-54440166D01*
X123868197Y-54557062D01*
X123994701Y-54687910D01*
X124084120Y-54799781D01*
X124072599Y-54866290D01*
X123981016Y-54850692D01*
X123824851Y-54733314D01*
X123722531Y-54630967D01*
X123554559Y-54415340D01*
X123443430Y-54174390D01*
X123362697Y-53845237D01*
X123341219Y-53724459D01*
X123299352Y-53414282D01*
X123284721Y-53164527D01*
X123300155Y-53026307D01*
X123302335Y-53022290D01*
X123315723Y-52960859D01*
X123267082Y-52981581D01*
X123182367Y-52974409D01*
X123169334Y-52916486D01*
X123150517Y-52840680D01*
X123064783Y-52848880D01*
X123064783Y-52848880D01*
G37*
X123064783Y-52848880D02*
X122914444Y-52918134D01*
X122756287Y-53023538D01*
X122704198Y-53114430D01*
X122707916Y-53123540D01*
X122814827Y-53156360D01*
X122899305Y-53125478D01*
X122980975Y-53101689D01*
X123026499Y-53162631D01*
X123048382Y-53340443D01*
X123055671Y-53527415D01*
X123092531Y-53886886D01*
X123172519Y-54289317D01*
X123235704Y-54513666D01*
X123318973Y-54812947D01*
X123342921Y-55011203D01*
X123321101Y-55073384D01*
X123313645Y-55139681D01*
X123373902Y-55176560D01*
X123488908Y-55294927D01*
X123508000Y-55380355D01*
X123553677Y-55540501D01*
X123668583Y-55763535D01*
X123726558Y-55854328D01*
X123879053Y-56129500D01*
X123893665Y-56308001D01*
X123768472Y-56394097D01*
X123501553Y-56392055D01*
X123485331Y-56389839D01*
X123200779Y-56344614D01*
X122949904Y-56296595D01*
X122908278Y-56287158D01*
X122743037Y-56273351D01*
X122690130Y-56352958D01*
X122689556Y-56370387D01*
X122743547Y-56467572D01*
X122832825Y-56460315D01*
X122999824Y-56474366D01*
X123064248Y-56522588D01*
X123076834Y-56579594D01*
X122985000Y-56615463D01*
X122764640Y-56635593D01*
X122526058Y-56643107D01*
X122189762Y-56642005D01*
X122004798Y-56619964D01*
X121954168Y-56574439D01*
X121960911Y-56558441D01*
X122001931Y-56394687D01*
X121997732Y-56312833D01*
X122023573Y-56201989D01*
X122174095Y-56164180D01*
X122211512Y-56163370D01*
X122426609Y-56139106D01*
X122557852Y-56093419D01*
X122570258Y-56045372D01*
X122426012Y-56024210D01*
X122388519Y-56023625D01*
X122076840Y-56010854D01*
X121822854Y-55979662D01*
X121670239Y-55936715D01*
X121645334Y-55910217D01*
X121574031Y-55865619D01*
X121476000Y-55849279D01*
X121333127Y-55894402D01*
X121305371Y-55979428D01*
X121291685Y-56074007D01*
X121233169Y-56012419D01*
X121222000Y-55995333D01*
X121156228Y-55911049D01*
X121141227Y-55974079D01*
X121141323Y-55995333D01*
X121204502Y-56215694D01*
X121355367Y-56360198D01*
X121544121Y-56400632D01*
X121711656Y-56318477D01*
X121829810Y-56256815D01*
X121878335Y-56331286D01*
X121856781Y-56431041D01*
X121747497Y-56521588D01*
X121548109Y-56572259D01*
X121541724Y-56572779D01*
X121315608Y-56600968D01*
X121251959Y-56649005D01*
X121343955Y-56732876D01*
X121447349Y-56793893D01*
X121687667Y-56928371D01*
X121349000Y-56874146D01*
X121105368Y-56818953D01*
X120926947Y-56750279D01*
X120902454Y-56734228D01*
X120801877Y-56677557D01*
X120736806Y-56730273D01*
X120676439Y-56920023D01*
X120670855Y-56942092D01*
X120646494Y-57100488D01*
X120704984Y-57139889D01*
X120779297Y-57125597D01*
X120942418Y-57145259D01*
X120996001Y-57216178D01*
X121001074Y-57329309D01*
X120965343Y-57350000D01*
X120885430Y-57285743D01*
X120883334Y-57267148D01*
X120818929Y-57232393D01*
X120678368Y-57277685D01*
X120540987Y-57381429D01*
X120514807Y-57478973D01*
X120498918Y-57611181D01*
X120466742Y-57642166D01*
X120411388Y-57635659D01*
X120424409Y-57574628D01*
X120421615Y-57446223D01*
X120342780Y-57383161D01*
X120249373Y-57433101D01*
X120246895Y-57436994D01*
X120245968Y-57569207D01*
X120343790Y-57694065D01*
X120480489Y-57744945D01*
X120516695Y-57737204D01*
X120547517Y-57765414D01*
X120481979Y-57892126D01*
X120442278Y-57948530D01*
X120322242Y-58147773D01*
X120316213Y-58291390D01*
X120344295Y-58348344D01*
X120491492Y-58480021D01*
X120667287Y-58516520D01*
X120805115Y-58449960D01*
X120830224Y-58405885D01*
X120877158Y-58251798D01*
X120829358Y-58227039D01*
X120714000Y-58281333D01*
X120578258Y-58329269D01*
X120544667Y-58279315D01*
X120487860Y-58226056D01*
X120438834Y-58240281D01*
X120413414Y-58237697D01*
X120497893Y-58160214D01*
X120678218Y-58073458D01*
X120805664Y-58071887D01*
X120985576Y-58072169D01*
X121168325Y-58017095D01*
X121327372Y-57905722D01*
X121355961Y-57742567D01*
X121349239Y-57696978D01*
X121327433Y-57573564D01*
X121041807Y-57573564D01*
X120996223Y-57632222D01*
X120857761Y-57684059D01*
X120762283Y-57613625D01*
X120792175Y-57536398D01*
X120884286Y-57494552D01*
X121028018Y-57492861D01*
X121041807Y-57573564D01*
X121327433Y-57573564D01*
X121310371Y-57477000D01*
X121409530Y-57709833D01*
X121499557Y-57863353D01*
X121586671Y-57939965D01*
X121634103Y-57921853D01*
X121611698Y-57807801D01*
X121515526Y-57489819D01*
X121512086Y-57286615D01*
X121553807Y-57227239D01*
X121636530Y-57230385D01*
X121645334Y-57265333D01*
X121697429Y-57319357D01*
X121733866Y-57305277D01*
X121790198Y-57338840D01*
X121804966Y-57527581D01*
X121801959Y-57596973D01*
X121812215Y-57840499D01*
X121863024Y-58017546D01*
X121882760Y-58044625D01*
X121964599Y-58093736D01*
X121984000Y-58001933D01*
X122053561Y-57881000D01*
X122153334Y-57858000D01*
X122277821Y-57815666D01*
X121899334Y-57815666D01*
X121857000Y-57858000D01*
X121814667Y-57815666D01*
X121857000Y-57773333D01*
X121899334Y-57815666D01*
X122277821Y-57815666D01*
X122280621Y-57814714D01*
X122319737Y-57657651D01*
X122319850Y-57625166D01*
X122317034Y-57392333D01*
X122156639Y-57584653D01*
X122030178Y-57695738D01*
X121947151Y-57697423D01*
X121945967Y-57695623D01*
X121925317Y-57559925D01*
X121942112Y-57339670D01*
X121984899Y-57105479D01*
X122001632Y-57053666D01*
X121476000Y-57053666D01*
X121433667Y-57096000D01*
X121391334Y-57053666D01*
X121433667Y-57011333D01*
X121222000Y-57011333D01*
X121193114Y-57093798D01*
X121184664Y-57096000D01*
X121112378Y-57036671D01*
X121095000Y-57011333D01*
X121101713Y-56933314D01*
X121132337Y-56926666D01*
X121218555Y-56988127D01*
X121222000Y-57011333D01*
X121433667Y-57011333D01*
X121476000Y-57053666D01*
X122001632Y-57053666D01*
X122042227Y-56927969D01*
X122078513Y-56878248D01*
X122112801Y-56918129D01*
X122102212Y-57074396D01*
X122096509Y-57104956D01*
X122075573Y-57286735D01*
X122118287Y-57326617D01*
X122140118Y-57315834D01*
X122231705Y-57188671D01*
X122238000Y-57146458D01*
X122295865Y-57012300D01*
X122407334Y-56884333D01*
X122535499Y-56796187D01*
X122571118Y-56832622D01*
X122510909Y-56974322D01*
X122441031Y-57082636D01*
X122358646Y-57238993D01*
X122356365Y-57327252D01*
X122402879Y-57312302D01*
X122407334Y-57274447D01*
X122450995Y-57206590D01*
X122480685Y-57216006D01*
X122581206Y-57191933D01*
X122713518Y-57074295D01*
X122808565Y-56956875D01*
X122791401Y-56952670D01*
X122724834Y-57001992D01*
X122605687Y-57062578D01*
X122576667Y-57024679D01*
X122643216Y-56917660D01*
X122756218Y-56836531D01*
X122879958Y-56785169D01*
X122878221Y-56833552D01*
X122887978Y-56916947D01*
X122931504Y-56927058D01*
X122943259Y-56976888D01*
X122848580Y-57103187D01*
X122762640Y-57189580D01*
X122596921Y-57355001D01*
X122544395Y-57453389D01*
X122589449Y-57527635D01*
X122628483Y-57558130D01*
X122747743Y-57611118D01*
X122888243Y-57575167D01*
X123068158Y-57464941D01*
X123271507Y-57340016D01*
X123422124Y-57270465D01*
X123449260Y-57265333D01*
X123498144Y-57231797D01*
X123487030Y-57216140D01*
X123384087Y-57213027D01*
X123259502Y-57262388D01*
X123079171Y-57318768D01*
X122970724Y-57284040D01*
X122973445Y-57178615D01*
X123006256Y-57130795D01*
X123118558Y-57036985D01*
X123209227Y-57014394D01*
X123224211Y-57071371D01*
X123209570Y-57099393D01*
X123231070Y-57150622D01*
X123395073Y-57129816D01*
X123621948Y-57059325D01*
X123681853Y-56996095D01*
X123657302Y-56980359D01*
X123413777Y-56980359D01*
X123338667Y-57011333D01*
X123257254Y-56946245D01*
X123254000Y-56921669D01*
X123202131Y-56871103D01*
X123169334Y-56884333D01*
X123091315Y-56877620D01*
X123084667Y-56846996D01*
X123104428Y-56768474D01*
X123198876Y-56776122D01*
X123289409Y-56808725D01*
X123401786Y-56892387D01*
X123413777Y-56980359D01*
X123657302Y-56980359D01*
X123606859Y-56948028D01*
X123589100Y-56889841D01*
X123683951Y-56797061D01*
X123846559Y-56697378D01*
X123991642Y-56635676D01*
X123658185Y-56635676D01*
X123534118Y-56650842D01*
X123470664Y-56651500D01*
X123296107Y-56611375D01*
X123221683Y-56541237D01*
X123224719Y-56475216D01*
X123335982Y-56487799D01*
X123428353Y-56517769D01*
X123623814Y-56594112D01*
X123658185Y-56635676D01*
X123991642Y-56635676D01*
X124032074Y-56618481D01*
X124190037Y-56588000D01*
X124358526Y-56521636D01*
X124427815Y-56363212D01*
X124371555Y-56174325D01*
X124132767Y-55803395D01*
X123979391Y-55507363D01*
X123919968Y-55305404D01*
X123947904Y-55223092D01*
X124038427Y-55246001D01*
X124166023Y-55412648D01*
X124329985Y-55716420D01*
X124504019Y-56059569D01*
X124616200Y-56255166D01*
X124673628Y-56310313D01*
X124683403Y-56232118D01*
X124655213Y-56041867D01*
X124582207Y-55800368D01*
X124478107Y-55625405D01*
X124453481Y-55603067D01*
X124359579Y-55481781D01*
X124401494Y-55389178D01*
X124545796Y-55348604D01*
X124759052Y-55383402D01*
X124765087Y-55385478D01*
X124961012Y-55432007D01*
X125049506Y-55388144D01*
X125055363Y-55374830D01*
X125059750Y-55190846D01*
X124919375Y-55084727D01*
X124749778Y-55062703D01*
X124535073Y-55043428D01*
X124397000Y-54999203D01*
X124298796Y-54868705D01*
X124328281Y-54758749D01*
X124434337Y-54725333D01*
X124614283Y-54673616D01*
X124664362Y-54545084D01*
X124604810Y-54424352D01*
X124510718Y-54347518D01*
X124420612Y-54408632D01*
X124388547Y-54449227D01*
X124302200Y-54546560D01*
X124274689Y-54506046D01*
X124272693Y-54461907D01*
X124221816Y-54365200D01*
X124058334Y-54365944D01*
X123881893Y-54440166D01*
X123868197Y-54557062D01*
X123994701Y-54687910D01*
X124084120Y-54799781D01*
X124072599Y-54866290D01*
X123981016Y-54850692D01*
X123824851Y-54733314D01*
X123722531Y-54630967D01*
X123554559Y-54415340D01*
X123443430Y-54174390D01*
X123362697Y-53845237D01*
X123341219Y-53724459D01*
X123299352Y-53414282D01*
X123284721Y-53164527D01*
X123300155Y-53026307D01*
X123302335Y-53022290D01*
X123315723Y-52960859D01*
X123267082Y-52981581D01*
X123182367Y-52974409D01*
X123169334Y-52916486D01*
X123150517Y-52840680D01*
X123064783Y-52848880D01*
G36*
X122590514Y-57668237D02*
X122457900Y-57802702D01*
X122316636Y-57975201D01*
X122290858Y-58091569D01*
X122335532Y-58169834D01*
X122516284Y-58258532D01*
X122681967Y-58247573D01*
X122845140Y-58234870D01*
X122872213Y-58282608D01*
X122846140Y-58359507D01*
X122936148Y-58322597D01*
X123047185Y-58245922D01*
X123149546Y-58132679D01*
X123148034Y-58062477D01*
X123089957Y-58063777D01*
X123084667Y-58097888D01*
X123024529Y-58191047D01*
X122994679Y-58196666D01*
X122934634Y-58126580D01*
X122931179Y-58008253D01*
X122904852Y-57847467D01*
X122788334Y-57792035D01*
X122679179Y-57784757D01*
X122722764Y-57834421D01*
X122743549Y-57848845D01*
X122820576Y-57950106D01*
X122765264Y-58013411D01*
X122619001Y-57996715D01*
X122532143Y-57930933D01*
X122558590Y-57806281D01*
X122584808Y-57753422D01*
X122629875Y-57651935D01*
X122590514Y-57668237D01*
X122590514Y-57668237D01*
G37*
X122590514Y-57668237D02*
X122457900Y-57802702D01*
X122316636Y-57975201D01*
X122290858Y-58091569D01*
X122335532Y-58169834D01*
X122516284Y-58258532D01*
X122681967Y-58247573D01*
X122845140Y-58234870D01*
X122872213Y-58282608D01*
X122846140Y-58359507D01*
X122936148Y-58322597D01*
X123047185Y-58245922D01*
X123149546Y-58132679D01*
X123148034Y-58062477D01*
X123089957Y-58063777D01*
X123084667Y-58097888D01*
X123024529Y-58191047D01*
X122994679Y-58196666D01*
X122934634Y-58126580D01*
X122931179Y-58008253D01*
X122904852Y-57847467D01*
X122788334Y-57792035D01*
X122679179Y-57784757D01*
X122722764Y-57834421D01*
X122743549Y-57848845D01*
X122820576Y-57950106D01*
X122765264Y-58013411D01*
X122619001Y-57996715D01*
X122532143Y-57930933D01*
X122558590Y-57806281D01*
X122584808Y-57753422D01*
X122629875Y-57651935D01*
X122590514Y-57668237D01*
G36*
X121222000Y-58239000D02*
X121264334Y-58281333D01*
X121306667Y-58239000D01*
X121264334Y-58196666D01*
X121222000Y-58239000D01*
X121222000Y-58239000D01*
G37*
X121222000Y-58239000D02*
X121264334Y-58281333D01*
X121306667Y-58239000D01*
X121264334Y-58196666D01*
X121222000Y-58239000D01*
G36*
X115513514Y-57128564D02*
X115290164Y-57276720D01*
X115045135Y-57456585D01*
X114816917Y-57638461D01*
X114644002Y-57792651D01*
X114564881Y-57889456D01*
X114563950Y-57900333D01*
X114663070Y-57995942D01*
X114857707Y-57956399D01*
X115143039Y-57782958D01*
X115210667Y-57732233D01*
X115434361Y-57571072D01*
X115610960Y-57463628D01*
X115681578Y-57436786D01*
X115785677Y-57497740D01*
X115930321Y-57651382D01*
X115965400Y-57696944D01*
X116125789Y-57868664D01*
X116236341Y-57881204D01*
X116244634Y-57873900D01*
X116250912Y-57761347D01*
X116171869Y-57575368D01*
X116040243Y-57363926D01*
X115888772Y-57174988D01*
X115750194Y-57056517D01*
X115676693Y-57041813D01*
X115513514Y-57128564D01*
X115513514Y-57128564D01*
G37*
X115513514Y-57128564D02*
X115290164Y-57276720D01*
X115045135Y-57456585D01*
X114816917Y-57638461D01*
X114644002Y-57792651D01*
X114564881Y-57889456D01*
X114563950Y-57900333D01*
X114663070Y-57995942D01*
X114857707Y-57956399D01*
X115143039Y-57782958D01*
X115210667Y-57732233D01*
X115434361Y-57571072D01*
X115610960Y-57463628D01*
X115681578Y-57436786D01*
X115785677Y-57497740D01*
X115930321Y-57651382D01*
X115965400Y-57696944D01*
X116125789Y-57868664D01*
X116236341Y-57881204D01*
X116244634Y-57873900D01*
X116250912Y-57761347D01*
X116171869Y-57575368D01*
X116040243Y-57363926D01*
X115888772Y-57174988D01*
X115750194Y-57056517D01*
X115676693Y-57041813D01*
X115513514Y-57128564D01*
G36*
X123874889Y-57801555D02*
X123864756Y-57902035D01*
X123874889Y-57914444D01*
X123925224Y-57902822D01*
X123931334Y-57858000D01*
X123900356Y-57788309D01*
X123874889Y-57801555D01*
X123874889Y-57801555D01*
G37*
X123874889Y-57801555D02*
X123864756Y-57902035D01*
X123874889Y-57914444D01*
X123925224Y-57902822D01*
X123931334Y-57858000D01*
X123900356Y-57788309D01*
X123874889Y-57801555D01*
G36*
X124018424Y-57664767D02*
X124016000Y-57683669D01*
X124077545Y-57798337D01*
X124100667Y-57815666D01*
X124173150Y-57796472D01*
X124185334Y-57735996D01*
X124141129Y-57620154D01*
X124100667Y-57604000D01*
X124018424Y-57664767D01*
X124018424Y-57664767D01*
G37*
X124018424Y-57664767D02*
X124016000Y-57683669D01*
X124077545Y-57798337D01*
X124100667Y-57815666D01*
X124173150Y-57796472D01*
X124185334Y-57735996D01*
X124141129Y-57620154D01*
X124100667Y-57604000D01*
X124018424Y-57664767D01*
G36*
X123308922Y-57406928D02*
X123155401Y-57484204D01*
X122988937Y-57591542D01*
X122965809Y-57679170D01*
X122994477Y-57717038D01*
X123155519Y-57799505D01*
X123279372Y-57819242D01*
X123422148Y-57780961D01*
X123446324Y-57716888D01*
X123225778Y-57716888D01*
X123214156Y-57767223D01*
X123169334Y-57773333D01*
X123099644Y-57742355D01*
X123112889Y-57716888D01*
X123213369Y-57706755D01*
X123225778Y-57716888D01*
X123446324Y-57716888D01*
X123479264Y-57629594D01*
X123483425Y-57586409D01*
X123487789Y-57419484D01*
X123442043Y-57363527D01*
X123308922Y-57406928D01*
X123308922Y-57406928D01*
G37*
X123308922Y-57406928D02*
X123155401Y-57484204D01*
X122988937Y-57591542D01*
X122965809Y-57679170D01*
X122994477Y-57717038D01*
X123155519Y-57799505D01*
X123279372Y-57819242D01*
X123422148Y-57780961D01*
X123446324Y-57716888D01*
X123225778Y-57716888D01*
X123214156Y-57767223D01*
X123169334Y-57773333D01*
X123099644Y-57742355D01*
X123112889Y-57716888D01*
X123213369Y-57706755D01*
X123225778Y-57716888D01*
X123446324Y-57716888D01*
X123479264Y-57629594D01*
X123483425Y-57586409D01*
X123487789Y-57419484D01*
X123442043Y-57363527D01*
X123308922Y-57406928D01*
G36*
X123783358Y-57163535D02*
X123716677Y-57241407D01*
X123648442Y-57406423D01*
X123653477Y-57494619D01*
X123711237Y-57594277D01*
X123765492Y-57541331D01*
X123805749Y-57430209D01*
X123868324Y-57311289D01*
X123968805Y-57340746D01*
X124001954Y-57365249D01*
X124072936Y-57409504D01*
X124027662Y-57340015D01*
X123982425Y-57285829D01*
X123861589Y-57162006D01*
X123783358Y-57163535D01*
X123783358Y-57163535D01*
G37*
X123783358Y-57163535D02*
X123716677Y-57241407D01*
X123648442Y-57406423D01*
X123653477Y-57494619D01*
X123711237Y-57594277D01*
X123765492Y-57541331D01*
X123805749Y-57430209D01*
X123868324Y-57311289D01*
X123968805Y-57340746D01*
X124001954Y-57365249D01*
X124072936Y-57409504D01*
X124027662Y-57340015D01*
X123982425Y-57285829D01*
X123861589Y-57162006D01*
X123783358Y-57163535D01*
G36*
X123000000Y-57223000D02*
X123042334Y-57265333D01*
X123084667Y-57223000D01*
X123042334Y-57180666D01*
X123000000Y-57223000D01*
X123000000Y-57223000D01*
G37*
X123000000Y-57223000D02*
X123042334Y-57265333D01*
X123084667Y-57223000D01*
X123042334Y-57180666D01*
X123000000Y-57223000D01*
G36*
X120488223Y-57039555D02*
X120478090Y-57140035D01*
X120488223Y-57152444D01*
X120538557Y-57140822D01*
X120544667Y-57096000D01*
X120513689Y-57026309D01*
X120488223Y-57039555D01*
X120488223Y-57039555D01*
G37*
X120488223Y-57039555D02*
X120478090Y-57140035D01*
X120488223Y-57152444D01*
X120538557Y-57140822D01*
X120544667Y-57096000D01*
X120513689Y-57026309D01*
X120488223Y-57039555D01*
G36*
X120209678Y-56826470D02*
X120206000Y-56884333D01*
X120250309Y-56997026D01*
X120288010Y-57011333D01*
X120334595Y-56949272D01*
X120321285Y-56884333D01*
X120261190Y-56772931D01*
X120239275Y-56757333D01*
X120209678Y-56826470D01*
X120209678Y-56826470D01*
G37*
X120209678Y-56826470D02*
X120206000Y-56884333D01*
X120250309Y-56997026D01*
X120288010Y-57011333D01*
X120334595Y-56949272D01*
X120321285Y-56884333D01*
X120261190Y-56772931D01*
X120239275Y-56757333D01*
X120209678Y-56826470D01*
G36*
X122727750Y-53429046D02*
X122587456Y-53546402D01*
X122425753Y-53709791D01*
X122285206Y-53876419D01*
X122210667Y-53997109D01*
X122086719Y-54140006D01*
X121869112Y-54271118D01*
X121631767Y-54354346D01*
X121467667Y-54359955D01*
X121295241Y-54370570D01*
X121061082Y-54447977D01*
X120993988Y-54479666D01*
X120684922Y-54609625D01*
X120467189Y-54628288D01*
X120307600Y-54539066D01*
X120224624Y-54513143D01*
X120189654Y-54645980D01*
X120202428Y-54920881D01*
X120166011Y-55116242D01*
X120122143Y-55190025D01*
X120034155Y-55251842D01*
X119906268Y-55226021D01*
X119734965Y-55134280D01*
X119535563Y-55036239D01*
X119447800Y-55031622D01*
X119487378Y-55112202D01*
X119592167Y-55209111D01*
X119670514Y-55283896D01*
X119644182Y-55282932D01*
X119558099Y-55315915D01*
X119508586Y-55441648D01*
X119537429Y-55665683D01*
X119660989Y-55814798D01*
X119810331Y-55917695D01*
X119901966Y-55932464D01*
X119902419Y-55932026D01*
X119948205Y-55947216D01*
X119952000Y-55981222D01*
X119895307Y-56074426D01*
X119867334Y-56080000D01*
X119792219Y-56148576D01*
X119782667Y-56207000D01*
X119712940Y-56317758D01*
X119634500Y-56340684D01*
X119554660Y-56362811D01*
X119583179Y-56387077D01*
X119643827Y-56489012D01*
X119636804Y-56592059D01*
X119645844Y-56729761D01*
X119724411Y-56757333D01*
X119870791Y-56708616D01*
X120012145Y-56597876D01*
X120090037Y-56478225D01*
X120085482Y-56429153D01*
X120128251Y-56385971D01*
X120226496Y-56376333D01*
X119935495Y-56376333D01*
X119926343Y-56520929D01*
X119899839Y-56533659D01*
X119896465Y-56526111D01*
X119879716Y-56358032D01*
X119893327Y-56272111D01*
X119920278Y-56237584D01*
X119934936Y-56350040D01*
X119935495Y-56376333D01*
X120226496Y-56376333D01*
X120265782Y-56372479D01*
X120429954Y-56409725D01*
X120499207Y-56547224D01*
X120509297Y-56618496D01*
X120547060Y-56812341D01*
X120594720Y-56914829D01*
X120622648Y-56889030D01*
X120605131Y-56769716D01*
X120588933Y-56631561D01*
X120666631Y-56592854D01*
X120799013Y-56606110D01*
X120962856Y-56616856D01*
X120994766Y-56565112D01*
X120966679Y-56500864D01*
X120953287Y-56376333D01*
X120798667Y-56376333D01*
X120756334Y-56418666D01*
X120714000Y-56376333D01*
X120756334Y-56334000D01*
X120798667Y-56376333D01*
X120953287Y-56376333D01*
X120947833Y-56325625D01*
X120992422Y-56258778D01*
X121045208Y-56154268D01*
X120972166Y-56082574D01*
X120827223Y-56072234D01*
X120742733Y-56149600D01*
X120657369Y-56224375D01*
X120632027Y-56190830D01*
X120691707Y-56055450D01*
X120715382Y-56036813D01*
X120759438Y-55931012D01*
X120743826Y-55890428D01*
X120746983Y-55833269D01*
X120831509Y-55852975D01*
X120930280Y-55865959D01*
X120924499Y-55824109D01*
X120810836Y-55769105D01*
X120623768Y-55758421D01*
X120431348Y-55810346D01*
X120375334Y-55928675D01*
X120307360Y-56057079D01*
X120214381Y-56080000D01*
X120102163Y-56043511D01*
X120062149Y-55905068D01*
X120061427Y-55797777D01*
X120071553Y-55737594D01*
X119992293Y-55737594D01*
X119974389Y-55775389D01*
X119863997Y-55824343D01*
X119787092Y-55783506D01*
X119783964Y-55762500D01*
X119825619Y-55641473D01*
X119856848Y-55586067D01*
X119926757Y-55520054D01*
X119976718Y-55598956D01*
X119992293Y-55737594D01*
X120071553Y-55737594D01*
X120094230Y-55602823D01*
X120165005Y-55516143D01*
X120171975Y-55515555D01*
X120239823Y-55575356D01*
X120231755Y-55627005D01*
X120232127Y-55692011D01*
X120333228Y-55684233D01*
X120468332Y-55641075D01*
X120641735Y-55572179D01*
X120669623Y-55524716D01*
X120582672Y-55479131D01*
X120468423Y-55428566D01*
X120516473Y-55411877D01*
X120592899Y-55408617D01*
X120741928Y-55349934D01*
X120922563Y-55216494D01*
X121074392Y-55060691D01*
X121137015Y-54936722D01*
X121137331Y-54822434D01*
X121137334Y-54810000D01*
X121206552Y-54736449D01*
X121274071Y-54725333D01*
X121361229Y-54739340D01*
X121349706Y-54811390D01*
X121274071Y-54934021D01*
X121175546Y-55141489D01*
X121139789Y-55336452D01*
X121171893Y-55464767D01*
X121222000Y-55487333D01*
X121299482Y-55554816D01*
X121306667Y-55600183D01*
X121373045Y-55684379D01*
X121529697Y-55693998D01*
X121710322Y-55626495D01*
X121801950Y-55612430D01*
X121814667Y-55643387D01*
X121883430Y-55711256D01*
X122044120Y-55800502D01*
X122228340Y-55878010D01*
X122366699Y-55910666D01*
X122385321Y-55834195D01*
X122414580Y-55635725D01*
X122441672Y-55413837D01*
X122442946Y-55404746D01*
X122051825Y-55404746D01*
X122039843Y-55524991D01*
X121970633Y-55646913D01*
X121923838Y-55607720D01*
X121904792Y-55414765D01*
X121905064Y-55339166D01*
X121913643Y-55144957D01*
X121938327Y-55101649D01*
X121992471Y-55190831D01*
X122000583Y-55207491D01*
X122051825Y-55404746D01*
X122442946Y-55404746D01*
X122480256Y-55138512D01*
X122522369Y-54936458D01*
X122551052Y-54863837D01*
X122612462Y-54714443D01*
X122632655Y-54486728D01*
X122609945Y-54267026D01*
X122564798Y-54160698D01*
X122511934Y-54025250D01*
X122568847Y-53833394D01*
X122578710Y-53812659D01*
X122690316Y-53582333D01*
X122762648Y-54005666D01*
X122790287Y-54470955D01*
X122737553Y-55032893D01*
X122733400Y-55059081D01*
X122685253Y-55400447D01*
X122675843Y-55606015D01*
X122705100Y-55704810D01*
X122731772Y-55722479D01*
X122794567Y-55800422D01*
X122783865Y-55833231D01*
X122809754Y-55890995D01*
X122942863Y-55909293D01*
X123124913Y-55884487D01*
X123204256Y-55859461D01*
X123295053Y-55779219D01*
X123289997Y-55731080D01*
X123188878Y-55692828D01*
X123158938Y-55705424D01*
X123114859Y-55663139D01*
X123106903Y-55470032D01*
X123118916Y-55300097D01*
X123118578Y-54875611D01*
X123039814Y-54607246D01*
X122962329Y-54385588D01*
X122900296Y-54081550D01*
X122879446Y-53904602D01*
X122852302Y-53641194D01*
X122822447Y-53455630D01*
X122804072Y-53400515D01*
X122727750Y-53429046D01*
X122727750Y-53429046D01*
G37*
X122727750Y-53429046D02*
X122587456Y-53546402D01*
X122425753Y-53709791D01*
X122285206Y-53876419D01*
X122210667Y-53997109D01*
X122086719Y-54140006D01*
X121869112Y-54271118D01*
X121631767Y-54354346D01*
X121467667Y-54359955D01*
X121295241Y-54370570D01*
X121061082Y-54447977D01*
X120993988Y-54479666D01*
X120684922Y-54609625D01*
X120467189Y-54628288D01*
X120307600Y-54539066D01*
X120224624Y-54513143D01*
X120189654Y-54645980D01*
X120202428Y-54920881D01*
X120166011Y-55116242D01*
X120122143Y-55190025D01*
X120034155Y-55251842D01*
X119906268Y-55226021D01*
X119734965Y-55134280D01*
X119535563Y-55036239D01*
X119447800Y-55031622D01*
X119487378Y-55112202D01*
X119592167Y-55209111D01*
X119670514Y-55283896D01*
X119644182Y-55282932D01*
X119558099Y-55315915D01*
X119508586Y-55441648D01*
X119537429Y-55665683D01*
X119660989Y-55814798D01*
X119810331Y-55917695D01*
X119901966Y-55932464D01*
X119902419Y-55932026D01*
X119948205Y-55947216D01*
X119952000Y-55981222D01*
X119895307Y-56074426D01*
X119867334Y-56080000D01*
X119792219Y-56148576D01*
X119782667Y-56207000D01*
X119712940Y-56317758D01*
X119634500Y-56340684D01*
X119554660Y-56362811D01*
X119583179Y-56387077D01*
X119643827Y-56489012D01*
X119636804Y-56592059D01*
X119645844Y-56729761D01*
X119724411Y-56757333D01*
X119870791Y-56708616D01*
X120012145Y-56597876D01*
X120090037Y-56478225D01*
X120085482Y-56429153D01*
X120128251Y-56385971D01*
X120226496Y-56376333D01*
X119935495Y-56376333D01*
X119926343Y-56520929D01*
X119899839Y-56533659D01*
X119896465Y-56526111D01*
X119879716Y-56358032D01*
X119893327Y-56272111D01*
X119920278Y-56237584D01*
X119934936Y-56350040D01*
X119935495Y-56376333D01*
X120226496Y-56376333D01*
X120265782Y-56372479D01*
X120429954Y-56409725D01*
X120499207Y-56547224D01*
X120509297Y-56618496D01*
X120547060Y-56812341D01*
X120594720Y-56914829D01*
X120622648Y-56889030D01*
X120605131Y-56769716D01*
X120588933Y-56631561D01*
X120666631Y-56592854D01*
X120799013Y-56606110D01*
X120962856Y-56616856D01*
X120994766Y-56565112D01*
X120966679Y-56500864D01*
X120953287Y-56376333D01*
X120798667Y-56376333D01*
X120756334Y-56418666D01*
X120714000Y-56376333D01*
X120756334Y-56334000D01*
X120798667Y-56376333D01*
X120953287Y-56376333D01*
X120947833Y-56325625D01*
X120992422Y-56258778D01*
X121045208Y-56154268D01*
X120972166Y-56082574D01*
X120827223Y-56072234D01*
X120742733Y-56149600D01*
X120657369Y-56224375D01*
X120632027Y-56190830D01*
X120691707Y-56055450D01*
X120715382Y-56036813D01*
X120759438Y-55931012D01*
X120743826Y-55890428D01*
X120746983Y-55833269D01*
X120831509Y-55852975D01*
X120930280Y-55865959D01*
X120924499Y-55824109D01*
X120810836Y-55769105D01*
X120623768Y-55758421D01*
X120431348Y-55810346D01*
X120375334Y-55928675D01*
X120307360Y-56057079D01*
X120214381Y-56080000D01*
X120102163Y-56043511D01*
X120062149Y-55905068D01*
X120061427Y-55797777D01*
X120071553Y-55737594D01*
X119992293Y-55737594D01*
X119974389Y-55775389D01*
X119863997Y-55824343D01*
X119787092Y-55783506D01*
X119783964Y-55762500D01*
X119825619Y-55641473D01*
X119856848Y-55586067D01*
X119926757Y-55520054D01*
X119976718Y-55598956D01*
X119992293Y-55737594D01*
X120071553Y-55737594D01*
X120094230Y-55602823D01*
X120165005Y-55516143D01*
X120171975Y-55515555D01*
X120239823Y-55575356D01*
X120231755Y-55627005D01*
X120232127Y-55692011D01*
X120333228Y-55684233D01*
X120468332Y-55641075D01*
X120641735Y-55572179D01*
X120669623Y-55524716D01*
X120582672Y-55479131D01*
X120468423Y-55428566D01*
X120516473Y-55411877D01*
X120592899Y-55408617D01*
X120741928Y-55349934D01*
X120922563Y-55216494D01*
X121074392Y-55060691D01*
X121137015Y-54936722D01*
X121137331Y-54822434D01*
X121137334Y-54810000D01*
X121206552Y-54736449D01*
X121274071Y-54725333D01*
X121361229Y-54739340D01*
X121349706Y-54811390D01*
X121274071Y-54934021D01*
X121175546Y-55141489D01*
X121139789Y-55336452D01*
X121171893Y-55464767D01*
X121222000Y-55487333D01*
X121299482Y-55554816D01*
X121306667Y-55600183D01*
X121373045Y-55684379D01*
X121529697Y-55693998D01*
X121710322Y-55626495D01*
X121801950Y-55612430D01*
X121814667Y-55643387D01*
X121883430Y-55711256D01*
X122044120Y-55800502D01*
X122228340Y-55878010D01*
X122366699Y-55910666D01*
X122385321Y-55834195D01*
X122414580Y-55635725D01*
X122441672Y-55413837D01*
X122442946Y-55404746D01*
X122051825Y-55404746D01*
X122039843Y-55524991D01*
X121970633Y-55646913D01*
X121923838Y-55607720D01*
X121904792Y-55414765D01*
X121905064Y-55339166D01*
X121913643Y-55144957D01*
X121938327Y-55101649D01*
X121992471Y-55190831D01*
X122000583Y-55207491D01*
X122051825Y-55404746D01*
X122442946Y-55404746D01*
X122480256Y-55138512D01*
X122522369Y-54936458D01*
X122551052Y-54863837D01*
X122612462Y-54714443D01*
X122632655Y-54486728D01*
X122609945Y-54267026D01*
X122564798Y-54160698D01*
X122511934Y-54025250D01*
X122568847Y-53833394D01*
X122578710Y-53812659D01*
X122690316Y-53582333D01*
X122762648Y-54005666D01*
X122790287Y-54470955D01*
X122737553Y-55032893D01*
X122733400Y-55059081D01*
X122685253Y-55400447D01*
X122675843Y-55606015D01*
X122705100Y-55704810D01*
X122731772Y-55722479D01*
X122794567Y-55800422D01*
X122783865Y-55833231D01*
X122809754Y-55890995D01*
X122942863Y-55909293D01*
X123124913Y-55884487D01*
X123204256Y-55859461D01*
X123295053Y-55779219D01*
X123289997Y-55731080D01*
X123188878Y-55692828D01*
X123158938Y-55705424D01*
X123114859Y-55663139D01*
X123106903Y-55470032D01*
X123118916Y-55300097D01*
X123118578Y-54875611D01*
X123039814Y-54607246D01*
X122962329Y-54385588D01*
X122900296Y-54081550D01*
X122879446Y-53904602D01*
X122852302Y-53641194D01*
X122822447Y-53455630D01*
X122804072Y-53400515D01*
X122727750Y-53429046D01*
G36*
X114809119Y-55699404D02*
X114586258Y-55798004D01*
X114299224Y-55937449D01*
X114218709Y-55978356D01*
X113909684Y-56145204D01*
X113734628Y-56264692D01*
X113671402Y-56355066D01*
X113685757Y-56417538D01*
X113748092Y-56473016D01*
X113856538Y-56469582D01*
X114046108Y-56399087D01*
X114316829Y-56270681D01*
X114869895Y-55997952D01*
X115042002Y-56335309D01*
X115163660Y-56561182D01*
X115240800Y-56655664D01*
X115299421Y-56641316D01*
X115336109Y-56590521D01*
X115335599Y-56468574D01*
X115274120Y-56262087D01*
X115175780Y-56025586D01*
X115064685Y-55813595D01*
X114964943Y-55680640D01*
X114925074Y-55660856D01*
X114809119Y-55699404D01*
X114809119Y-55699404D01*
G37*
X114809119Y-55699404D02*
X114586258Y-55798004D01*
X114299224Y-55937449D01*
X114218709Y-55978356D01*
X113909684Y-56145204D01*
X113734628Y-56264692D01*
X113671402Y-56355066D01*
X113685757Y-56417538D01*
X113748092Y-56473016D01*
X113856538Y-56469582D01*
X114046108Y-56399087D01*
X114316829Y-56270681D01*
X114869895Y-55997952D01*
X115042002Y-56335309D01*
X115163660Y-56561182D01*
X115240800Y-56655664D01*
X115299421Y-56641316D01*
X115336109Y-56590521D01*
X115335599Y-56468574D01*
X115274120Y-56262087D01*
X115175780Y-56025586D01*
X115064685Y-55813595D01*
X114964943Y-55680640D01*
X114925074Y-55660856D01*
X114809119Y-55699404D01*
G36*
X122153334Y-56545666D02*
X122195667Y-56588000D01*
X122238000Y-56545666D01*
X122195667Y-56503333D01*
X122153334Y-56545666D01*
X122153334Y-56545666D01*
G37*
X122153334Y-56545666D02*
X122195667Y-56588000D01*
X122238000Y-56545666D01*
X122195667Y-56503333D01*
X122153334Y-56545666D01*
G36*
X123266340Y-55964533D02*
X123036819Y-56039711D01*
X122976395Y-56117202D01*
X123085159Y-56196426D01*
X123222683Y-56242078D01*
X123574359Y-56319943D01*
X123783497Y-56319356D01*
X123846667Y-56249333D01*
X123777908Y-56174651D01*
X123717010Y-56164666D01*
X123575588Y-56096195D01*
X123538849Y-56038269D01*
X123436763Y-55951611D01*
X123266340Y-55964533D01*
X123266340Y-55964533D01*
G37*
X123266340Y-55964533D02*
X123036819Y-56039711D01*
X122976395Y-56117202D01*
X123085159Y-56196426D01*
X123222683Y-56242078D01*
X123574359Y-56319943D01*
X123783497Y-56319356D01*
X123846667Y-56249333D01*
X123777908Y-56174651D01*
X123717010Y-56164666D01*
X123575588Y-56096195D01*
X123538849Y-56038269D01*
X123436763Y-55951611D01*
X123266340Y-55964533D01*
G36*
X121062219Y-55640576D02*
X121052667Y-55699000D01*
X121098385Y-55811671D01*
X121137334Y-55826000D01*
X121212448Y-55757423D01*
X121222000Y-55699000D01*
X121176283Y-55586328D01*
X121137334Y-55572000D01*
X121062219Y-55640576D01*
X121062219Y-55640576D01*
G37*
X121062219Y-55640576D02*
X121052667Y-55699000D01*
X121098385Y-55811671D01*
X121137334Y-55826000D01*
X121212448Y-55757423D01*
X121222000Y-55699000D01*
X121176283Y-55586328D01*
X121137334Y-55572000D01*
X121062219Y-55640576D01*
G36*
X123423334Y-55699000D02*
X123465667Y-55741333D01*
X123508000Y-55699000D01*
X123465667Y-55656666D01*
X123423334Y-55699000D01*
X123423334Y-55699000D01*
G37*
X123423334Y-55699000D02*
X123465667Y-55741333D01*
X123508000Y-55699000D01*
X123465667Y-55656666D01*
X123423334Y-55699000D01*
G36*
X120826889Y-55600222D02*
X120838512Y-55650556D01*
X120883334Y-55656666D01*
X120953024Y-55625688D01*
X120939778Y-55600222D01*
X120839299Y-55590089D01*
X120826889Y-55600222D01*
X120826889Y-55600222D01*
G37*
X120826889Y-55600222D02*
X120838512Y-55650556D01*
X120883334Y-55656666D01*
X120953024Y-55625688D01*
X120939778Y-55600222D01*
X120839299Y-55590089D01*
X120826889Y-55600222D01*
G36*
X114489033Y-54886074D02*
X114224365Y-54955290D01*
X113978199Y-55033992D01*
X113668354Y-55138066D01*
X113427921Y-55221033D01*
X113295872Y-55269360D01*
X113282508Y-55275558D01*
X113284356Y-55360052D01*
X113342407Y-55485581D01*
X113410800Y-55558181D01*
X113420559Y-55558405D01*
X113521170Y-55527008D01*
X113740492Y-55455568D01*
X114036647Y-55357760D01*
X114131167Y-55326336D01*
X114465284Y-55212858D01*
X114664648Y-55133364D01*
X114755537Y-55069478D01*
X114764233Y-55002820D01*
X114717735Y-54916148D01*
X114644083Y-54874526D01*
X114489033Y-54886074D01*
X114489033Y-54886074D01*
G37*
X114489033Y-54886074D02*
X114224365Y-54955290D01*
X113978199Y-55033992D01*
X113668354Y-55138066D01*
X113427921Y-55221033D01*
X113295872Y-55269360D01*
X113282508Y-55275558D01*
X113284356Y-55360052D01*
X113342407Y-55485581D01*
X113410800Y-55558181D01*
X113420559Y-55558405D01*
X113521170Y-55527008D01*
X113740492Y-55455568D01*
X114036647Y-55357760D01*
X114131167Y-55326336D01*
X114465284Y-55212858D01*
X114664648Y-55133364D01*
X114755537Y-55069478D01*
X114764233Y-55002820D01*
X114717735Y-54916148D01*
X114644083Y-54874526D01*
X114489033Y-54886074D01*
G36*
X119952000Y-55106333D02*
X119994334Y-55148666D01*
X120036667Y-55106333D01*
X119994334Y-55064000D01*
X119952000Y-55106333D01*
X119952000Y-55106333D01*
G37*
X119952000Y-55106333D02*
X119994334Y-55148666D01*
X120036667Y-55106333D01*
X119994334Y-55064000D01*
X119952000Y-55106333D01*
G36*
X112952683Y-53199872D02*
X112926073Y-53258531D01*
X112924667Y-53295223D01*
X112981999Y-53414132D01*
X113172588Y-53488673D01*
X113242167Y-53502137D01*
X113532555Y-53556686D01*
X113801365Y-53614252D01*
X113812515Y-53616890D01*
X114065363Y-53677166D01*
X113601664Y-53926083D01*
X113352311Y-54080171D01*
X113173107Y-54228938D01*
X113109775Y-54323166D01*
X113115155Y-54427741D01*
X113196976Y-54454402D01*
X113372705Y-54398574D01*
X113659809Y-54255681D01*
X113919500Y-54111052D01*
X114274815Y-53888969D01*
X114480406Y-53714247D01*
X114533334Y-53609790D01*
X114524546Y-53536040D01*
X114479666Y-53479473D01*
X114370915Y-53430207D01*
X114170518Y-53378362D01*
X113850696Y-53314056D01*
X113538500Y-53255896D01*
X113223896Y-53200797D01*
X113040290Y-53181375D01*
X112952683Y-53199872D01*
X112952683Y-53199872D01*
G37*
X112952683Y-53199872D02*
X112926073Y-53258531D01*
X112924667Y-53295223D01*
X112981999Y-53414132D01*
X113172588Y-53488673D01*
X113242167Y-53502137D01*
X113532555Y-53556686D01*
X113801365Y-53614252D01*
X113812515Y-53616890D01*
X114065363Y-53677166D01*
X113601664Y-53926083D01*
X113352311Y-54080171D01*
X113173107Y-54228938D01*
X113109775Y-54323166D01*
X113115155Y-54427741D01*
X113196976Y-54454402D01*
X113372705Y-54398574D01*
X113659809Y-54255681D01*
X113919500Y-54111052D01*
X114274815Y-53888969D01*
X114480406Y-53714247D01*
X114533334Y-53609790D01*
X114524546Y-53536040D01*
X114479666Y-53479473D01*
X114370915Y-53430207D01*
X114170518Y-53378362D01*
X113850696Y-53314056D01*
X113538500Y-53255896D01*
X113223896Y-53200797D01*
X113040290Y-53181375D01*
X112952683Y-53199872D01*
G36*
X121718671Y-48691068D02*
X121674732Y-48759511D01*
X121683877Y-48915521D01*
X121736457Y-48971990D01*
X121800068Y-49040130D01*
X121707175Y-49099224D01*
X121703938Y-49100471D01*
X121596232Y-49211811D01*
X121601441Y-49301753D01*
X121596619Y-49471652D01*
X121523652Y-49693101D01*
X121512731Y-49715792D01*
X121422934Y-50019970D01*
X121430305Y-50222693D01*
X121443109Y-50476693D01*
X121406612Y-50664825D01*
X121361035Y-50760909D01*
X121317029Y-50755719D01*
X121258472Y-50628665D01*
X121170574Y-50363363D01*
X121010334Y-49857000D01*
X120630995Y-49830012D01*
X120287246Y-49773141D01*
X120102172Y-49661909D01*
X120073613Y-49494931D01*
X120079000Y-49476000D01*
X120076349Y-49302505D01*
X119932212Y-49197746D01*
X119640925Y-49159537D01*
X119299429Y-49175300D01*
X118919638Y-49206677D01*
X118531876Y-49233313D01*
X118290613Y-49246183D01*
X118031083Y-49272997D01*
X117899976Y-49322274D01*
X117891231Y-49353816D01*
X117840793Y-49435664D01*
X117674419Y-49549905D01*
X117520618Y-49628439D01*
X117286275Y-49758300D01*
X117018819Y-49940666D01*
X116749476Y-50149144D01*
X116509471Y-50357343D01*
X116330030Y-50538870D01*
X116242380Y-50667333D01*
X116245192Y-50706425D01*
X116350336Y-50709383D01*
X116518947Y-50629432D01*
X116521883Y-50627517D01*
X116677447Y-50538462D01*
X116753115Y-50549983D01*
X116787989Y-50617105D01*
X116839699Y-50689936D01*
X116937727Y-50676053D01*
X117125131Y-50570817D01*
X117318731Y-50474553D01*
X117410449Y-50474958D01*
X117380969Y-50564357D01*
X117310400Y-50644400D01*
X117264878Y-50728205D01*
X117334544Y-50750636D01*
X117479245Y-50717718D01*
X117658827Y-50635478D01*
X117747706Y-50578775D01*
X117983679Y-50432953D01*
X118200046Y-50328859D01*
X118358834Y-50287237D01*
X118424279Y-50356411D01*
X118443937Y-50474917D01*
X118470334Y-50703666D01*
X118637317Y-50513166D01*
X118803131Y-50355546D01*
X118899239Y-50348248D01*
X118935184Y-50491948D01*
X118936000Y-50534333D01*
X118965968Y-50707260D01*
X119058945Y-50725812D01*
X119219542Y-50590649D01*
X119232334Y-50576666D01*
X119394768Y-50432932D01*
X119501364Y-50442510D01*
X119575908Y-50609267D01*
X119582220Y-50633557D01*
X119638998Y-50859781D01*
X119788287Y-50675418D01*
X119912134Y-50560727D01*
X119981507Y-50596656D01*
X119981802Y-50597361D01*
X120056149Y-50622325D01*
X120181953Y-50518494D01*
X120334160Y-50308132D01*
X120364291Y-50257448D01*
X120472517Y-50180458D01*
X120657703Y-50124940D01*
X120857231Y-50099865D01*
X121008484Y-50114200D01*
X121052667Y-50158848D01*
X120999001Y-50204789D01*
X120953364Y-50186620D01*
X120924039Y-50199866D01*
X120987136Y-50315088D01*
X120995697Y-50327462D01*
X121098727Y-50509393D01*
X121138263Y-50646709D01*
X121115354Y-50705453D01*
X121031046Y-50651669D01*
X120987285Y-50600051D01*
X120846399Y-50472819D01*
X120716275Y-50491483D01*
X120714000Y-50492921D01*
X120647255Y-50560425D01*
X120690232Y-50575370D01*
X120793421Y-50645341D01*
X120940252Y-50823345D01*
X121102204Y-51064229D01*
X121250761Y-51322838D01*
X121357403Y-51554015D01*
X121393356Y-51688655D01*
X121401812Y-51939855D01*
X121363299Y-52064071D01*
X121264051Y-52100364D01*
X121248152Y-52100666D01*
X121159917Y-52087517D01*
X121196626Y-52040356D01*
X121029504Y-52040356D01*
X120972366Y-52137715D01*
X120968000Y-52143000D01*
X120836717Y-52227711D01*
X120662588Y-52267627D01*
X120514383Y-52255680D01*
X120460000Y-52195208D01*
X120533380Y-52120124D01*
X120709747Y-52053301D01*
X120923442Y-52018249D01*
X120957201Y-52017156D01*
X121029504Y-52040356D01*
X121196626Y-52040356D01*
X121206680Y-52027441D01*
X121269318Y-51979713D01*
X121373741Y-51889000D01*
X120629334Y-51889000D01*
X120587000Y-51931333D01*
X120544667Y-51889000D01*
X120587000Y-51846666D01*
X120629334Y-51889000D01*
X121373741Y-51889000D01*
X121379077Y-51884365D01*
X121352181Y-51830128D01*
X121290847Y-51803373D01*
X121189384Y-51709500D01*
X121188693Y-51677333D01*
X120968000Y-51677333D01*
X120937022Y-51747023D01*
X120911556Y-51733777D01*
X120905360Y-51672336D01*
X120714000Y-51672336D01*
X120652540Y-51758554D01*
X120629334Y-51762000D01*
X120546868Y-51733113D01*
X120544667Y-51724663D01*
X120603996Y-51652377D01*
X120629334Y-51635000D01*
X120707353Y-51641712D01*
X120714000Y-51672336D01*
X120905360Y-51672336D01*
X120901423Y-51633298D01*
X120911556Y-51620888D01*
X120961890Y-51632511D01*
X120968000Y-51677333D01*
X121188693Y-51677333D01*
X121187974Y-51643884D01*
X121151210Y-51534533D01*
X121011835Y-51424136D01*
X120818929Y-51280168D01*
X120616355Y-51071084D01*
X120578331Y-51023441D01*
X120445905Y-50825735D01*
X120419582Y-50697793D01*
X120464855Y-50613150D01*
X120526265Y-50485240D01*
X120512988Y-50432098D01*
X120424392Y-50419606D01*
X120344334Y-50537762D01*
X120279290Y-50747891D01*
X120235735Y-51011320D01*
X120220145Y-51289375D01*
X120238996Y-51543383D01*
X120295787Y-51729232D01*
X120362653Y-51905278D01*
X120317453Y-51999317D01*
X120312390Y-52002574D01*
X120261715Y-52114743D01*
X120290293Y-52184728D01*
X120307577Y-52355075D01*
X120264657Y-52428607D01*
X120223523Y-52501433D01*
X120288815Y-52519520D01*
X120488864Y-52489872D01*
X120502334Y-52487370D01*
X120739288Y-52434014D01*
X120906481Y-52380103D01*
X120929658Y-52368256D01*
X120944097Y-52373192D01*
X120856778Y-52460500D01*
X120657809Y-52566244D01*
X120417466Y-52608666D01*
X120213098Y-52582630D01*
X120113171Y-52478396D01*
X120085589Y-52393106D01*
X120062027Y-52201630D01*
X120081407Y-52096772D01*
X120059956Y-52027528D01*
X119999331Y-52016000D01*
X119882930Y-52071085D01*
X119866037Y-52121833D01*
X119836767Y-52165907D01*
X119782667Y-52100666D01*
X119715814Y-52026776D01*
X119699297Y-52085547D01*
X119753526Y-52233055D01*
X119825000Y-52324428D01*
X119937866Y-52483217D01*
X119922694Y-52586260D01*
X119840475Y-52608666D01*
X119780929Y-52679084D01*
X119765917Y-52849383D01*
X119788481Y-53058129D01*
X119841660Y-53243889D01*
X119918495Y-53345231D01*
X119924172Y-53347443D01*
X119989555Y-53313931D01*
X119980296Y-53215723D01*
X119984669Y-53055897D01*
X120029291Y-52994225D01*
X120112502Y-52994248D01*
X120121334Y-53027003D01*
X120170515Y-53040848D01*
X120288964Y-52949031D01*
X120290667Y-52947333D01*
X120476955Y-52803308D01*
X120612286Y-52815119D01*
X120722347Y-52987607D01*
X120739917Y-53032000D01*
X120834701Y-53207780D01*
X120933003Y-53285772D01*
X120937405Y-53286000D01*
X120995201Y-53331121D01*
X120981127Y-53487109D01*
X120955004Y-53590272D01*
X120910880Y-53812186D01*
X120918089Y-53931739D01*
X120965818Y-53927091D01*
X121043255Y-53776402D01*
X121044954Y-53771952D01*
X121175996Y-53557176D01*
X121305545Y-53431782D01*
X121484444Y-53306476D01*
X121268556Y-53252291D01*
X121099377Y-53138969D01*
X121050041Y-52943998D01*
X121131008Y-52714991D01*
X121145759Y-52693333D01*
X121200663Y-52643427D01*
X121205172Y-52733163D01*
X121188577Y-52843173D01*
X121168041Y-53019539D01*
X121199492Y-53056217D01*
X121249267Y-53018782D01*
X121317666Y-52866416D01*
X121322542Y-52678441D01*
X121319502Y-52507892D01*
X121360558Y-52439273D01*
X121419296Y-52366365D01*
X121446219Y-52222110D01*
X121476575Y-52035935D01*
X121517309Y-51947003D01*
X121596827Y-51969628D01*
X121725455Y-52085581D01*
X121860482Y-52245914D01*
X121959199Y-52401678D01*
X121983823Y-52481666D01*
X122048229Y-52581733D01*
X122204589Y-52713447D01*
X122226221Y-52728275D01*
X122387045Y-52859598D01*
X122431023Y-53000321D01*
X122402714Y-53179482D01*
X122334604Y-53426378D01*
X122281024Y-53505979D01*
X122244499Y-53418073D01*
X122228264Y-53194277D01*
X122218527Y-52820333D01*
X122159163Y-53116666D01*
X122028020Y-53508548D01*
X121796996Y-53789687D01*
X121518334Y-53964802D01*
X121344979Y-54062744D01*
X121283804Y-54123793D01*
X121306667Y-54133755D01*
X121493800Y-54156352D01*
X121607859Y-54181766D01*
X121819541Y-54157292D01*
X121988859Y-54048829D01*
X122124306Y-53928608D01*
X122133717Y-53902910D01*
X122018887Y-53955203D01*
X121997916Y-53965412D01*
X121821234Y-54026229D01*
X121757068Y-54004963D01*
X121827804Y-53925473D01*
X121913249Y-53875181D01*
X122234649Y-53659356D01*
X122465379Y-53404091D01*
X122572817Y-53147741D01*
X122576667Y-53095260D01*
X122607231Y-52853577D01*
X122664313Y-52687767D01*
X122708725Y-52554660D01*
X122659316Y-52524000D01*
X122605978Y-52472305D01*
X122619000Y-52439333D01*
X122612288Y-52361314D01*
X122581664Y-52354666D01*
X122515803Y-52427752D01*
X122489519Y-52587500D01*
X122487037Y-52820333D01*
X122240125Y-52524000D01*
X122030039Y-52280485D01*
X121819343Y-52048986D01*
X121776941Y-52004584D01*
X121634863Y-51843524D01*
X121562868Y-51733516D01*
X121560667Y-51722905D01*
X121623685Y-51606595D01*
X121776969Y-51447496D01*
X121858200Y-51381000D01*
X121730000Y-51381000D01*
X121687667Y-51423333D01*
X121645334Y-51381000D01*
X121687667Y-51338666D01*
X121730000Y-51381000D01*
X121858200Y-51381000D01*
X121966871Y-51292042D01*
X122139737Y-51186669D01*
X122202585Y-51167319D01*
X122551717Y-51149738D01*
X122791430Y-51201636D01*
X122974504Y-51343857D01*
X123108083Y-51524947D01*
X123243604Y-51764205D01*
X123326513Y-51968888D01*
X123338667Y-52037944D01*
X123374184Y-52143945D01*
X123423334Y-52143000D01*
X123489974Y-52168923D01*
X123508000Y-52265003D01*
X123545162Y-52413002D01*
X123643322Y-52414397D01*
X123782491Y-52271293D01*
X123808399Y-52233344D01*
X123879815Y-52053348D01*
X123674334Y-52053348D01*
X123663861Y-52161225D01*
X123620884Y-52133126D01*
X123550334Y-52016000D01*
X123460386Y-51816671D01*
X123429027Y-51677333D01*
X123451759Y-51612732D01*
X123533657Y-51689574D01*
X123553027Y-51714682D01*
X123651478Y-51916896D01*
X123674334Y-52053348D01*
X123879815Y-52053348D01*
X123888260Y-52032065D01*
X123839246Y-51835795D01*
X123650133Y-51612339D01*
X123565273Y-51535941D01*
X123431004Y-51391833D01*
X123383261Y-51230240D01*
X123398437Y-50985608D01*
X123442186Y-50783270D01*
X123511564Y-50593488D01*
X123586932Y-50452299D01*
X123648650Y-50395741D01*
X123677078Y-50459850D01*
X123677334Y-50473857D01*
X123737817Y-50569948D01*
X123771059Y-50576666D01*
X123829006Y-50515594D01*
X123818425Y-50455856D01*
X123836018Y-50306857D01*
X123894033Y-50233823D01*
X123993251Y-50175781D01*
X124016000Y-50232629D01*
X124067093Y-50292834D01*
X124100667Y-50280333D01*
X124182151Y-50156465D01*
X124185330Y-50127169D01*
X124103304Y-50063717D01*
X123856454Y-50030634D01*
X123641557Y-50025282D01*
X123347132Y-50028433D01*
X123179873Y-50050932D01*
X123097625Y-50110196D01*
X123058230Y-50223637D01*
X123048586Y-50270236D01*
X123042927Y-50485745D01*
X123094727Y-50631120D01*
X123140921Y-50727967D01*
X123065527Y-50744199D01*
X122893118Y-50684700D01*
X122648267Y-50554357D01*
X122619000Y-50536541D01*
X122389775Y-50411837D01*
X122204186Y-50339145D01*
X122153334Y-50331259D01*
X122077542Y-50344747D01*
X122159388Y-50390344D01*
X122163604Y-50392117D01*
X122303018Y-50491272D01*
X122480876Y-50667188D01*
X122530772Y-50724605D01*
X122707096Y-50903199D01*
X122861367Y-50963056D01*
X122986168Y-50950590D01*
X123126007Y-50931746D01*
X123112106Y-50971271D01*
X123096795Y-50982568D01*
X123031968Y-51072902D01*
X123075628Y-51121413D01*
X123163989Y-51237996D01*
X123169334Y-51272119D01*
X123117672Y-51290561D01*
X122993188Y-51205681D01*
X122990902Y-51203622D01*
X122788961Y-51105426D01*
X122491365Y-51051155D01*
X122164049Y-51042966D01*
X121872947Y-51083013D01*
X121697300Y-51161338D01*
X121598426Y-51222155D01*
X121563779Y-51153003D01*
X121560667Y-51052700D01*
X121587730Y-50888681D01*
X121643238Y-50830666D01*
X121682275Y-50763110D01*
X121641418Y-50608701D01*
X121602528Y-50377939D01*
X121645675Y-50279922D01*
X121672501Y-50195666D01*
X121560667Y-50195666D01*
X121518334Y-50238000D01*
X121476000Y-50195666D01*
X121518334Y-50153333D01*
X121560667Y-50195666D01*
X121672501Y-50195666D01*
X121679420Y-50173937D01*
X121605161Y-50123544D01*
X121491703Y-50037040D01*
X121476000Y-49991919D01*
X121544278Y-49931243D01*
X121704209Y-49925060D01*
X121888445Y-49969629D01*
X121984000Y-50020145D01*
X122065909Y-50071199D01*
X122034490Y-50014289D01*
X121994800Y-49962833D01*
X121926422Y-49850475D01*
X121993598Y-49816263D01*
X122055643Y-49814666D01*
X122185224Y-49775632D01*
X122185507Y-49691721D01*
X122161256Y-49521282D01*
X122238081Y-49464771D01*
X122382720Y-49533023D01*
X122457249Y-49603179D01*
X122589105Y-49725433D01*
X122658298Y-49750521D01*
X122661334Y-49739358D01*
X122599405Y-49620863D01*
X122573223Y-49600871D01*
X122518189Y-49484886D01*
X122527314Y-49405374D01*
X122517119Y-49349000D01*
X121814667Y-49349000D01*
X121772334Y-49391333D01*
X121730000Y-49349000D01*
X121772334Y-49306666D01*
X121814667Y-49349000D01*
X122517119Y-49349000D01*
X122499809Y-49253290D01*
X122432569Y-49179666D01*
X122238000Y-49179666D01*
X122195667Y-49222000D01*
X122153334Y-49179666D01*
X122195667Y-49137333D01*
X122238000Y-49179666D01*
X122432569Y-49179666D01*
X122371167Y-49112435D01*
X122200898Y-49025781D01*
X122048508Y-49036301D01*
X122032173Y-49047820D01*
X121924576Y-49089039D01*
X121866613Y-49004853D01*
X121843370Y-48849015D01*
X121858107Y-48796876D01*
X121842789Y-48695200D01*
X121815450Y-48672150D01*
X121718671Y-48691068D01*
X121718671Y-48691068D01*
G37*
X121718671Y-48691068D02*
X121674732Y-48759511D01*
X121683877Y-48915521D01*
X121736457Y-48971990D01*
X121800068Y-49040130D01*
X121707175Y-49099224D01*
X121703938Y-49100471D01*
X121596232Y-49211811D01*
X121601441Y-49301753D01*
X121596619Y-49471652D01*
X121523652Y-49693101D01*
X121512731Y-49715792D01*
X121422934Y-50019970D01*
X121430305Y-50222693D01*
X121443109Y-50476693D01*
X121406612Y-50664825D01*
X121361035Y-50760909D01*
X121317029Y-50755719D01*
X121258472Y-50628665D01*
X121170574Y-50363363D01*
X121010334Y-49857000D01*
X120630995Y-49830012D01*
X120287246Y-49773141D01*
X120102172Y-49661909D01*
X120073613Y-49494931D01*
X120079000Y-49476000D01*
X120076349Y-49302505D01*
X119932212Y-49197746D01*
X119640925Y-49159537D01*
X119299429Y-49175300D01*
X118919638Y-49206677D01*
X118531876Y-49233313D01*
X118290613Y-49246183D01*
X118031083Y-49272997D01*
X117899976Y-49322274D01*
X117891231Y-49353816D01*
X117840793Y-49435664D01*
X117674419Y-49549905D01*
X117520618Y-49628439D01*
X117286275Y-49758300D01*
X117018819Y-49940666D01*
X116749476Y-50149144D01*
X116509471Y-50357343D01*
X116330030Y-50538870D01*
X116242380Y-50667333D01*
X116245192Y-50706425D01*
X116350336Y-50709383D01*
X116518947Y-50629432D01*
X116521883Y-50627517D01*
X116677447Y-50538462D01*
X116753115Y-50549983D01*
X116787989Y-50617105D01*
X116839699Y-50689936D01*
X116937727Y-50676053D01*
X117125131Y-50570817D01*
X117318731Y-50474553D01*
X117410449Y-50474958D01*
X117380969Y-50564357D01*
X117310400Y-50644400D01*
X117264878Y-50728205D01*
X117334544Y-50750636D01*
X117479245Y-50717718D01*
X117658827Y-50635478D01*
X117747706Y-50578775D01*
X117983679Y-50432953D01*
X118200046Y-50328859D01*
X118358834Y-50287237D01*
X118424279Y-50356411D01*
X118443937Y-50474917D01*
X118470334Y-50703666D01*
X118637317Y-50513166D01*
X118803131Y-50355546D01*
X118899239Y-50348248D01*
X118935184Y-50491948D01*
X118936000Y-50534333D01*
X118965968Y-50707260D01*
X119058945Y-50725812D01*
X119219542Y-50590649D01*
X119232334Y-50576666D01*
X119394768Y-50432932D01*
X119501364Y-50442510D01*
X119575908Y-50609267D01*
X119582220Y-50633557D01*
X119638998Y-50859781D01*
X119788287Y-50675418D01*
X119912134Y-50560727D01*
X119981507Y-50596656D01*
X119981802Y-50597361D01*
X120056149Y-50622325D01*
X120181953Y-50518494D01*
X120334160Y-50308132D01*
X120364291Y-50257448D01*
X120472517Y-50180458D01*
X120657703Y-50124940D01*
X120857231Y-50099865D01*
X121008484Y-50114200D01*
X121052667Y-50158848D01*
X120999001Y-50204789D01*
X120953364Y-50186620D01*
X120924039Y-50199866D01*
X120987136Y-50315088D01*
X120995697Y-50327462D01*
X121098727Y-50509393D01*
X121138263Y-50646709D01*
X121115354Y-50705453D01*
X121031046Y-50651669D01*
X120987285Y-50600051D01*
X120846399Y-50472819D01*
X120716275Y-50491483D01*
X120714000Y-50492921D01*
X120647255Y-50560425D01*
X120690232Y-50575370D01*
X120793421Y-50645341D01*
X120940252Y-50823345D01*
X121102204Y-51064229D01*
X121250761Y-51322838D01*
X121357403Y-51554015D01*
X121393356Y-51688655D01*
X121401812Y-51939855D01*
X121363299Y-52064071D01*
X121264051Y-52100364D01*
X121248152Y-52100666D01*
X121159917Y-52087517D01*
X121196626Y-52040356D01*
X121029504Y-52040356D01*
X120972366Y-52137715D01*
X120968000Y-52143000D01*
X120836717Y-52227711D01*
X120662588Y-52267627D01*
X120514383Y-52255680D01*
X120460000Y-52195208D01*
X120533380Y-52120124D01*
X120709747Y-52053301D01*
X120923442Y-52018249D01*
X120957201Y-52017156D01*
X121029504Y-52040356D01*
X121196626Y-52040356D01*
X121206680Y-52027441D01*
X121269318Y-51979713D01*
X121373741Y-51889000D01*
X120629334Y-51889000D01*
X120587000Y-51931333D01*
X120544667Y-51889000D01*
X120587000Y-51846666D01*
X120629334Y-51889000D01*
X121373741Y-51889000D01*
X121379077Y-51884365D01*
X121352181Y-51830128D01*
X121290847Y-51803373D01*
X121189384Y-51709500D01*
X121188693Y-51677333D01*
X120968000Y-51677333D01*
X120937022Y-51747023D01*
X120911556Y-51733777D01*
X120905360Y-51672336D01*
X120714000Y-51672336D01*
X120652540Y-51758554D01*
X120629334Y-51762000D01*
X120546868Y-51733113D01*
X120544667Y-51724663D01*
X120603996Y-51652377D01*
X120629334Y-51635000D01*
X120707353Y-51641712D01*
X120714000Y-51672336D01*
X120905360Y-51672336D01*
X120901423Y-51633298D01*
X120911556Y-51620888D01*
X120961890Y-51632511D01*
X120968000Y-51677333D01*
X121188693Y-51677333D01*
X121187974Y-51643884D01*
X121151210Y-51534533D01*
X121011835Y-51424136D01*
X120818929Y-51280168D01*
X120616355Y-51071084D01*
X120578331Y-51023441D01*
X120445905Y-50825735D01*
X120419582Y-50697793D01*
X120464855Y-50613150D01*
X120526265Y-50485240D01*
X120512988Y-50432098D01*
X120424392Y-50419606D01*
X120344334Y-50537762D01*
X120279290Y-50747891D01*
X120235735Y-51011320D01*
X120220145Y-51289375D01*
X120238996Y-51543383D01*
X120295787Y-51729232D01*
X120362653Y-51905278D01*
X120317453Y-51999317D01*
X120312390Y-52002574D01*
X120261715Y-52114743D01*
X120290293Y-52184728D01*
X120307577Y-52355075D01*
X120264657Y-52428607D01*
X120223523Y-52501433D01*
X120288815Y-52519520D01*
X120488864Y-52489872D01*
X120502334Y-52487370D01*
X120739288Y-52434014D01*
X120906481Y-52380103D01*
X120929658Y-52368256D01*
X120944097Y-52373192D01*
X120856778Y-52460500D01*
X120657809Y-52566244D01*
X120417466Y-52608666D01*
X120213098Y-52582630D01*
X120113171Y-52478396D01*
X120085589Y-52393106D01*
X120062027Y-52201630D01*
X120081407Y-52096772D01*
X120059956Y-52027528D01*
X119999331Y-52016000D01*
X119882930Y-52071085D01*
X119866037Y-52121833D01*
X119836767Y-52165907D01*
X119782667Y-52100666D01*
X119715814Y-52026776D01*
X119699297Y-52085547D01*
X119753526Y-52233055D01*
X119825000Y-52324428D01*
X119937866Y-52483217D01*
X119922694Y-52586260D01*
X119840475Y-52608666D01*
X119780929Y-52679084D01*
X119765917Y-52849383D01*
X119788481Y-53058129D01*
X119841660Y-53243889D01*
X119918495Y-53345231D01*
X119924172Y-53347443D01*
X119989555Y-53313931D01*
X119980296Y-53215723D01*
X119984669Y-53055897D01*
X120029291Y-52994225D01*
X120112502Y-52994248D01*
X120121334Y-53027003D01*
X120170515Y-53040848D01*
X120288964Y-52949031D01*
X120290667Y-52947333D01*
X120476955Y-52803308D01*
X120612286Y-52815119D01*
X120722347Y-52987607D01*
X120739917Y-53032000D01*
X120834701Y-53207780D01*
X120933003Y-53285772D01*
X120937405Y-53286000D01*
X120995201Y-53331121D01*
X120981127Y-53487109D01*
X120955004Y-53590272D01*
X120910880Y-53812186D01*
X120918089Y-53931739D01*
X120965818Y-53927091D01*
X121043255Y-53776402D01*
X121044954Y-53771952D01*
X121175996Y-53557176D01*
X121305545Y-53431782D01*
X121484444Y-53306476D01*
X121268556Y-53252291D01*
X121099377Y-53138969D01*
X121050041Y-52943998D01*
X121131008Y-52714991D01*
X121145759Y-52693333D01*
X121200663Y-52643427D01*
X121205172Y-52733163D01*
X121188577Y-52843173D01*
X121168041Y-53019539D01*
X121199492Y-53056217D01*
X121249267Y-53018782D01*
X121317666Y-52866416D01*
X121322542Y-52678441D01*
X121319502Y-52507892D01*
X121360558Y-52439273D01*
X121419296Y-52366365D01*
X121446219Y-52222110D01*
X121476575Y-52035935D01*
X121517309Y-51947003D01*
X121596827Y-51969628D01*
X121725455Y-52085581D01*
X121860482Y-52245914D01*
X121959199Y-52401678D01*
X121983823Y-52481666D01*
X122048229Y-52581733D01*
X122204589Y-52713447D01*
X122226221Y-52728275D01*
X122387045Y-52859598D01*
X122431023Y-53000321D01*
X122402714Y-53179482D01*
X122334604Y-53426378D01*
X122281024Y-53505979D01*
X122244499Y-53418073D01*
X122228264Y-53194277D01*
X122218527Y-52820333D01*
X122159163Y-53116666D01*
X122028020Y-53508548D01*
X121796996Y-53789687D01*
X121518334Y-53964802D01*
X121344979Y-54062744D01*
X121283804Y-54123793D01*
X121306667Y-54133755D01*
X121493800Y-54156352D01*
X121607859Y-54181766D01*
X121819541Y-54157292D01*
X121988859Y-54048829D01*
X122124306Y-53928608D01*
X122133717Y-53902910D01*
X122018887Y-53955203D01*
X121997916Y-53965412D01*
X121821234Y-54026229D01*
X121757068Y-54004963D01*
X121827804Y-53925473D01*
X121913249Y-53875181D01*
X122234649Y-53659356D01*
X122465379Y-53404091D01*
X122572817Y-53147741D01*
X122576667Y-53095260D01*
X122607231Y-52853577D01*
X122664313Y-52687767D01*
X122708725Y-52554660D01*
X122659316Y-52524000D01*
X122605978Y-52472305D01*
X122619000Y-52439333D01*
X122612288Y-52361314D01*
X122581664Y-52354666D01*
X122515803Y-52427752D01*
X122489519Y-52587500D01*
X122487037Y-52820333D01*
X122240125Y-52524000D01*
X122030039Y-52280485D01*
X121819343Y-52048986D01*
X121776941Y-52004584D01*
X121634863Y-51843524D01*
X121562868Y-51733516D01*
X121560667Y-51722905D01*
X121623685Y-51606595D01*
X121776969Y-51447496D01*
X121858200Y-51381000D01*
X121730000Y-51381000D01*
X121687667Y-51423333D01*
X121645334Y-51381000D01*
X121687667Y-51338666D01*
X121730000Y-51381000D01*
X121858200Y-51381000D01*
X121966871Y-51292042D01*
X122139737Y-51186669D01*
X122202585Y-51167319D01*
X122551717Y-51149738D01*
X122791430Y-51201636D01*
X122974504Y-51343857D01*
X123108083Y-51524947D01*
X123243604Y-51764205D01*
X123326513Y-51968888D01*
X123338667Y-52037944D01*
X123374184Y-52143945D01*
X123423334Y-52143000D01*
X123489974Y-52168923D01*
X123508000Y-52265003D01*
X123545162Y-52413002D01*
X123643322Y-52414397D01*
X123782491Y-52271293D01*
X123808399Y-52233344D01*
X123879815Y-52053348D01*
X123674334Y-52053348D01*
X123663861Y-52161225D01*
X123620884Y-52133126D01*
X123550334Y-52016000D01*
X123460386Y-51816671D01*
X123429027Y-51677333D01*
X123451759Y-51612732D01*
X123533657Y-51689574D01*
X123553027Y-51714682D01*
X123651478Y-51916896D01*
X123674334Y-52053348D01*
X123879815Y-52053348D01*
X123888260Y-52032065D01*
X123839246Y-51835795D01*
X123650133Y-51612339D01*
X123565273Y-51535941D01*
X123431004Y-51391833D01*
X123383261Y-51230240D01*
X123398437Y-50985608D01*
X123442186Y-50783270D01*
X123511564Y-50593488D01*
X123586932Y-50452299D01*
X123648650Y-50395741D01*
X123677078Y-50459850D01*
X123677334Y-50473857D01*
X123737817Y-50569948D01*
X123771059Y-50576666D01*
X123829006Y-50515594D01*
X123818425Y-50455856D01*
X123836018Y-50306857D01*
X123894033Y-50233823D01*
X123993251Y-50175781D01*
X124016000Y-50232629D01*
X124067093Y-50292834D01*
X124100667Y-50280333D01*
X124182151Y-50156465D01*
X124185330Y-50127169D01*
X124103304Y-50063717D01*
X123856454Y-50030634D01*
X123641557Y-50025282D01*
X123347132Y-50028433D01*
X123179873Y-50050932D01*
X123097625Y-50110196D01*
X123058230Y-50223637D01*
X123048586Y-50270236D01*
X123042927Y-50485745D01*
X123094727Y-50631120D01*
X123140921Y-50727967D01*
X123065527Y-50744199D01*
X122893118Y-50684700D01*
X122648267Y-50554357D01*
X122619000Y-50536541D01*
X122389775Y-50411837D01*
X122204186Y-50339145D01*
X122153334Y-50331259D01*
X122077542Y-50344747D01*
X122159388Y-50390344D01*
X122163604Y-50392117D01*
X122303018Y-50491272D01*
X122480876Y-50667188D01*
X122530772Y-50724605D01*
X122707096Y-50903199D01*
X122861367Y-50963056D01*
X122986168Y-50950590D01*
X123126007Y-50931746D01*
X123112106Y-50971271D01*
X123096795Y-50982568D01*
X123031968Y-51072902D01*
X123075628Y-51121413D01*
X123163989Y-51237996D01*
X123169334Y-51272119D01*
X123117672Y-51290561D01*
X122993188Y-51205681D01*
X122990902Y-51203622D01*
X122788961Y-51105426D01*
X122491365Y-51051155D01*
X122164049Y-51042966D01*
X121872947Y-51083013D01*
X121697300Y-51161338D01*
X121598426Y-51222155D01*
X121563779Y-51153003D01*
X121560667Y-51052700D01*
X121587730Y-50888681D01*
X121643238Y-50830666D01*
X121682275Y-50763110D01*
X121641418Y-50608701D01*
X121602528Y-50377939D01*
X121645675Y-50279922D01*
X121672501Y-50195666D01*
X121560667Y-50195666D01*
X121518334Y-50238000D01*
X121476000Y-50195666D01*
X121518334Y-50153333D01*
X121560667Y-50195666D01*
X121672501Y-50195666D01*
X121679420Y-50173937D01*
X121605161Y-50123544D01*
X121491703Y-50037040D01*
X121476000Y-49991919D01*
X121544278Y-49931243D01*
X121704209Y-49925060D01*
X121888445Y-49969629D01*
X121984000Y-50020145D01*
X122065909Y-50071199D01*
X122034490Y-50014289D01*
X121994800Y-49962833D01*
X121926422Y-49850475D01*
X121993598Y-49816263D01*
X122055643Y-49814666D01*
X122185224Y-49775632D01*
X122185507Y-49691721D01*
X122161256Y-49521282D01*
X122238081Y-49464771D01*
X122382720Y-49533023D01*
X122457249Y-49603179D01*
X122589105Y-49725433D01*
X122658298Y-49750521D01*
X122661334Y-49739358D01*
X122599405Y-49620863D01*
X122573223Y-49600871D01*
X122518189Y-49484886D01*
X122527314Y-49405374D01*
X122517119Y-49349000D01*
X121814667Y-49349000D01*
X121772334Y-49391333D01*
X121730000Y-49349000D01*
X121772334Y-49306666D01*
X121814667Y-49349000D01*
X122517119Y-49349000D01*
X122499809Y-49253290D01*
X122432569Y-49179666D01*
X122238000Y-49179666D01*
X122195667Y-49222000D01*
X122153334Y-49179666D01*
X122195667Y-49137333D01*
X122238000Y-49179666D01*
X122432569Y-49179666D01*
X122371167Y-49112435D01*
X122200898Y-49025781D01*
X122048508Y-49036301D01*
X122032173Y-49047820D01*
X121924576Y-49089039D01*
X121866613Y-49004853D01*
X121843370Y-48849015D01*
X121858107Y-48796876D01*
X121842789Y-48695200D01*
X121815450Y-48672150D01*
X121718671Y-48691068D01*
G36*
X123673730Y-53338006D02*
X123564600Y-53450459D01*
X123515120Y-53558012D01*
X123524677Y-53584898D01*
X123603370Y-53560637D01*
X123719197Y-53455852D01*
X123802677Y-53334333D01*
X123785490Y-53286000D01*
X123673730Y-53338006D01*
X123673730Y-53338006D01*
G37*
X123673730Y-53338006D02*
X123564600Y-53450459D01*
X123515120Y-53558012D01*
X123524677Y-53584898D01*
X123603370Y-53560637D01*
X123719197Y-53455852D01*
X123802677Y-53334333D01*
X123785490Y-53286000D01*
X123673730Y-53338006D01*
G36*
X123879542Y-52715638D02*
X123762000Y-52778000D01*
X123682658Y-52843753D01*
X123758917Y-52861083D01*
X123778170Y-52861370D01*
X123931257Y-52818226D01*
X123973667Y-52778000D01*
X123980499Y-52703207D01*
X123879542Y-52715638D01*
X123879542Y-52715638D01*
G37*
X123879542Y-52715638D02*
X123762000Y-52778000D01*
X123682658Y-52843753D01*
X123758917Y-52861083D01*
X123778170Y-52861370D01*
X123931257Y-52818226D01*
X123973667Y-52778000D01*
X123980499Y-52703207D01*
X123879542Y-52715638D01*
G36*
X123367261Y-52333500D02*
X123356078Y-52506842D01*
X123367261Y-52545166D01*
X123398163Y-52555802D01*
X123409965Y-52439333D01*
X123396660Y-52319137D01*
X123367261Y-52333500D01*
X123367261Y-52333500D01*
G37*
X123367261Y-52333500D02*
X123356078Y-52506842D01*
X123367261Y-52545166D01*
X123398163Y-52555802D01*
X123409965Y-52439333D01*
X123396660Y-52319137D01*
X123367261Y-52333500D01*
G36*
X112920960Y-51396263D02*
X112903500Y-51400743D01*
X112870840Y-51495688D01*
X112847922Y-51711641D01*
X112840000Y-51978663D01*
X112848614Y-52285756D01*
X112879366Y-52455795D01*
X112939624Y-52520416D01*
X112967000Y-52524000D01*
X113046866Y-52478680D01*
X113085874Y-52321772D01*
X113094000Y-52100666D01*
X113102916Y-51846749D01*
X113140757Y-51720111D01*
X113224167Y-51679144D01*
X113263334Y-51677333D01*
X113369154Y-51702262D01*
X113419193Y-51805775D01*
X113432603Y-52030962D01*
X113432667Y-52058333D01*
X113449288Y-52309455D01*
X113505801Y-52423841D01*
X113559667Y-52439333D01*
X113647974Y-52383410D01*
X113684362Y-52198030D01*
X113686667Y-52100666D01*
X113698220Y-51882469D01*
X113752714Y-51785488D01*
X113879901Y-51762120D01*
X113898334Y-51762000D01*
X114029585Y-51778071D01*
X114091348Y-51856705D01*
X114109308Y-52043528D01*
X114110000Y-52138003D01*
X114132717Y-52415652D01*
X114194971Y-52565331D01*
X114287919Y-52568814D01*
X114309858Y-52549920D01*
X114338241Y-52442751D01*
X114357844Y-52218125D01*
X114364000Y-51968520D01*
X114364000Y-51441263D01*
X113665500Y-51404711D01*
X113335667Y-51391537D01*
X113072735Y-51388644D01*
X112920960Y-51396263D01*
X112920960Y-51396263D01*
G37*
X112920960Y-51396263D02*
X112903500Y-51400743D01*
X112870840Y-51495688D01*
X112847922Y-51711641D01*
X112840000Y-51978663D01*
X112848614Y-52285756D01*
X112879366Y-52455795D01*
X112939624Y-52520416D01*
X112967000Y-52524000D01*
X113046866Y-52478680D01*
X113085874Y-52321772D01*
X113094000Y-52100666D01*
X113102916Y-51846749D01*
X113140757Y-51720111D01*
X113224167Y-51679144D01*
X113263334Y-51677333D01*
X113369154Y-51702262D01*
X113419193Y-51805775D01*
X113432603Y-52030962D01*
X113432667Y-52058333D01*
X113449288Y-52309455D01*
X113505801Y-52423841D01*
X113559667Y-52439333D01*
X113647974Y-52383410D01*
X113684362Y-52198030D01*
X113686667Y-52100666D01*
X113698220Y-51882469D01*
X113752714Y-51785488D01*
X113879901Y-51762120D01*
X113898334Y-51762000D01*
X114029585Y-51778071D01*
X114091348Y-51856705D01*
X114109308Y-52043528D01*
X114110000Y-52138003D01*
X114132717Y-52415652D01*
X114194971Y-52565331D01*
X114287919Y-52568814D01*
X114309858Y-52549920D01*
X114338241Y-52442751D01*
X114357844Y-52218125D01*
X114364000Y-51968520D01*
X114364000Y-51441263D01*
X113665500Y-51404711D01*
X113335667Y-51391537D01*
X113072735Y-51388644D01*
X112920960Y-51396263D01*
G36*
X122322667Y-52312333D02*
X122365000Y-52354666D01*
X122407334Y-52312333D01*
X122365000Y-52270000D01*
X122322667Y-52312333D01*
X122322667Y-52312333D01*
G37*
X122322667Y-52312333D02*
X122365000Y-52354666D01*
X122407334Y-52312333D01*
X122365000Y-52270000D01*
X122322667Y-52312333D01*
G36*
X122604889Y-52128888D02*
X122594756Y-52229368D01*
X122604889Y-52241777D01*
X122655224Y-52230155D01*
X122661334Y-52185333D01*
X122630356Y-52115643D01*
X122604889Y-52128888D01*
X122604889Y-52128888D01*
G37*
X122604889Y-52128888D02*
X122594756Y-52229368D01*
X122604889Y-52241777D01*
X122655224Y-52230155D01*
X122661334Y-52185333D01*
X122630356Y-52115643D01*
X122604889Y-52128888D01*
G36*
X122604889Y-51874888D02*
X122594756Y-51975368D01*
X122604889Y-51987777D01*
X122655224Y-51976155D01*
X122661334Y-51931333D01*
X122630356Y-51861643D01*
X122604889Y-51874888D01*
X122604889Y-51874888D01*
G37*
X122604889Y-51874888D02*
X122594756Y-51975368D01*
X122604889Y-51987777D01*
X122655224Y-51976155D01*
X122661334Y-51931333D01*
X122630356Y-51861643D01*
X122604889Y-51874888D01*
G36*
X121899334Y-51889000D02*
X121941667Y-51931333D01*
X121984000Y-51889000D01*
X121941667Y-51846666D01*
X121899334Y-51889000D01*
X121899334Y-51889000D01*
G37*
X121899334Y-51889000D02*
X121941667Y-51931333D01*
X121984000Y-51889000D01*
X121941667Y-51846666D01*
X121899334Y-51889000D01*
G36*
X123000000Y-51719666D02*
X123042334Y-51762000D01*
X123084667Y-51719666D01*
X123042334Y-51677333D01*
X123000000Y-51719666D01*
X123000000Y-51719666D01*
G37*
X123000000Y-51719666D02*
X123042334Y-51762000D01*
X123084667Y-51719666D01*
X123042334Y-51677333D01*
X123000000Y-51719666D01*
G36*
X121814667Y-51635000D02*
X121857000Y-51677333D01*
X121899334Y-51635000D01*
X121857000Y-51592666D01*
X121814667Y-51635000D01*
X121814667Y-51635000D01*
G37*
X121814667Y-51635000D02*
X121857000Y-51677333D01*
X121899334Y-51635000D01*
X121857000Y-51592666D01*
X121814667Y-51635000D01*
G36*
X122089834Y-50620013D02*
X121919462Y-50648262D01*
X121864056Y-50654855D01*
X121830027Y-50701797D01*
X121842155Y-50717043D01*
X121844529Y-50818848D01*
X121803566Y-50886376D01*
X121752534Y-50980395D01*
X121810645Y-50986944D01*
X121946248Y-50912632D01*
X122047500Y-50835445D01*
X122204768Y-50685794D01*
X122217605Y-50616237D01*
X122089834Y-50620013D01*
X122089834Y-50620013D01*
G37*
X122089834Y-50620013D02*
X121919462Y-50648262D01*
X121864056Y-50654855D01*
X121830027Y-50701797D01*
X121842155Y-50717043D01*
X121844529Y-50818848D01*
X121803566Y-50886376D01*
X121752534Y-50980395D01*
X121810645Y-50986944D01*
X121946248Y-50912632D01*
X122047500Y-50835445D01*
X122204768Y-50685794D01*
X122217605Y-50616237D01*
X122089834Y-50620013D01*
G36*
X113256382Y-49468171D02*
X113093659Y-49669424D01*
X113012972Y-49951201D01*
X113009334Y-50028238D01*
X113051931Y-50270440D01*
X113159145Y-50442138D01*
X113271209Y-50492000D01*
X113356224Y-50424353D01*
X113390563Y-50283283D01*
X113355826Y-50161598D01*
X113339409Y-50148023D01*
X113284414Y-50039280D01*
X113294270Y-49875277D01*
X113351723Y-49726606D01*
X113439521Y-49663858D01*
X113456956Y-49667050D01*
X113525033Y-49764086D01*
X113582463Y-49972794D01*
X113602000Y-50107898D01*
X113682471Y-50441726D01*
X113833440Y-50640079D01*
X114043308Y-50691325D01*
X114155273Y-50662750D01*
X114400718Y-50488141D01*
X114534962Y-50230590D01*
X114546781Y-49941896D01*
X114424950Y-49673856D01*
X114380346Y-49624049D01*
X114250565Y-49508700D01*
X114183784Y-49512929D01*
X114146159Y-49588560D01*
X114148461Y-49769727D01*
X114194650Y-49856978D01*
X114254790Y-50020875D01*
X114236977Y-50213450D01*
X114157691Y-50364172D01*
X114066054Y-50407333D01*
X113950880Y-50395571D01*
X113935402Y-50386166D01*
X113923562Y-50297297D01*
X113899730Y-50097180D01*
X113886835Y-49985164D01*
X113823955Y-49657340D01*
X113715471Y-49469787D01*
X113542440Y-49395556D01*
X113469434Y-49391333D01*
X113256382Y-49468171D01*
X113256382Y-49468171D01*
G37*
X113256382Y-49468171D02*
X113093659Y-49669424D01*
X113012972Y-49951201D01*
X113009334Y-50028238D01*
X113051931Y-50270440D01*
X113159145Y-50442138D01*
X113271209Y-50492000D01*
X113356224Y-50424353D01*
X113390563Y-50283283D01*
X113355826Y-50161598D01*
X113339409Y-50148023D01*
X113284414Y-50039280D01*
X113294270Y-49875277D01*
X113351723Y-49726606D01*
X113439521Y-49663858D01*
X113456956Y-49667050D01*
X113525033Y-49764086D01*
X113582463Y-49972794D01*
X113602000Y-50107898D01*
X113682471Y-50441726D01*
X113833440Y-50640079D01*
X114043308Y-50691325D01*
X114155273Y-50662750D01*
X114400718Y-50488141D01*
X114534962Y-50230590D01*
X114546781Y-49941896D01*
X114424950Y-49673856D01*
X114380346Y-49624049D01*
X114250565Y-49508700D01*
X114183784Y-49512929D01*
X114146159Y-49588560D01*
X114148461Y-49769727D01*
X114194650Y-49856978D01*
X114254790Y-50020875D01*
X114236977Y-50213450D01*
X114157691Y-50364172D01*
X114066054Y-50407333D01*
X113950880Y-50395571D01*
X113935402Y-50386166D01*
X113923562Y-50297297D01*
X113899730Y-50097180D01*
X113886835Y-49985164D01*
X113823955Y-49657340D01*
X113715471Y-49469787D01*
X113542440Y-49395556D01*
X113469434Y-49391333D01*
X113256382Y-49468171D01*
G36*
X132159037Y-49300187D02*
X131891099Y-49378014D01*
X131539775Y-49529985D01*
X131347970Y-49723406D01*
X131308083Y-49972427D01*
X131406901Y-50279533D01*
X131520299Y-50475449D01*
X131652464Y-50555718D01*
X131867464Y-50565608D01*
X132167559Y-50534310D01*
X132490447Y-50471789D01*
X132537121Y-50459775D01*
X132755573Y-50387745D01*
X132887570Y-50319406D01*
X132903305Y-50299383D01*
X132902416Y-50172847D01*
X132807300Y-50118269D01*
X132594770Y-50130996D01*
X132332092Y-50184764D01*
X132035890Y-50248158D01*
X131855933Y-50265632D01*
X131745432Y-50237017D01*
X131677149Y-50182386D01*
X131565769Y-50034958D01*
X131583140Y-49902651D01*
X131616130Y-49847244D01*
X131665473Y-49791091D01*
X131752856Y-49742193D01*
X131914358Y-49687042D01*
X132186058Y-49612131D01*
X132376834Y-49562442D01*
X132615683Y-49473791D01*
X132731276Y-49371419D01*
X132736667Y-49345736D01*
X132675160Y-49251303D01*
X132485290Y-49236018D01*
X132159037Y-49300187D01*
X132159037Y-49300187D01*
G37*
X132159037Y-49300187D02*
X131891099Y-49378014D01*
X131539775Y-49529985D01*
X131347970Y-49723406D01*
X131308083Y-49972427D01*
X131406901Y-50279533D01*
X131520299Y-50475449D01*
X131652464Y-50555718D01*
X131867464Y-50565608D01*
X132167559Y-50534310D01*
X132490447Y-50471789D01*
X132537121Y-50459775D01*
X132755573Y-50387745D01*
X132887570Y-50319406D01*
X132903305Y-50299383D01*
X132902416Y-50172847D01*
X132807300Y-50118269D01*
X132594770Y-50130996D01*
X132332092Y-50184764D01*
X132035890Y-50248158D01*
X131855933Y-50265632D01*
X131745432Y-50237017D01*
X131677149Y-50182386D01*
X131565769Y-50034958D01*
X131583140Y-49902651D01*
X131616130Y-49847244D01*
X131665473Y-49791091D01*
X131752856Y-49742193D01*
X131914358Y-49687042D01*
X132186058Y-49612131D01*
X132376834Y-49562442D01*
X132615683Y-49473791D01*
X132731276Y-49371419D01*
X132736667Y-49345736D01*
X132675160Y-49251303D01*
X132485290Y-49236018D01*
X132159037Y-49300187D01*
G36*
X120632779Y-50299460D02*
X120629334Y-50322666D01*
X120658221Y-50405132D01*
X120666670Y-50407333D01*
X120738956Y-50348004D01*
X120756334Y-50322666D01*
X120749621Y-50244647D01*
X120718997Y-50238000D01*
X120632779Y-50299460D01*
X120632779Y-50299460D01*
G37*
X120632779Y-50299460D02*
X120629334Y-50322666D01*
X120658221Y-50405132D01*
X120666670Y-50407333D01*
X120738956Y-50348004D01*
X120756334Y-50322666D01*
X120749621Y-50244647D01*
X120718997Y-50238000D01*
X120632779Y-50299460D01*
G36*
X126925423Y-46955439D02*
X126775499Y-47120281D01*
X126550274Y-47287909D01*
X126230128Y-47468934D01*
X125795443Y-47673969D01*
X125226598Y-47913628D01*
X124947334Y-48025430D01*
X124460236Y-48223182D01*
X124053740Y-48398011D01*
X123745305Y-48541592D01*
X123552385Y-48645599D01*
X123492438Y-48701708D01*
X123513787Y-48709122D01*
X123644919Y-48759964D01*
X123819320Y-48881681D01*
X123999124Y-49038729D01*
X124146464Y-49195568D01*
X124223475Y-49316657D01*
X124210741Y-49363280D01*
X124150997Y-49458823D01*
X124184169Y-49599936D01*
X124225720Y-49765505D01*
X124215206Y-49841238D01*
X124238415Y-49919201D01*
X124338380Y-50049813D01*
X124463570Y-50175195D01*
X124562455Y-50237468D01*
X124568450Y-50238000D01*
X124614169Y-50165133D01*
X124662607Y-49989436D01*
X124663464Y-49985180D01*
X124714028Y-49732360D01*
X124964850Y-49943413D01*
X125172874Y-50088357D01*
X125290336Y-50092353D01*
X125323192Y-49953583D01*
X125310995Y-49837854D01*
X125274032Y-49603000D01*
X125487622Y-49835833D01*
X125669274Y-50014138D01*
X125765296Y-50052210D01*
X125785580Y-49949634D01*
X125766266Y-49824161D01*
X125717365Y-49579656D01*
X126073183Y-49688921D01*
X126359229Y-49781439D01*
X126620190Y-49873165D01*
X126667346Y-49891093D01*
X126878574Y-49966172D01*
X126955012Y-49960635D01*
X126916878Y-49862026D01*
X126860120Y-49772333D01*
X126776765Y-49614695D01*
X126810746Y-49571260D01*
X126965618Y-49641418D01*
X127106334Y-49730000D01*
X127326385Y-49861571D01*
X127443813Y-49886689D01*
X127485545Y-49807943D01*
X127487334Y-49766627D01*
X127529475Y-49676329D01*
X127677834Y-49693579D01*
X127885889Y-49757677D01*
X127995334Y-49790485D01*
X128027446Y-49772235D01*
X127954027Y-49679360D01*
X127805439Y-49538262D01*
X127612044Y-49375344D01*
X127404207Y-49217008D01*
X127212289Y-49089655D01*
X127148667Y-49054268D01*
X126864883Y-48927674D01*
X126547860Y-48811857D01*
X126495273Y-48795528D01*
X126291200Y-48716190D01*
X126187867Y-48638876D01*
X126186107Y-48611362D01*
X126149011Y-48572047D01*
X125985691Y-48580935D01*
X125949620Y-48587217D01*
X125650706Y-48592518D01*
X125412119Y-48535357D01*
X125159454Y-48472237D01*
X124858190Y-48450472D01*
X124799167Y-48452700D01*
X124579679Y-48455793D01*
X124452276Y-48436954D01*
X124439334Y-48424224D01*
X124515378Y-48347428D01*
X124721872Y-48236028D01*
X125026357Y-48101625D01*
X125396378Y-47955822D01*
X125799475Y-47810221D01*
X126203191Y-47676424D01*
X126575068Y-47566032D01*
X126882650Y-47490647D01*
X127093478Y-47461871D01*
X127127500Y-47463347D01*
X127328559Y-47449521D01*
X127405946Y-47340913D01*
X127362427Y-47126899D01*
X127268370Y-46921889D01*
X127134074Y-46662188D01*
X126925423Y-46955439D01*
X126925423Y-46955439D01*
G37*
X126925423Y-46955439D02*
X126775499Y-47120281D01*
X126550274Y-47287909D01*
X126230128Y-47468934D01*
X125795443Y-47673969D01*
X125226598Y-47913628D01*
X124947334Y-48025430D01*
X124460236Y-48223182D01*
X124053740Y-48398011D01*
X123745305Y-48541592D01*
X123552385Y-48645599D01*
X123492438Y-48701708D01*
X123513787Y-48709122D01*
X123644919Y-48759964D01*
X123819320Y-48881681D01*
X123999124Y-49038729D01*
X124146464Y-49195568D01*
X124223475Y-49316657D01*
X124210741Y-49363280D01*
X124150997Y-49458823D01*
X124184169Y-49599936D01*
X124225720Y-49765505D01*
X124215206Y-49841238D01*
X124238415Y-49919201D01*
X124338380Y-50049813D01*
X124463570Y-50175195D01*
X124562455Y-50237468D01*
X124568450Y-50238000D01*
X124614169Y-50165133D01*
X124662607Y-49989436D01*
X124663464Y-49985180D01*
X124714028Y-49732360D01*
X124964850Y-49943413D01*
X125172874Y-50088357D01*
X125290336Y-50092353D01*
X125323192Y-49953583D01*
X125310995Y-49837854D01*
X125274032Y-49603000D01*
X125487622Y-49835833D01*
X125669274Y-50014138D01*
X125765296Y-50052210D01*
X125785580Y-49949634D01*
X125766266Y-49824161D01*
X125717365Y-49579656D01*
X126073183Y-49688921D01*
X126359229Y-49781439D01*
X126620190Y-49873165D01*
X126667346Y-49891093D01*
X126878574Y-49966172D01*
X126955012Y-49960635D01*
X126916878Y-49862026D01*
X126860120Y-49772333D01*
X126776765Y-49614695D01*
X126810746Y-49571260D01*
X126965618Y-49641418D01*
X127106334Y-49730000D01*
X127326385Y-49861571D01*
X127443813Y-49886689D01*
X127485545Y-49807943D01*
X127487334Y-49766627D01*
X127529475Y-49676329D01*
X127677834Y-49693579D01*
X127885889Y-49757677D01*
X127995334Y-49790485D01*
X128027446Y-49772235D01*
X127954027Y-49679360D01*
X127805439Y-49538262D01*
X127612044Y-49375344D01*
X127404207Y-49217008D01*
X127212289Y-49089655D01*
X127148667Y-49054268D01*
X126864883Y-48927674D01*
X126547860Y-48811857D01*
X126495273Y-48795528D01*
X126291200Y-48716190D01*
X126187867Y-48638876D01*
X126186107Y-48611362D01*
X126149011Y-48572047D01*
X125985691Y-48580935D01*
X125949620Y-48587217D01*
X125650706Y-48592518D01*
X125412119Y-48535357D01*
X125159454Y-48472237D01*
X124858190Y-48450472D01*
X124799167Y-48452700D01*
X124579679Y-48455793D01*
X124452276Y-48436954D01*
X124439334Y-48424224D01*
X124515378Y-48347428D01*
X124721872Y-48236028D01*
X125026357Y-48101625D01*
X125396378Y-47955822D01*
X125799475Y-47810221D01*
X126203191Y-47676424D01*
X126575068Y-47566032D01*
X126882650Y-47490647D01*
X127093478Y-47461871D01*
X127127500Y-47463347D01*
X127328559Y-47449521D01*
X127405946Y-47340913D01*
X127362427Y-47126899D01*
X127268370Y-46921889D01*
X127134074Y-46662188D01*
X126925423Y-46955439D01*
G36*
X122882099Y-49809574D02*
X122866953Y-49900542D01*
X122877282Y-50046758D01*
X122920204Y-50038573D01*
X122962227Y-49976622D01*
X122966420Y-49841745D01*
X122943033Y-49808498D01*
X122882099Y-49809574D01*
X122882099Y-49809574D01*
G37*
X122882099Y-49809574D02*
X122866953Y-49900542D01*
X122877282Y-50046758D01*
X122920204Y-50038573D01*
X122962227Y-49976622D01*
X122966420Y-49841745D01*
X122943033Y-49808498D01*
X122882099Y-49809574D01*
G36*
X123087095Y-48767550D02*
X122957667Y-48855083D01*
X122862450Y-48944450D01*
X122908572Y-48949391D01*
X122926183Y-48943673D01*
X123095643Y-48951475D01*
X123159017Y-48991549D01*
X123238451Y-49151100D01*
X123244911Y-49342492D01*
X123180117Y-49484324D01*
X123148167Y-49504593D01*
X123089942Y-49542878D01*
X123153164Y-49553982D01*
X123223316Y-49607453D01*
X123211667Y-49645333D01*
X123252474Y-49697220D01*
X123404646Y-49735857D01*
X123610254Y-49751645D01*
X123783167Y-49740026D01*
X123844667Y-49793926D01*
X123846667Y-49814666D01*
X123912246Y-49895409D01*
X123940392Y-49899333D01*
X123995380Y-49837146D01*
X123982364Y-49764467D01*
X123929807Y-49603000D01*
X123846667Y-49603000D01*
X123804334Y-49645333D01*
X123762000Y-49603000D01*
X123804334Y-49560666D01*
X123846667Y-49603000D01*
X123929807Y-49603000D01*
X123921936Y-49578821D01*
X123874923Y-49407720D01*
X123830145Y-49261256D01*
X123791236Y-49267805D01*
X123754235Y-49352086D01*
X123707625Y-49447373D01*
X123687943Y-49393350D01*
X123683285Y-49288798D01*
X123676098Y-49264333D01*
X123423334Y-49264333D01*
X123381000Y-49306666D01*
X123338667Y-49264333D01*
X123381000Y-49222000D01*
X123423334Y-49264333D01*
X123676098Y-49264333D01*
X123623010Y-49083636D01*
X123484468Y-48882056D01*
X123316542Y-48744019D01*
X123216869Y-48716692D01*
X123087095Y-48767550D01*
X123087095Y-48767550D01*
G37*
X123087095Y-48767550D02*
X122957667Y-48855083D01*
X122862450Y-48944450D01*
X122908572Y-48949391D01*
X122926183Y-48943673D01*
X123095643Y-48951475D01*
X123159017Y-48991549D01*
X123238451Y-49151100D01*
X123244911Y-49342492D01*
X123180117Y-49484324D01*
X123148167Y-49504593D01*
X123089942Y-49542878D01*
X123153164Y-49553982D01*
X123223316Y-49607453D01*
X123211667Y-49645333D01*
X123252474Y-49697220D01*
X123404646Y-49735857D01*
X123610254Y-49751645D01*
X123783167Y-49740026D01*
X123844667Y-49793926D01*
X123846667Y-49814666D01*
X123912246Y-49895409D01*
X123940392Y-49899333D01*
X123995380Y-49837146D01*
X123982364Y-49764467D01*
X123929807Y-49603000D01*
X123846667Y-49603000D01*
X123804334Y-49645333D01*
X123762000Y-49603000D01*
X123804334Y-49560666D01*
X123846667Y-49603000D01*
X123929807Y-49603000D01*
X123921936Y-49578821D01*
X123874923Y-49407720D01*
X123830145Y-49261256D01*
X123791236Y-49267805D01*
X123754235Y-49352086D01*
X123707625Y-49447373D01*
X123687943Y-49393350D01*
X123683285Y-49288798D01*
X123676098Y-49264333D01*
X123423334Y-49264333D01*
X123381000Y-49306666D01*
X123338667Y-49264333D01*
X123381000Y-49222000D01*
X123423334Y-49264333D01*
X123676098Y-49264333D01*
X123623010Y-49083636D01*
X123484468Y-48882056D01*
X123316542Y-48744019D01*
X123216869Y-48716692D01*
X123087095Y-48767550D01*
G36*
X122504909Y-49035439D02*
X122492000Y-49066777D01*
X122556145Y-49135979D01*
X122571670Y-49137333D01*
X122688041Y-49076676D01*
X122694946Y-49066777D01*
X122669045Y-49004932D01*
X122615276Y-48996222D01*
X122504909Y-49035439D01*
X122504909Y-49035439D01*
G37*
X122504909Y-49035439D02*
X122492000Y-49066777D01*
X122556145Y-49135979D01*
X122571670Y-49137333D01*
X122688041Y-49076676D01*
X122694946Y-49066777D01*
X122669045Y-49004932D01*
X122615276Y-48996222D01*
X122504909Y-49035439D01*
G36*
X131758956Y-47220791D02*
X131582146Y-47289945D01*
X131291968Y-47420913D01*
X131124267Y-47498379D01*
X130803101Y-47651883D01*
X130612859Y-47760397D01*
X130528208Y-47844175D01*
X130523814Y-47923470D01*
X130541781Y-47964046D01*
X130699644Y-48091724D01*
X130940479Y-48131350D01*
X131232865Y-48153996D01*
X131503027Y-48194784D01*
X131509000Y-48196055D01*
X131645896Y-48229753D01*
X131676961Y-48265311D01*
X131586234Y-48323593D01*
X131357755Y-48425464D01*
X131321556Y-48441077D01*
X131053216Y-48574752D01*
X130932919Y-48684810D01*
X130928448Y-48757372D01*
X130961836Y-48831352D01*
X131011739Y-48863282D01*
X131109140Y-48845347D01*
X131285023Y-48769733D01*
X131570369Y-48628623D01*
X131701916Y-48562274D01*
X132055902Y-48367811D01*
X132248726Y-48217047D01*
X132280186Y-48101101D01*
X132150083Y-48011091D01*
X131858217Y-47938133D01*
X131687225Y-47910422D01*
X131105478Y-47825000D01*
X131497739Y-47635600D01*
X131721448Y-47504555D01*
X131863481Y-47377089D01*
X131890000Y-47318100D01*
X131884801Y-47241480D01*
X131850480Y-47206840D01*
X131758956Y-47220791D01*
X131758956Y-47220791D01*
G37*
X131758956Y-47220791D02*
X131582146Y-47289945D01*
X131291968Y-47420913D01*
X131124267Y-47498379D01*
X130803101Y-47651883D01*
X130612859Y-47760397D01*
X130528208Y-47844175D01*
X130523814Y-47923470D01*
X130541781Y-47964046D01*
X130699644Y-48091724D01*
X130940479Y-48131350D01*
X131232865Y-48153996D01*
X131503027Y-48194784D01*
X131509000Y-48196055D01*
X131645896Y-48229753D01*
X131676961Y-48265311D01*
X131586234Y-48323593D01*
X131357755Y-48425464D01*
X131321556Y-48441077D01*
X131053216Y-48574752D01*
X130932919Y-48684810D01*
X130928448Y-48757372D01*
X130961836Y-48831352D01*
X131011739Y-48863282D01*
X131109140Y-48845347D01*
X131285023Y-48769733D01*
X131570369Y-48628623D01*
X131701916Y-48562274D01*
X132055902Y-48367811D01*
X132248726Y-48217047D01*
X132280186Y-48101101D01*
X132150083Y-48011091D01*
X131858217Y-47938133D01*
X131687225Y-47910422D01*
X131105478Y-47825000D01*
X131497739Y-47635600D01*
X131721448Y-47504555D01*
X131863481Y-47377089D01*
X131890000Y-47318100D01*
X131884801Y-47241480D01*
X131850480Y-47206840D01*
X131758956Y-47220791D01*
G36*
X122181556Y-48826888D02*
X122193178Y-48877223D01*
X122238000Y-48883333D01*
X122307691Y-48852355D01*
X122294445Y-48826888D01*
X122193965Y-48816755D01*
X122181556Y-48826888D01*
X122181556Y-48826888D01*
G37*
X122181556Y-48826888D02*
X122193178Y-48877223D01*
X122238000Y-48883333D01*
X122307691Y-48852355D01*
X122294445Y-48826888D01*
X122193965Y-48816755D01*
X122181556Y-48826888D01*
G36*
X122068667Y-48671666D02*
X122111000Y-48714000D01*
X122153334Y-48671666D01*
X122111000Y-48629333D01*
X122068667Y-48671666D01*
X122068667Y-48671666D01*
G37*
X122068667Y-48671666D02*
X122111000Y-48714000D01*
X122153334Y-48671666D01*
X122111000Y-48629333D01*
X122068667Y-48671666D01*
G36*
X114452904Y-46757399D02*
X114439203Y-46778209D01*
X114355478Y-46916565D01*
X114222911Y-47134551D01*
X114153956Y-47247681D01*
X114027606Y-47484452D01*
X114005118Y-47619989D01*
X114039934Y-47664689D01*
X114160173Y-47655022D01*
X114231763Y-47575802D01*
X114421767Y-47293810D01*
X114577943Y-47156954D01*
X114718629Y-47149276D01*
X114720827Y-47150106D01*
X114800185Y-47198747D01*
X114798743Y-47283937D01*
X114709546Y-47449778D01*
X114661395Y-47526985D01*
X114550064Y-47730126D01*
X114503731Y-47871201D01*
X114509921Y-47900365D01*
X114648181Y-47949066D01*
X114794076Y-47832703D01*
X114897283Y-47655666D01*
X115024602Y-47435742D01*
X115136940Y-47369361D01*
X115259538Y-47445578D01*
X115293350Y-47483942D01*
X115344107Y-47598323D01*
X115301298Y-47751006D01*
X115219050Y-47896102D01*
X115075813Y-48167483D01*
X115053205Y-48325161D01*
X115147167Y-48373664D01*
X115241941Y-48304749D01*
X115383863Y-48126779D01*
X115524147Y-47908027D01*
X115795293Y-47444059D01*
X115352088Y-47160544D01*
X114995637Y-46935547D01*
X114753714Y-46793716D01*
X114600098Y-46724068D01*
X114508568Y-46715624D01*
X114452904Y-46757399D01*
X114452904Y-46757399D01*
G37*
X114452904Y-46757399D02*
X114439203Y-46778209D01*
X114355478Y-46916565D01*
X114222911Y-47134551D01*
X114153956Y-47247681D01*
X114027606Y-47484452D01*
X114005118Y-47619989D01*
X114039934Y-47664689D01*
X114160173Y-47655022D01*
X114231763Y-47575802D01*
X114421767Y-47293810D01*
X114577943Y-47156954D01*
X114718629Y-47149276D01*
X114720827Y-47150106D01*
X114800185Y-47198747D01*
X114798743Y-47283937D01*
X114709546Y-47449778D01*
X114661395Y-47526985D01*
X114550064Y-47730126D01*
X114503731Y-47871201D01*
X114509921Y-47900365D01*
X114648181Y-47949066D01*
X114794076Y-47832703D01*
X114897283Y-47655666D01*
X115024602Y-47435742D01*
X115136940Y-47369361D01*
X115259538Y-47445578D01*
X115293350Y-47483942D01*
X115344107Y-47598323D01*
X115301298Y-47751006D01*
X115219050Y-47896102D01*
X115075813Y-48167483D01*
X115053205Y-48325161D01*
X115147167Y-48373664D01*
X115241941Y-48304749D01*
X115383863Y-48126779D01*
X115524147Y-47908027D01*
X115795293Y-47444059D01*
X115352088Y-47160544D01*
X114995637Y-46935547D01*
X114753714Y-46793716D01*
X114600098Y-46724068D01*
X114508568Y-46715624D01*
X114452904Y-46757399D01*
G36*
X130928750Y-46499609D02*
X130682028Y-46640191D01*
X130426401Y-46811886D01*
X130201502Y-46988034D01*
X130046959Y-47141975D01*
X130002405Y-47247047D01*
X130002953Y-47248585D01*
X130065220Y-47332214D01*
X130175415Y-47333509D01*
X130358962Y-47243787D01*
X130641285Y-47054365D01*
X130704667Y-47008930D01*
X131005628Y-46789094D01*
X131188752Y-46643413D01*
X131274838Y-46548815D01*
X131284685Y-46482224D01*
X131239094Y-46420568D01*
X131236962Y-46418428D01*
X131126938Y-46416801D01*
X130928750Y-46499609D01*
X130928750Y-46499609D01*
G37*
X130928750Y-46499609D02*
X130682028Y-46640191D01*
X130426401Y-46811886D01*
X130201502Y-46988034D01*
X130046959Y-47141975D01*
X130002405Y-47247047D01*
X130002953Y-47248585D01*
X130065220Y-47332214D01*
X130175415Y-47333509D01*
X130358962Y-47243787D01*
X130641285Y-47054365D01*
X130704667Y-47008930D01*
X131005628Y-46789094D01*
X131188752Y-46643413D01*
X131274838Y-46548815D01*
X131284685Y-46482224D01*
X131239094Y-46420568D01*
X131236962Y-46418428D01*
X131126938Y-46416801D01*
X130928750Y-46499609D01*
G36*
X115782871Y-45066953D02*
X115705866Y-45127251D01*
X115550550Y-45300270D01*
X115387874Y-45526667D01*
X115372937Y-45550428D01*
X115266652Y-45747627D01*
X115253370Y-45891659D01*
X115324670Y-46064198D01*
X115550558Y-46381369D01*
X115823498Y-46580525D01*
X116111983Y-46646181D01*
X116364357Y-46575179D01*
X116538823Y-46439821D01*
X116732219Y-46244358D01*
X116759341Y-46212647D01*
X116914714Y-46026392D01*
X116499278Y-46026392D01*
X116482828Y-46116174D01*
X116423923Y-46189924D01*
X116211472Y-46326756D01*
X115976392Y-46297037D01*
X115757152Y-46135515D01*
X115595081Y-45941774D01*
X115559604Y-45777118D01*
X115636709Y-45576273D01*
X115636979Y-45575767D01*
X115739283Y-45446533D01*
X115866276Y-45433852D01*
X116045522Y-45544478D01*
X116242975Y-45724257D01*
X116425034Y-45910441D01*
X116499278Y-46026392D01*
X116914714Y-46026392D01*
X116974301Y-45954962D01*
X116421083Y-45467802D01*
X116153338Y-45235603D01*
X115979139Y-45101593D01*
X115866360Y-45050476D01*
X115782871Y-45066953D01*
X115782871Y-45066953D01*
G37*
X115782871Y-45066953D02*
X115705866Y-45127251D01*
X115550550Y-45300270D01*
X115387874Y-45526667D01*
X115372937Y-45550428D01*
X115266652Y-45747627D01*
X115253370Y-45891659D01*
X115324670Y-46064198D01*
X115550558Y-46381369D01*
X115823498Y-46580525D01*
X116111983Y-46646181D01*
X116364357Y-46575179D01*
X116538823Y-46439821D01*
X116732219Y-46244358D01*
X116759341Y-46212647D01*
X116914714Y-46026392D01*
X116499278Y-46026392D01*
X116482828Y-46116174D01*
X116423923Y-46189924D01*
X116211472Y-46326756D01*
X115976392Y-46297037D01*
X115757152Y-46135515D01*
X115595081Y-45941774D01*
X115559604Y-45777118D01*
X115636709Y-45576273D01*
X115636979Y-45575767D01*
X115739283Y-45446533D01*
X115866276Y-45433852D01*
X116045522Y-45544478D01*
X116242975Y-45724257D01*
X116425034Y-45910441D01*
X116499278Y-46026392D01*
X116914714Y-46026392D01*
X116974301Y-45954962D01*
X116421083Y-45467802D01*
X116153338Y-45235603D01*
X115979139Y-45101593D01*
X115866360Y-45050476D01*
X115782871Y-45066953D01*
G36*
X129729951Y-44805552D02*
X129612388Y-44995779D01*
X129462105Y-45271706D01*
X129374895Y-45443426D01*
X129202803Y-45808553D01*
X129111751Y-46051981D01*
X129094488Y-46196501D01*
X129118960Y-46247759D01*
X129192256Y-46306760D01*
X129280871Y-46325435D01*
X129417427Y-46295827D01*
X129634547Y-46209976D01*
X129964853Y-46059925D01*
X130048500Y-46020981D01*
X130345232Y-45876317D01*
X130572086Y-45753758D01*
X130693538Y-45672995D01*
X130704667Y-45657215D01*
X130635820Y-45565006D01*
X130449533Y-45553518D01*
X130176190Y-45620878D01*
X129974468Y-45702264D01*
X129733619Y-45806357D01*
X129568635Y-45865859D01*
X129519334Y-45870167D01*
X129554578Y-45778599D01*
X129645615Y-45584250D01*
X129736770Y-45400614D01*
X129867209Y-45088852D01*
X129904698Y-44863659D01*
X129847363Y-44746497D01*
X129794860Y-44734666D01*
X129729951Y-44805552D01*
X129729951Y-44805552D01*
G37*
X129729951Y-44805552D02*
X129612388Y-44995779D01*
X129462105Y-45271706D01*
X129374895Y-45443426D01*
X129202803Y-45808553D01*
X129111751Y-46051981D01*
X129094488Y-46196501D01*
X129118960Y-46247759D01*
X129192256Y-46306760D01*
X129280871Y-46325435D01*
X129417427Y-46295827D01*
X129634547Y-46209976D01*
X129964853Y-46059925D01*
X130048500Y-46020981D01*
X130345232Y-45876317D01*
X130572086Y-45753758D01*
X130693538Y-45672995D01*
X130704667Y-45657215D01*
X130635820Y-45565006D01*
X130449533Y-45553518D01*
X130176190Y-45620878D01*
X129974468Y-45702264D01*
X129733619Y-45806357D01*
X129568635Y-45865859D01*
X129519334Y-45870167D01*
X129554578Y-45778599D01*
X129645615Y-45584250D01*
X129736770Y-45400614D01*
X129867209Y-45088852D01*
X129904698Y-44863659D01*
X129847363Y-44746497D01*
X129794860Y-44734666D01*
X129729951Y-44805552D01*
G36*
X128248367Y-43685979D02*
X128244051Y-43690082D01*
X128241246Y-43789415D01*
X128392761Y-43935025D01*
X128456850Y-43980472D01*
X128682541Y-44170681D01*
X128755850Y-44326190D01*
X128686811Y-44429592D01*
X128580136Y-44412860D01*
X128394844Y-44319368D01*
X128310658Y-44265497D01*
X128076576Y-44141921D01*
X127947816Y-44138911D01*
X127939456Y-44233749D01*
X128066574Y-44403720D01*
X128161604Y-44490059D01*
X128351921Y-44690858D01*
X128393305Y-44846682D01*
X128390211Y-44856033D01*
X128299560Y-44969824D01*
X128148316Y-44958129D01*
X127915462Y-44817967D01*
X127867210Y-44781882D01*
X127665678Y-44653464D01*
X127538858Y-44643327D01*
X127500901Y-44670299D01*
X127485493Y-44753385D01*
X127586206Y-44878463D01*
X127818588Y-45064118D01*
X127848683Y-45086019D01*
X128083599Y-45251341D01*
X128261689Y-45368054D01*
X128340222Y-45409268D01*
X128406539Y-45345426D01*
X128542008Y-45172619D01*
X128722037Y-44922905D01*
X128801567Y-44807861D01*
X129214357Y-44203723D01*
X128971812Y-44010325D01*
X128634211Y-43768747D01*
X128394295Y-43661174D01*
X128248367Y-43685979D01*
X128248367Y-43685979D01*
G37*
X128248367Y-43685979D02*
X128244051Y-43690082D01*
X128241246Y-43789415D01*
X128392761Y-43935025D01*
X128456850Y-43980472D01*
X128682541Y-44170681D01*
X128755850Y-44326190D01*
X128686811Y-44429592D01*
X128580136Y-44412860D01*
X128394844Y-44319368D01*
X128310658Y-44265497D01*
X128076576Y-44141921D01*
X127947816Y-44138911D01*
X127939456Y-44233749D01*
X128066574Y-44403720D01*
X128161604Y-44490059D01*
X128351921Y-44690858D01*
X128393305Y-44846682D01*
X128390211Y-44856033D01*
X128299560Y-44969824D01*
X128148316Y-44958129D01*
X127915462Y-44817967D01*
X127867210Y-44781882D01*
X127665678Y-44653464D01*
X127538858Y-44643327D01*
X127500901Y-44670299D01*
X127485493Y-44753385D01*
X127586206Y-44878463D01*
X127818588Y-45064118D01*
X127848683Y-45086019D01*
X128083599Y-45251341D01*
X128261689Y-45368054D01*
X128340222Y-45409268D01*
X128406539Y-45345426D01*
X128542008Y-45172619D01*
X128722037Y-44922905D01*
X128801567Y-44807861D01*
X129214357Y-44203723D01*
X128971812Y-44010325D01*
X128634211Y-43768747D01*
X128394295Y-43661174D01*
X128248367Y-43685979D01*
G36*
X118247419Y-43272947D02*
X118058165Y-43356090D01*
X117959570Y-43408634D01*
X117659006Y-43651422D01*
X117516560Y-43942501D01*
X117534750Y-44263356D01*
X117716096Y-44595475D01*
X117786915Y-44677765D01*
X118013590Y-44851688D01*
X118264759Y-44888017D01*
X118573098Y-44787959D01*
X118716115Y-44712107D01*
X118912623Y-44581244D01*
X119024820Y-44470562D01*
X119035591Y-44438333D01*
X119016263Y-44391425D01*
X118670072Y-44391425D01*
X118668298Y-44432493D01*
X118544188Y-44510522D01*
X118376907Y-44596097D01*
X118252843Y-44645683D01*
X118241809Y-44647425D01*
X118158501Y-44587837D01*
X118020782Y-44435423D01*
X117966643Y-44366841D01*
X117832162Y-44175199D01*
X117756638Y-44037832D01*
X117750667Y-44013674D01*
X117812704Y-43881238D01*
X117952217Y-43734140D01*
X118099310Y-43641119D01*
X118136744Y-43634000D01*
X118221511Y-43696690D01*
X118349573Y-43852367D01*
X118488584Y-44052442D01*
X118606199Y-44248325D01*
X118670072Y-44391425D01*
X119016263Y-44391425D01*
X118989068Y-44325426D01*
X118880436Y-44118218D01*
X118736503Y-43862788D01*
X118584076Y-43605216D01*
X118449966Y-43391583D01*
X118360979Y-43267969D01*
X118347478Y-43255561D01*
X118247419Y-43272947D01*
X118247419Y-43272947D01*
G37*
X118247419Y-43272947D02*
X118058165Y-43356090D01*
X117959570Y-43408634D01*
X117659006Y-43651422D01*
X117516560Y-43942501D01*
X117534750Y-44263356D01*
X117716096Y-44595475D01*
X117786915Y-44677765D01*
X118013590Y-44851688D01*
X118264759Y-44888017D01*
X118573098Y-44787959D01*
X118716115Y-44712107D01*
X118912623Y-44581244D01*
X119024820Y-44470562D01*
X119035591Y-44438333D01*
X119016263Y-44391425D01*
X118670072Y-44391425D01*
X118668298Y-44432493D01*
X118544188Y-44510522D01*
X118376907Y-44596097D01*
X118252843Y-44645683D01*
X118241809Y-44647425D01*
X118158501Y-44587837D01*
X118020782Y-44435423D01*
X117966643Y-44366841D01*
X117832162Y-44175199D01*
X117756638Y-44037832D01*
X117750667Y-44013674D01*
X117812704Y-43881238D01*
X117952217Y-43734140D01*
X118099310Y-43641119D01*
X118136744Y-43634000D01*
X118221511Y-43696690D01*
X118349573Y-43852367D01*
X118488584Y-44052442D01*
X118606199Y-44248325D01*
X118670072Y-44391425D01*
X119016263Y-44391425D01*
X118989068Y-44325426D01*
X118880436Y-44118218D01*
X118736503Y-43862788D01*
X118584076Y-43605216D01*
X118449966Y-43391583D01*
X118360979Y-43267969D01*
X118347478Y-43255561D01*
X118247419Y-43272947D01*
G36*
X126469585Y-42808703D02*
X126293305Y-42932902D01*
X126230062Y-43175711D01*
X126243382Y-43338383D01*
X126254298Y-43561777D01*
X126190844Y-43635882D01*
X126057079Y-43685260D01*
X125879220Y-43799962D01*
X125742817Y-43915324D01*
X125734666Y-43977284D01*
X125826838Y-44023071D01*
X126026764Y-44019824D01*
X126315409Y-43903534D01*
X126343083Y-43888683D01*
X126623686Y-43763623D01*
X126790177Y-43753989D01*
X126837330Y-43857597D01*
X126763897Y-44064624D01*
X126688742Y-44258964D01*
X126681402Y-44392361D01*
X126684537Y-44398486D01*
X126779677Y-44477776D01*
X126891845Y-44420784D01*
X127029053Y-44218668D01*
X127199314Y-43862592D01*
X127225460Y-43801795D01*
X127350947Y-43496041D01*
X127393704Y-43381511D01*
X127045352Y-43381511D01*
X127038081Y-43410089D01*
X126952266Y-43530437D01*
X126818777Y-43517794D01*
X126636576Y-43393711D01*
X126516795Y-43238878D01*
X126523437Y-43105539D01*
X126651673Y-43041991D01*
X126671815Y-43041333D01*
X126855492Y-43097682D01*
X126998431Y-43229626D01*
X127045352Y-43381511D01*
X127393704Y-43381511D01*
X127440413Y-43256396D01*
X127480553Y-43119538D01*
X127479460Y-43101504D01*
X127387635Y-43055272D01*
X127199661Y-42967297D01*
X127124628Y-42932989D01*
X126749746Y-42807328D01*
X126469585Y-42808703D01*
X126469585Y-42808703D01*
G37*
X126469585Y-42808703D02*
X126293305Y-42932902D01*
X126230062Y-43175711D01*
X126243382Y-43338383D01*
X126254298Y-43561777D01*
X126190844Y-43635882D01*
X126057079Y-43685260D01*
X125879220Y-43799962D01*
X125742817Y-43915324D01*
X125734666Y-43977284D01*
X125826838Y-44023071D01*
X126026764Y-44019824D01*
X126315409Y-43903534D01*
X126343083Y-43888683D01*
X126623686Y-43763623D01*
X126790177Y-43753989D01*
X126837330Y-43857597D01*
X126763897Y-44064624D01*
X126688742Y-44258964D01*
X126681402Y-44392361D01*
X126684537Y-44398486D01*
X126779677Y-44477776D01*
X126891845Y-44420784D01*
X127029053Y-44218668D01*
X127199314Y-43862592D01*
X127225460Y-43801795D01*
X127350947Y-43496041D01*
X127393704Y-43381511D01*
X127045352Y-43381511D01*
X127038081Y-43410089D01*
X126952266Y-43530437D01*
X126818777Y-43517794D01*
X126636576Y-43393711D01*
X126516795Y-43238878D01*
X126523437Y-43105539D01*
X126651673Y-43041991D01*
X126671815Y-43041333D01*
X126855492Y-43097682D01*
X126998431Y-43229626D01*
X127045352Y-43381511D01*
X127393704Y-43381511D01*
X127440413Y-43256396D01*
X127480553Y-43119538D01*
X127479460Y-43101504D01*
X127387635Y-43055272D01*
X127199661Y-42967297D01*
X127124628Y-42932989D01*
X126749746Y-42807328D01*
X126469585Y-42808703D01*
G36*
X119766588Y-42677287D02*
X119698730Y-42910199D01*
X119667006Y-43145329D01*
X119625182Y-43609783D01*
X119614479Y-43928563D01*
X119636375Y-44122716D01*
X119692349Y-44213288D01*
X119742991Y-44226666D01*
X119879816Y-44157649D01*
X119912324Y-44099666D01*
X119971996Y-43907073D01*
X119987496Y-43856561D01*
X120102286Y-43732139D01*
X120303130Y-43675181D01*
X120516356Y-43696934D01*
X120627046Y-43758929D01*
X120794937Y-43843949D01*
X120908592Y-43840503D01*
X120951868Y-43790107D01*
X120918459Y-43683847D01*
X120796172Y-43499834D01*
X120739143Y-43427409D01*
X120266596Y-43427409D01*
X120133446Y-43464558D01*
X120121334Y-43464666D01*
X120001797Y-43429217D01*
X119957482Y-43292953D01*
X119954817Y-43189500D01*
X119957634Y-42914333D01*
X120124151Y-43114213D01*
X120263464Y-43314856D01*
X120266596Y-43427409D01*
X120739143Y-43427409D01*
X120572813Y-43216179D01*
X120535236Y-43170258D01*
X120241825Y-42832557D01*
X120024802Y-42638083D01*
X119870834Y-42586454D01*
X119766588Y-42677287D01*
X119766588Y-42677287D01*
G37*
X119766588Y-42677287D02*
X119698730Y-42910199D01*
X119667006Y-43145329D01*
X119625182Y-43609783D01*
X119614479Y-43928563D01*
X119636375Y-44122716D01*
X119692349Y-44213288D01*
X119742991Y-44226666D01*
X119879816Y-44157649D01*
X119912324Y-44099666D01*
X119971996Y-43907073D01*
X119987496Y-43856561D01*
X120102286Y-43732139D01*
X120303130Y-43675181D01*
X120516356Y-43696934D01*
X120627046Y-43758929D01*
X120794937Y-43843949D01*
X120908592Y-43840503D01*
X120951868Y-43790107D01*
X120918459Y-43683847D01*
X120796172Y-43499834D01*
X120739143Y-43427409D01*
X120266596Y-43427409D01*
X120133446Y-43464558D01*
X120121334Y-43464666D01*
X120001797Y-43429217D01*
X119957482Y-43292953D01*
X119954817Y-43189500D01*
X119957634Y-42914333D01*
X120124151Y-43114213D01*
X120263464Y-43314856D01*
X120266596Y-43427409D01*
X120739143Y-43427409D01*
X120572813Y-43216179D01*
X120535236Y-43170258D01*
X120241825Y-42832557D01*
X120024802Y-42638083D01*
X119870834Y-42586454D01*
X119766588Y-42677287D01*
G36*
X124698852Y-42314730D02*
X124500617Y-42382608D01*
X124384360Y-42490719D01*
X124389062Y-42605155D01*
X124498586Y-42686847D01*
X124627180Y-42694179D01*
X124693145Y-42623704D01*
X124693334Y-42618000D01*
X124756915Y-42544662D01*
X124901046Y-42542536D01*
X125055809Y-42605163D01*
X125113772Y-42656844D01*
X125159284Y-42750187D01*
X125074438Y-42805760D01*
X124975972Y-42829298D01*
X124576967Y-42930683D01*
X124327636Y-43050452D01*
X124208327Y-43205544D01*
X124199389Y-43412895D01*
X124214689Y-43485435D01*
X124351602Y-43695902D01*
X124536124Y-43794872D01*
X124809285Y-43872607D01*
X124993979Y-43865224D01*
X125152164Y-43765374D01*
X125204422Y-43715578D01*
X125315607Y-43549058D01*
X125304065Y-43423524D01*
X125190289Y-43380000D01*
X125065201Y-43434208D01*
X124981197Y-43503375D01*
X124801530Y-43583375D01*
X124669744Y-43557176D01*
X124505420Y-43455968D01*
X124498812Y-43347349D01*
X124640391Y-43250422D01*
X124850529Y-43194716D01*
X125188549Y-43107711D01*
X125381982Y-42978083D01*
X125453613Y-42788890D01*
X125455334Y-42744999D01*
X125388582Y-42521164D01*
X125181789Y-42374723D01*
X124933722Y-42311528D01*
X124698852Y-42314730D01*
X124698852Y-42314730D01*
G37*
X124698852Y-42314730D02*
X124500617Y-42382608D01*
X124384360Y-42490719D01*
X124389062Y-42605155D01*
X124498586Y-42686847D01*
X124627180Y-42694179D01*
X124693145Y-42623704D01*
X124693334Y-42618000D01*
X124756915Y-42544662D01*
X124901046Y-42542536D01*
X125055809Y-42605163D01*
X125113772Y-42656844D01*
X125159284Y-42750187D01*
X125074438Y-42805760D01*
X124975972Y-42829298D01*
X124576967Y-42930683D01*
X124327636Y-43050452D01*
X124208327Y-43205544D01*
X124199389Y-43412895D01*
X124214689Y-43485435D01*
X124351602Y-43695902D01*
X124536124Y-43794872D01*
X124809285Y-43872607D01*
X124993979Y-43865224D01*
X125152164Y-43765374D01*
X125204422Y-43715578D01*
X125315607Y-43549058D01*
X125304065Y-43423524D01*
X125190289Y-43380000D01*
X125065201Y-43434208D01*
X124981197Y-43503375D01*
X124801530Y-43583375D01*
X124669744Y-43557176D01*
X124505420Y-43455968D01*
X124498812Y-43347349D01*
X124640391Y-43250422D01*
X124850529Y-43194716D01*
X125188549Y-43107711D01*
X125381982Y-42978083D01*
X125453613Y-42788890D01*
X125455334Y-42744999D01*
X125388582Y-42521164D01*
X125181789Y-42374723D01*
X124933722Y-42311528D01*
X124698852Y-42314730D01*
G36*
X122383824Y-42173500D02*
X122266702Y-42186986D01*
X122051405Y-42194257D01*
X121984000Y-42194666D01*
X121643879Y-42251539D01*
X121423758Y-42425944D01*
X121318225Y-42723555D01*
X121306667Y-42904953D01*
X121362340Y-43274370D01*
X121532377Y-43523979D01*
X121821305Y-43656956D01*
X122233651Y-43676476D01*
X122383836Y-43660448D01*
X122547590Y-43630577D01*
X122620761Y-43567156D01*
X122628243Y-43421451D01*
X122605434Y-43226642D01*
X122599264Y-43181779D01*
X122289346Y-43181779D01*
X122286580Y-43340811D01*
X122182356Y-43404790D01*
X121955224Y-43448960D01*
X121821462Y-43423614D01*
X121738159Y-43347496D01*
X121665818Y-43171977D01*
X121631069Y-42917911D01*
X121640288Y-42672279D01*
X121679446Y-42546636D01*
X121800404Y-42475875D01*
X121988997Y-42448666D01*
X122160848Y-42467881D01*
X122228268Y-42560598D01*
X122239157Y-42723833D01*
X122255309Y-42980242D01*
X122289346Y-43181779D01*
X122599264Y-43181779D01*
X122539892Y-42750099D01*
X122485126Y-42426310D01*
X122437774Y-42239287D01*
X122394470Y-42173042D01*
X122383824Y-42173500D01*
X122383824Y-42173500D01*
G37*
X122383824Y-42173500D02*
X122266702Y-42186986D01*
X122051405Y-42194257D01*
X121984000Y-42194666D01*
X121643879Y-42251539D01*
X121423758Y-42425944D01*
X121318225Y-42723555D01*
X121306667Y-42904953D01*
X121362340Y-43274370D01*
X121532377Y-43523979D01*
X121821305Y-43656956D01*
X122233651Y-43676476D01*
X122383836Y-43660448D01*
X122547590Y-43630577D01*
X122620761Y-43567156D01*
X122628243Y-43421451D01*
X122605434Y-43226642D01*
X122599264Y-43181779D01*
X122289346Y-43181779D01*
X122286580Y-43340811D01*
X122182356Y-43404790D01*
X121955224Y-43448960D01*
X121821462Y-43423614D01*
X121738159Y-43347496D01*
X121665818Y-43171977D01*
X121631069Y-42917911D01*
X121640288Y-42672279D01*
X121679446Y-42546636D01*
X121800404Y-42475875D01*
X121988997Y-42448666D01*
X122160848Y-42467881D01*
X122228268Y-42560598D01*
X122239157Y-42723833D01*
X122255309Y-42980242D01*
X122289346Y-43181779D01*
X122599264Y-43181779D01*
X122539892Y-42750099D01*
X122485126Y-42426310D01*
X122437774Y-42239287D01*
X122394470Y-42173042D01*
X122383824Y-42173500D01*
G36*
X123349805Y-42145484D02*
X123346044Y-42147773D01*
X123294713Y-42256839D01*
X123262614Y-42477524D01*
X123249037Y-42763501D01*
X123253271Y-43068443D01*
X123274606Y-43346023D01*
X123312333Y-43549914D01*
X123365741Y-43633787D01*
X123368827Y-43634000D01*
X123435669Y-43576652D01*
X123488064Y-43392243D01*
X123530640Y-43062222D01*
X123541293Y-42942865D01*
X123561949Y-42517619D01*
X123538230Y-42248308D01*
X123468170Y-42126930D01*
X123349805Y-42145484D01*
X123349805Y-42145484D01*
G37*
X123349805Y-42145484D02*
X123346044Y-42147773D01*
X123294713Y-42256839D01*
X123262614Y-42477524D01*
X123249037Y-42763501D01*
X123253271Y-43068443D01*
X123274606Y-43346023D01*
X123312333Y-43549914D01*
X123365741Y-43633787D01*
X123368827Y-43634000D01*
X123435669Y-43576652D01*
X123488064Y-43392243D01*
X123530640Y-43062222D01*
X123541293Y-42942865D01*
X123561949Y-42517619D01*
X123538230Y-42248308D01*
X123468170Y-42126930D01*
X123349805Y-42145484D01*
G04 #@! TD*
M02*
